SplineFontDB: 3.0
FontName: Climaliga
FullName: Climaliga
FamilyName: Climaliga
Weight: Book
Copyright: 
Version: 0.001
ItalicAngle: 0
UnderlinePosition: -102
UnderlineWidth: 102
Ascent: 1536
Descent: 512
sfntRevision: 0x00000042
LayerCount: 2
Layer: 0 1 "Back"  1
Layer: 1 1 "Fore"  0
NeedsXUIDChange: 1
XUID: [1021 13 1787294134 15468677]
FSType: 0
OS2Version: 3
OS2_WeightWidthSlopeOnly: 0
OS2_UseTypoMetrics: 1
CreationTime: 1336179544
ModificationTime: 1357037508
PfmFamily: 81
TTFWeight: 400
TTFWidth: 5
LineGap: 0
VLineGap: 0
Panose: 0 0 0 0 0 0 0 0 0 0
OS2TypoAscent: 0
OS2TypoAOffset: 1
OS2TypoDescent: 0
OS2TypoDOffset: 1
OS2TypoLinegap: 0
OS2WinAscent: 0
OS2WinAOffset: 1
OS2WinDescent: 0
OS2WinDOffset: 1
HheadAscent: 16
HheadAOffset: 1
HheadDescent: -14
HheadDOffset: 1
OS2SubXSize: 1434
OS2SubYSize: 1331
OS2SubXOff: 0
OS2SubYOff: 287
OS2SupXSize: 1434
OS2SupYSize: 1331
OS2SupXOff: 0
OS2SupYOff: 977
OS2StrikeYSize: 102
OS2StrikeYPos: 512
OS2Vendor: 'pyrs'
OS2CodePages: 20000111.40000000
OS2UnicodeRanges: 8000002f.4000004a.00000000.00000000
Lookup: 4 0 1 "Lato-Regular-'liga' Standard Ligatures in Latin lookup 1"  {"Lato-Regular-'liga' Standard Ligatures in Latin lookup 1 subtable"  } ['liga' ('DFLT' <'dflt' > 'latn' <'dflt' > ) ]
Lookup: 258 0 0 "Lato-Regular-'kern' Horizontal Kerning in Latin lookup 0"  {"Lato-Regular-'kern' Horizontal Kerning in Latin lookup 0 subtable"  } ['kern' ('DFLT' <'dflt' > 'latn' <'dflt' > ) ]
MarkAttachClasses: 1
DEI: 91125
TtTable: prep
PUSHW_1
 0
CALL
SVTCA[y-axis]
PUSHW_3
 1
 3
 2
CALL
SVTCA[x-axis]
PUSHW_3
 4
 3
 2
CALL
SVTCA[x-axis]
PUSHW_8
 4
 91
 74
 58
 41
 25
 0
 8
CALL
PUSHW_8
 5
 178
 146
 113
 81
 49
 0
 8
CALL
PUSHW_8
 6
 45
 37
 29
 21
 13
 0
 8
CALL
SVTCA[y-axis]
PUSHW_8
 1
 91
 74
 58
 41
 25
 0
 8
CALL
PUSHW_8
 2
 178
 146
 113
 81
 49
 0
 8
CALL
PUSHW_8
 3
 45
 37
 29
 21
 13
 0
 8
CALL
SVTCA[y-axis]
PUSHW_3
 7
 1
 7
CALL
PUSHW_1
 0
DUP
RCVT
RDTG
ROUND[Black]
RTG
WCVTP
EndTTInstrs
TtTable: fpgm
PUSHW_1
 0
FDEF
MPPEM

StartChar: uniE004
Encoding: 85 57348 0
Width: 2007
Flags: W
LayerCount: 2
Fore
SplineSet
815.5 10 m 6,0,1
 711.5 10 711.5 10 619 50 c 132,-1,2
 526.5 90 526.5 90 459 158.5 c 132,-1,3
 391.5 227 391.5 227 351.5 319.5 c 132,-1,4
 311.5 412 311.5 412 311.5 516 c 260,5,6
 311.5 620 311.5 620 351.5 711.5 c 132,-1,7
 391.5 803 391.5 803 459 870.5 c 132,-1,8
 526.5 938 526.5 938 618.5 978 c 132,-1,9
 710.5 1018 710.5 1018 815.5 1018 c 4,10,11
 958.5 1018 958.5 1018 1074 947.5 c 132,-1,12
 1189.5 877 1189.5 877 1255.5 760 c 5,13,14
 1271.5 764 1271.5 764 1287 766 c 132,-1,15
 1302.5 768 1302.5 768 1318.5 768 c 4,16,17
 1396.5 768 1396.5 768 1465 738.5 c 132,-1,18
 1533.5 709 1533.5 709 1585 656.5 c 132,-1,19
 1636.5 604 1636.5 604 1666 535.5 c 132,-1,20
 1695.5 467 1695.5 467 1695.5 389 c 260,21,22
 1695.5 311 1695.5 311 1666 241.5 c 132,-1,23
 1636.5 172 1636.5 172 1585 121 c 132,-1,24
 1533.5 70 1533.5 70 1465 40 c 132,-1,25
 1396.5 10 1396.5 10 1318.5 10 c 6,26,-1
 815.5 10 l 6,0,1
1318.5 137 m 6,27,28
 1369.5 137 1369.5 137 1416 156.5 c 132,-1,29
 1462.5 176 1462.5 176 1497 211 c 132,-1,30
 1531.5 246 1531.5 246 1551 291 c 132,-1,31
 1570.5 336 1570.5 336 1570.5 389 c 4,32,33
 1570.5 440 1570.5 440 1551 486 c 132,-1,34
 1531.5 532 1531.5 532 1497 567 c 132,-1,35
 1462.5 602 1462.5 602 1416.5 621.5 c 132,-1,36
 1370.5 641 1370.5 641 1318.5 641 c 4,37,38
 1279.5 641 1279.5 641 1246 629.5 c 132,-1,39
 1212.5 618 1212.5 618 1181.5 600 c 5,40,41
 1167.5 663 1167.5 663 1133.5 716.5 c 132,-1,42
 1099.5 770 1099.5 770 1051.5 809 c 132,-1,43
 1003.5 848 1003.5 848 943 869.5 c 132,-1,44
 882.5 891 882.5 891 815.5 891 c 4,45,46
 737.5 891 737.5 891 668.5 861 c 132,-1,47
 599.5 831 599.5 831 547.5 781 c 132,-1,48
 495.5 731 495.5 731 466 662.5 c 132,-1,49
 436.5 594 436.5 594 436.5 516 c 4,50,51
 436.5 436 436.5 436 466 367.5 c 132,-1,52
 495.5 299 495.5 299 547.5 248 c 132,-1,53
 599.5 197 599.5 197 668.5 167 c 132,-1,54
 737.5 137 737.5 137 815.5 137 c 6,55,-1
 1318.5 137 l 6,27,28
EndSplineSet
Ligature2: "Lato-Regular-'liga' Standard Ligatures in Latin lookup 1 subtable" C l o u d y
LCarets2: 5 0 0 0 0 0 
EndChar

StartChar: uniE001
Encoding: 82 57345 1
Width: 2007
Flags: W
LayerCount: 2
Fore
SplineSet
1941.5 700 m 6,0,-1
 1816.5 700 l 6,1,2
 1789.5 700 1789.5 700 1771.5 718.5 c 132,-1,3
 1753.5 737 1753.5 737 1753.5 764 c 260,4,5
 1753.5 791 1753.5 791 1771.5 808 c 132,-1,6
 1789.5 825 1789.5 825 1816.5 825 c 6,7,-1
 1941.5 825 l 6,8,9
 1968.5 825 1968.5 825 1986.5 808 c 132,-1,10
 2004.5 791 2004.5 791 2004.5 764 c 260,11,12
 2004.5 737 2004.5 737 1986.5 718.5 c 132,-1,13
 1968.5 700 1968.5 700 1941.5 700 c 6,0,-1
1695.5 1118 m 6,14,15
 1677.5 1100 1677.5 1100 1652 1100 c 132,-1,16
 1626.5 1100 1626.5 1100 1607.5 1118 c 260,17,18
 1589.5 1136 1589.5 1136 1589.5 1162 c 132,-1,19
 1589.5 1188 1589.5 1188 1607.5 1206 c 6,20,-1
 1695.5 1296 l 6,21,22
 1713.5 1314 1713.5 1314 1739.5 1314.5 c 132,-1,23
 1765.5 1315 1765.5 1315 1783.5 1296 c 260,24,25
 1801.5 1278 1801.5 1278 1802 1251.5 c 132,-1,26
 1802.5 1225 1802.5 1225 1783.5 1206 c 6,27,-1
 1695.5 1118 l 6,14,15
1603.5 629 m 5,28,29
 1644.5 580 1644.5 580 1668 518.5 c 132,-1,30
 1691.5 457 1691.5 457 1691.5 387 c 4,31,32
 1691.5 309 1691.5 309 1662 240.5 c 132,-1,33
 1632.5 172 1632.5 172 1581 122 c 132,-1,34
 1529.5 72 1529.5 72 1461 42 c 132,-1,35
 1392.5 12 1392.5 12 1314.5 12 c 6,36,-1
 813.5 12 l 6,37,38
 709.5 12 709.5 12 618 51 c 132,-1,39
 526.5 90 526.5 90 459 157.5 c 132,-1,40
 391.5 225 391.5 225 351.5 316.5 c 132,-1,41
 311.5 408 311.5 408 311.5 512 c 260,42,43
 311.5 616 311.5 616 351.5 707.5 c 132,-1,44
 391.5 799 391.5 799 459 867.5 c 132,-1,45
 526.5 936 526.5 936 617.5 975 c 132,-1,46
 708.5 1014 708.5 1014 813.5 1014 c 4,47,48
 850.5 1014 850.5 1014 886 1009 c 132,-1,49
 921.5 1004 921.5 1004 956.5 993 c 5,50,51
 1007.5 1061 1007.5 1061 1084.5 1100 c 132,-1,52
 1161.5 1139 1161.5 1139 1253.5 1139 c 4,53,54
 1331.5 1139 1331.5 1139 1400 1109 c 132,-1,55
 1468.5 1079 1468.5 1079 1518.5 1029 c 132,-1,56
 1568.5 979 1568.5 979 1598.5 910.5 c 132,-1,57
 1628.5 842 1628.5 842 1628.5 764 c 4,58,59
 1628.5 692 1628.5 692 1603.5 629 c 5,28,29
438.5 512 m 260,60,61
 438.5 434 438.5 434 468 365.5 c 132,-1,62
 497.5 297 497.5 297 547.5 247 c 132,-1,63
 597.5 197 597.5 197 666.5 167 c 132,-1,64
 735.5 137 735.5 137 813.5 137 c 6,65,-1
 1314.5 137 l 6,66,67
 1365.5 137 1365.5 137 1412 156.5 c 132,-1,68
 1458.5 176 1458.5 176 1493 210 c 132,-1,69
 1527.5 244 1527.5 244 1547 290 c 132,-1,70
 1566.5 336 1566.5 336 1566.5 387 c 260,71,72
 1566.5 438 1566.5 438 1547 484 c 132,-1,73
 1527.5 530 1527.5 530 1493 565 c 132,-1,74
 1458.5 600 1458.5 600 1412 619.5 c 132,-1,75
 1365.5 639 1365.5 639 1314.5 639 c 4,76,77
 1277.5 639 1277.5 639 1243 627.5 c 132,-1,78
 1208.5 616 1208.5 616 1179.5 598 c 5,79,80
 1165.5 659 1165.5 659 1131.5 712.5 c 132,-1,81
 1097.5 766 1097.5 766 1048.5 805 c 132,-1,82
 999.5 844 999.5 844 940 866.5 c 132,-1,83
 880.5 889 880.5 889 813.5 889 c 4,84,85
 735.5 889 735.5 889 666.5 859 c 132,-1,86
 597.5 829 597.5 829 547.5 778 c 132,-1,87
 497.5 727 497.5 727 468 658.5 c 132,-1,88
 438.5 590 438.5 590 438.5 512 c 260,60,61
1253.5 1014 m 4,89,90
 1144.5 1014 1144.5 1014 1075.5 940 c 5,91,92
 1188.5 870 1188.5 870 1251.5 758 c 5,93,94
 1267.5 760 1267.5 760 1283 762 c 132,-1,95
 1298.5 764 1298.5 764 1314.5 764 c 4,96,97
 1365.5 764 1365.5 764 1412 750.5 c 132,-1,98
 1458.5 737 1458.5 737 1499.5 715 c 5,99,100
 1501.5 727 1501.5 727 1502.5 739.5 c 132,-1,101
 1503.5 752 1503.5 752 1503.5 764 c 4,102,103
 1503.5 815 1503.5 815 1484 861 c 132,-1,104
 1464.5 907 1464.5 907 1430.5 941 c 132,-1,105
 1396.5 975 1396.5 975 1350.5 994.5 c 132,-1,106
 1304.5 1014 1304.5 1014 1253.5 1014 c 4,89,90
1253.5 1266 m 260,107,108
 1226.5 1266 1226.5 1266 1208 1283 c 132,-1,109
 1189.5 1300 1189.5 1300 1189.5 1327 c 6,110,-1
 1189.5 1454 l 6,111,112
 1189.5 1479 1189.5 1479 1208 1497.5 c 132,-1,113
 1226.5 1516 1226.5 1516 1253.5 1516 c 260,114,115
 1280.5 1516 1280.5 1516 1297.5 1497.5 c 132,-1,116
 1314.5 1479 1314.5 1479 1314.5 1454 c 6,117,-1
 1314.5 1327 l 6,118,119
 1314.5 1300 1314.5 1300 1297.5 1283 c 132,-1,120
 1280.5 1266 1280.5 1266 1253.5 1266 c 260,107,108
808.5 1118 m 6,121,-1
 720.5 1206 l 6,122,123
 702.5 1224 702.5 1224 702.5 1251 c 132,-1,124
 702.5 1278 702.5 1278 720.5 1296 c 260,125,126
 738.5 1314 738.5 1314 764.5 1314.5 c 132,-1,127
 790.5 1315 790.5 1315 808.5 1296 c 6,128,-1
 896.5 1206 l 6,129,130
 914.5 1188 914.5 1188 915 1162.5 c 132,-1,131
 915.5 1137 915.5 1137 896.5 1118 c 4,132,133
 880.5 1100 880.5 1100 853.5 1100 c 132,-1,134
 826.5 1100 826.5 1100 808.5 1118 c 6,121,-1
EndSplineSet
Ligature2: "Lato-Regular-'liga' Standard Ligatures in Latin lookup 1 subtable" P a r t i a l l y space C l o u d y
LCarets2: 15 0 0 0 0 0 0 0 0 0 0 0 0 0 0 0 
EndChar

StartChar: uniE002
Encoding: 83 57346 2
Width: 2007
Flags: W
LayerCount: 2
Fore
SplineSet
1443.5 35 m 5,0,-1
 1443.5 172 l 5,1,2
 1500.5 205 1500.5 205 1534.5 262 c 132,-1,3
 1568.5 319 1568.5 319 1568.5 389 c 4,4,5
 1568.5 440 1568.5 440 1549 486 c 132,-1,6
 1529.5 532 1529.5 532 1496 567 c 132,-1,7
 1462.5 602 1462.5 602 1416.5 621.5 c 132,-1,8
 1370.5 641 1370.5 641 1318.5 641 c 4,9,10
 1279.5 641 1279.5 641 1246 629.5 c 132,-1,11
 1212.5 618 1212.5 618 1181.5 600 c 5,12,13
 1167.5 661 1167.5 661 1133.5 715.5 c 132,-1,14
 1099.5 770 1099.5 770 1050.5 809 c 132,-1,15
 1001.5 848 1001.5 848 941 870.5 c 132,-1,16
 880.5 893 880.5 893 813.5 893 c 4,17,18
 735.5 893 735.5 893 666.5 863.5 c 132,-1,19
 597.5 834 597.5 834 546.5 782.5 c 132,-1,20
 495.5 731 495.5 731 466 662.5 c 132,-1,21
 436.5 594 436.5 594 436.5 516 c 4,22,23
 436.5 430 436.5 430 470 358.5 c 132,-1,24
 503.5 287 503.5 287 563.5 233 c 5,25,-1
 563.5 80 l 5,26,27
 448.5 146 448.5 146 380 260.5 c 132,-1,28
 311.5 375 311.5 375 311.5 516 c 4,29,30
 311.5 620 311.5 620 351.5 711.5 c 132,-1,31
 391.5 803 391.5 803 459 870.5 c 132,-1,32
 526.5 938 526.5 938 617.5 978 c 132,-1,33
 708.5 1018 708.5 1018 813.5 1018 c 4,34,35
 956.5 1018 956.5 1018 1073 947.5 c 132,-1,36
 1189.5 877 1189.5 877 1253.5 762 c 5,37,38
 1269.5 762 1269.5 762 1285 764 c 132,-1,39
 1300.5 766 1300.5 766 1318.5 766 c 4,40,41
 1396.5 766 1396.5 766 1465 736.5 c 132,-1,42
 1533.5 707 1533.5 707 1585 655.5 c 132,-1,43
 1636.5 604 1636.5 604 1666 535.5 c 132,-1,44
 1695.5 467 1695.5 467 1695.5 389 c 4,45,46
 1695.5 328 1695.5 328 1677 271.5 c 132,-1,47
 1658.5 215 1658.5 215 1625 169 c 132,-1,48
 1591.5 123 1591.5 123 1545 88 c 132,-1,49
 1498.5 53 1498.5 53 1443.5 35 c 5,0,-1
751.5 389 m 4,50,51
 776.5 389 776.5 389 795 370.5 c 132,-1,52
 813.5 352 813.5 352 813.5 326 c 6,53,-1
 813.5 201 l 6,54,55
 813.5 174 813.5 174 795 155.5 c 132,-1,56
 776.5 137 776.5 137 751.5 137 c 4,57,58
 724.5 137 724.5 137 706.5 155.5 c 132,-1,59
 688.5 174 688.5 174 688.5 201 c 6,60,-1
 688.5 326 l 6,61,62
 688.5 353 688.5 353 706.5 371 c 132,-1,63
 724.5 389 724.5 389 751.5 389 c 4,50,51
751.5 10 m 4,64,65
 776.5 10 776.5 10 795 -7.5 c 132,-1,66
 813.5 -25 813.5 -25 813.5 -51 c 6,67,-1
 813.5 -178 l 6,68,69
 813.5 -203 813.5 -203 795 -221.5 c 132,-1,70
 776.5 -240 776.5 -240 751.5 -240 c 4,71,72
 724.5 -240 724.5 -240 706.5 -221.5 c 132,-1,73
 688.5 -203 688.5 -203 688.5 -178 c 6,74,-1
 688.5 -51 l 6,75,76
 688.5 -24 688.5 -24 706.5 -7 c 132,-1,77
 724.5 10 724.5 10 751.5 10 c 4,64,65
1003.5 262 m 260,78,79
 1030.5 262 1030.5 262 1048.5 243.5 c 132,-1,80
 1066.5 225 1066.5 225 1066.5 201 c 6,81,-1
 1066.5 74 l 6,82,83
 1066.5 47 1066.5 47 1048.5 28.5 c 132,-1,84
 1030.5 10 1030.5 10 1003.5 10 c 260,85,86
 976.5 10 976.5 10 958.5 28.5 c 132,-1,87
 940.5 47 940.5 47 940.5 74 c 6,88,-1
 940.5 201 l 6,89,90
 940.5 226 940.5 226 958.5 244 c 132,-1,91
 976.5 262 976.5 262 1003.5 262 c 260,78,79
1003.5 -115 m 260,92,93
 1030.5 -115 1030.5 -115 1048.5 -133.5 c 132,-1,94
 1066.5 -152 1066.5 -152 1066.5 -178 c 6,95,-1
 1066.5 -305 l 6,96,97
 1066.5 -330 1066.5 -330 1048.5 -348.5 c 132,-1,98
 1030.5 -367 1030.5 -367 1003.5 -367 c 260,99,100
 976.5 -367 976.5 -367 958.5 -348.5 c 132,-1,101
 940.5 -330 940.5 -330 940.5 -305 c 6,102,-1
 940.5 -178 l 6,103,104
 940.5 -151 940.5 -151 958.5 -133 c 132,-1,105
 976.5 -115 976.5 -115 1003.5 -115 c 260,92,93
1255.5 389 m 260,106,107
 1282.5 389 1282.5 389 1300.5 370.5 c 132,-1,108
 1318.5 352 1318.5 352 1318.5 326 c 6,109,-1
 1318.5 201 l 6,110,111
 1318.5 174 1318.5 174 1300.5 155.5 c 132,-1,112
 1282.5 137 1282.5 137 1255.5 137 c 260,113,114
 1228.5 137 1228.5 137 1210 155.5 c 132,-1,115
 1191.5 174 1191.5 174 1191.5 201 c 6,116,-1
 1191.5 326 l 6,117,118
 1191.5 353 1191.5 353 1210 371 c 132,-1,119
 1228.5 389 1228.5 389 1255.5 389 c 260,106,107
1255.5 10 m 260,120,121
 1282.5 10 1282.5 10 1300.5 -7.5 c 132,-1,122
 1318.5 -25 1318.5 -25 1318.5 -51 c 6,123,-1
 1318.5 -178 l 6,124,125
 1318.5 -203 1318.5 -203 1300.5 -221.5 c 132,-1,126
 1282.5 -240 1282.5 -240 1255.5 -240 c 260,127,128
 1228.5 -240 1228.5 -240 1210 -221.5 c 132,-1,129
 1191.5 -203 1191.5 -203 1191.5 -178 c 6,130,-1
 1191.5 -51 l 6,131,132
 1191.5 -24 1191.5 -24 1210 -7 c 132,-1,133
 1228.5 10 1228.5 10 1255.5 10 c 260,120,121
EndSplineSet
LCarets2: 4 0 0 0 0 
Ligature2: "Lato-Regular-'liga' Standard Ligatures in Latin lookup 1 subtable" R a i n y
EndChar

StartChar: uniE003
Encoding: 84 57347 3
Width: 2007
Flags: W
LayerCount: 2
Fore
SplineSet
1941.5 702 m 6,0,-1
 1816.5 702 l 6,1,2
 1789.5 702 1789.5 702 1771.5 720.5 c 132,-1,3
 1753.5 739 1753.5 739 1753.5 766 c 4,4,5
 1753.5 795 1753.5 795 1771.5 813 c 132,-1,6
 1789.5 831 1789.5 831 1816.5 831 c 6,7,-1
 1941.5 831 l 6,8,9
 1968.5 831 1968.5 831 1985.5 813 c 132,-1,10
 2002.5 795 2002.5 795 2002.5 766 c 4,11,12
 2002.5 739 2002.5 739 1985.5 720.5 c 132,-1,13
 1968.5 702 1968.5 702 1941.5 702 c 6,0,-1
1693.5 1122 m 6,14,15
 1677.5 1104 1677.5 1104 1651 1104 c 132,-1,16
 1624.5 1104 1624.5 1104 1607.5 1122 c 4,17,18
 1589.5 1140 1589.5 1140 1589.5 1166 c 132,-1,19
 1589.5 1192 1589.5 1192 1607.5 1210 c 6,20,-1
 1693.5 1300 l 5,21,22
 1713.5 1316 1713.5 1316 1739.5 1316.5 c 132,-1,23
 1765.5 1317 1765.5 1317 1783.5 1300 c 4,24,25
 1803.5 1280 1803.5 1280 1804 1253.5 c 132,-1,26
 1804.5 1227 1804.5 1227 1783.5 1210 c 5,27,-1
 1693.5 1122 l 6,14,15
1603.5 631 m 5,28,29
 1644.5 584 1644.5 584 1668 522.5 c 132,-1,30
 1691.5 461 1691.5 461 1691.5 391 c 4,31,32
 1691.5 330 1691.5 330 1673 273.5 c 132,-1,33
 1654.5 217 1654.5 217 1621 171 c 132,-1,34
 1587.5 125 1587.5 125 1541.5 90 c 132,-1,35
 1495.5 55 1495.5 55 1439.5 37 c 5,36,-1
 1439.5 172 l 5,37,38
 1496.5 205 1496.5 205 1530.5 262 c 132,-1,39
 1564.5 319 1564.5 319 1564.5 391 c 4,40,41
 1564.5 442 1564.5 442 1545 488.5 c 132,-1,42
 1525.5 535 1525.5 535 1492 568.5 c 132,-1,43
 1458.5 602 1458.5 602 1412 621.5 c 132,-1,44
 1365.5 641 1365.5 641 1314.5 641 c 4,45,46
 1236.5 641 1236.5 641 1179.5 600 c 5,47,48
 1165.5 661 1165.5 661 1130.5 714.5 c 132,-1,49
 1095.5 768 1095.5 768 1047.5 807 c 132,-1,50
 999.5 846 999.5 846 939 868.5 c 132,-1,51
 878.5 891 878.5 891 810.5 891 c 4,52,53
 732.5 891 732.5 891 664 861 c 132,-1,54
 595.5 831 595.5 831 545.5 781 c 132,-1,55
 495.5 731 495.5 731 466 662.5 c 132,-1,56
 436.5 594 436.5 594 436.5 516 c 4,57,58
 436.5 430 436.5 430 470 359.5 c 132,-1,59
 503.5 289 503.5 289 561.5 236 c 5,60,-1
 561.5 82 l 5,61,62
 448.5 148 448.5 148 380 261.5 c 132,-1,63
 311.5 375 311.5 375 311.5 516 c 4,64,65
 311.5 620 311.5 620 351.5 711.5 c 132,-1,66
 391.5 803 391.5 803 459 870.5 c 132,-1,67
 526.5 938 526.5 938 617.5 977 c 132,-1,68
 708.5 1016 708.5 1016 810.5 1016 c 4,69,70
 849.5 1016 849.5 1016 884.5 1012 c 132,-1,71
 919.5 1008 919.5 1008 954.5 997 c 5,72,73
 1007.5 1063 1007.5 1063 1083.5 1104 c 132,-1,74
 1159.5 1145 1159.5 1145 1251.5 1145 c 4,75,76
 1329.5 1145 1329.5 1145 1398 1115 c 132,-1,77
 1466.5 1085 1466.5 1085 1517.5 1034 c 132,-1,78
 1568.5 983 1568.5 983 1598.5 914.5 c 132,-1,79
 1628.5 846 1628.5 846 1628.5 766 c 4,80,81
 1628.5 731 1628.5 731 1621 698.5 c 132,-1,82
 1613.5 666 1613.5 666 1603.5 631 c 5,28,29
1251.5 1016 m 4,83,84
 1145.5 1016 1145.5 1016 1075.5 942 c 5,85,86
 1188.5 876 1188.5 876 1251.5 762 c 5,87,88
 1267.5 764 1267.5 764 1283 765 c 132,-1,89
 1298.5 766 1298.5 766 1314.5 766 c 4,90,91
 1414.5 766 1414.5 766 1497.5 719 c 5,92,93
 1503.5 739 1503.5 739 1503.5 766 c 4,94,95
 1503.5 817 1503.5 817 1484 863 c 132,-1,96
 1464.5 909 1464.5 909 1429.5 943 c 132,-1,97
 1394.5 977 1394.5 977 1348.5 996.5 c 132,-1,98
 1302.5 1016 1302.5 1016 1251.5 1016 c 4,83,84
1251.5 1270 m 260,99,100
 1224.5 1270 1224.5 1270 1207 1288.5 c 132,-1,101
 1189.5 1307 1189.5 1307 1189.5 1331 c 6,102,-1
 1189.5 1456 l 6,103,104
 1189.5 1483 1189.5 1483 1207 1501.5 c 132,-1,105
 1224.5 1520 1224.5 1520 1251.5 1520 c 260,106,107
 1278.5 1520 1278.5 1520 1296.5 1501.5 c 132,-1,108
 1314.5 1483 1314.5 1483 1314.5 1456 c 6,109,-1
 1314.5 1331 l 6,110,111
 1314.5 1306 1314.5 1306 1296.5 1288 c 132,-1,112
 1278.5 1270 1278.5 1270 1251.5 1270 c 260,99,100
808.5 1122 m 6,113,-1
 718.5 1210 l 6,114,115
 700.5 1226 700.5 1226 700.5 1253 c 132,-1,116
 700.5 1280 700.5 1280 718.5 1300 c 5,117,118
 736.5 1316 736.5 1316 763.5 1316.5 c 132,-1,119
 790.5 1317 790.5 1317 808.5 1300 c 6,120,-1
 894.5 1210 l 5,121,122
 914.5 1192 914.5 1192 915 1166.5 c 132,-1,123
 915.5 1141 915.5 1141 894.5 1122 c 5,124,125
 878.5 1104 878.5 1104 851.5 1104 c 132,-1,126
 824.5 1104 824.5 1104 808.5 1122 c 6,113,-1
749.5 391 m 260,127,128
 776.5 391 776.5 391 793.5 371.5 c 132,-1,129
 810.5 352 810.5 352 810.5 328 c 6,130,-1
 810.5 203 l 6,131,132
 810.5 176 810.5 176 793.5 157.5 c 132,-1,133
 776.5 139 776.5 139 749.5 139 c 260,134,135
 722.5 139 722.5 139 704.5 157.5 c 132,-1,136
 686.5 176 686.5 176 686.5 203 c 6,137,-1
 686.5 328 l 6,138,139
 686.5 353 686.5 353 704.5 372 c 132,-1,140
 722.5 391 722.5 391 749.5 391 c 260,127,128
749.5 14 m 260,141,142
 776.5 14 776.5 14 793.5 -4.5 c 132,-1,143
 810.5 -23 810.5 -23 810.5 -49 c 6,144,-1
 810.5 -174 l 6,145,146
 810.5 -201 810.5 -201 793.5 -218.5 c 132,-1,147
 776.5 -236 776.5 -236 749.5 -236 c 260,148,149
 722.5 -236 722.5 -236 704.5 -218.5 c 132,-1,150
 686.5 -201 686.5 -201 686.5 -174 c 6,151,-1
 686.5 -49 l 6,152,153
 686.5 -22 686.5 -22 704.5 -4 c 132,-1,154
 722.5 14 722.5 14 749.5 14 c 260,141,142
999.5 264 m 4,155,156
 1028.5 264 1028.5 264 1046.5 245.5 c 132,-1,157
 1064.5 227 1064.5 227 1064.5 203 c 6,158,-1
 1064.5 78 l 6,159,160
 1064.5 49 1064.5 49 1046.5 31.5 c 132,-1,161
 1028.5 14 1028.5 14 999.5 14 c 4,162,163
 974.5 14 974.5 14 957.5 31.5 c 132,-1,164
 940.5 49 940.5 49 940.5 78 c 6,165,-1
 940.5 203 l 6,166,167
 940.5 228 940.5 228 957.5 246 c 132,-1,168
 974.5 264 974.5 264 999.5 264 c 4,155,156
999.5 -111 m 4,169,170
 1028.5 -111 1028.5 -111 1046.5 -129 c 132,-1,171
 1064.5 -147 1064.5 -147 1064.5 -174 c 6,172,-1
 1064.5 -301 l 6,173,174
 1064.5 -328 1064.5 -328 1046.5 -346.5 c 132,-1,175
 1028.5 -365 1028.5 -365 999.5 -365 c 4,176,177
 974.5 -365 974.5 -365 957.5 -346.5 c 132,-1,178
 940.5 -328 940.5 -328 940.5 -301 c 6,179,-1
 940.5 -174 l 6,180,181
 940.5 -147 940.5 -147 957.5 -129 c 132,-1,182
 974.5 -111 974.5 -111 999.5 -111 c 4,169,170
1251.5 391 m 260,183,184
 1278.5 391 1278.5 391 1296.5 371.5 c 132,-1,185
 1314.5 352 1314.5 352 1314.5 328 c 6,186,-1
 1314.5 203 l 6,187,188
 1314.5 176 1314.5 176 1296 157.5 c 132,-1,189
 1277.5 139 1277.5 139 1251.5 139 c 260,190,191
 1224.5 139 1224.5 139 1207 157.5 c 132,-1,192
 1189.5 176 1189.5 176 1189.5 203 c 6,193,-1
 1189.5 328 l 6,194,195
 1189.5 353 1189.5 353 1207 372 c 132,-1,196
 1224.5 391 1224.5 391 1251.5 391 c 260,183,184
1251.5 14 m 260,197,198
 1278.5 14 1278.5 14 1296.5 -4.5 c 132,-1,199
 1314.5 -23 1314.5 -23 1314.5 -49 c 6,200,-1
 1314.5 -174 l 6,201,202
 1314.5 -201 1314.5 -201 1296 -218.5 c 132,-1,203
 1277.5 -236 1277.5 -236 1251.5 -236 c 260,204,205
 1224.5 -236 1224.5 -236 1207 -218.5 c 132,-1,206
 1189.5 -201 1189.5 -201 1189.5 -174 c 6,207,-1
 1189.5 -49 l 6,208,209
 1189.5 -22 1189.5 -22 1207 -4 c 132,-1,210
 1224.5 14 1224.5 14 1251.5 14 c 260,197,198
EndSplineSet
LCarets2: 16 0 0 0 0 0 0 0 0 0 0 0 0 0 0 0 0 
Ligature2: "Lato-Regular-'liga' Standard Ligatures in Latin lookup 1 subtable" S c a t t e r e d space s h o w e r s
EndChar

StartChar: uniE005
Encoding: 86 57349 4
Width: 2007
Flags: W
LayerCount: 2
Fore
SplineSet
1443.5 35 m 1,0,-1
 1443.5 172 l 1,1,2
 1500.5 205 1500.5 205 1534.5 262 c 128,-1,3
 1568.5 319 1568.5 319 1568.5 389 c 0,4,5
 1568.5 440 1568.5 440 1549 486 c 128,-1,6
 1529.5 532 1529.5 532 1496 567 c 128,-1,7
 1462.5 602 1462.5 602 1416.5 621.5 c 128,-1,8
 1370.5 641 1370.5 641 1318.5 641 c 0,9,10
 1279.5 641 1279.5 641 1246 629.5 c 128,-1,11
 1212.5 618 1212.5 618 1181.5 600 c 1,12,13
 1167.5 661 1167.5 661 1133.5 715.5 c 128,-1,14
 1099.5 770 1099.5 770 1050.5 809 c 128,-1,15
 1001.5 848 1001.5 848 941 870.5 c 128,-1,16
 880.5 893 880.5 893 813.5 893 c 0,17,18
 735.5 893 735.5 893 666.5 863.5 c 128,-1,19
 597.5 834 597.5 834 546.5 782.5 c 128,-1,20
 495.5 731 495.5 731 466 662.5 c 128,-1,21
 436.5 594 436.5 594 436.5 516 c 0,22,23
 436.5 430 436.5 430 470 358.5 c 128,-1,24
 503.5 287 503.5 287 563.5 233 c 1,25,-1
 563.5 80 l 1,26,27
 448.5 146 448.5 146 380 260.5 c 128,-1,28
 311.5 375 311.5 375 311.5 516 c 0,29,30
 311.5 620 311.5 620 351.5 711.5 c 128,-1,31
 391.5 803 391.5 803 459 870.5 c 128,-1,32
 526.5 938 526.5 938 617.5 978 c 128,-1,33
 708.5 1018 708.5 1018 813.5 1018 c 0,34,35
 956.5 1018 956.5 1018 1073 947.5 c 128,-1,36
 1189.5 877 1189.5 877 1253.5 762 c 1,37,38
 1269.5 762 1269.5 762 1285 764 c 128,-1,39
 1300.5 766 1300.5 766 1318.5 766 c 0,40,41
 1396.5 766 1396.5 766 1465 736.5 c 128,-1,42
 1533.5 707 1533.5 707 1585 655.5 c 128,-1,43
 1636.5 604 1636.5 604 1666 535.5 c 128,-1,44
 1695.5 467 1695.5 467 1695.5 389 c 0,45,46
 1695.5 328 1695.5 328 1677 271.5 c 128,-1,47
 1658.5 215 1658.5 215 1625 169 c 128,-1,48
 1591.5 123 1591.5 123 1545 88 c 128,-1,49
 1498.5 53 1498.5 53 1443.5 35 c 1,0,-1
751.5 10 m 0,50,51
 724.5 10 724.5 10 721.5 28.5 c 128,-1,52
 718.5 47 718.5 47 718.5 74 c 2,53,-1
 718.5 326 l 2,54,55
 718.5 353 718.5 353 721.5 371 c 128,-1,56
 724.5 389 724.5 389 751.5 389 c 0,57,58
 776.5 389 776.5 389 780.5 370.5 c 128,-1,59
 784.5 352 784.5 352 784.5 326 c 2,60,-1
 784.5 74 l 2,61,62
 784.5 47 784.5 47 780.5 28.5 c 128,-1,63
 776.5 10 776.5 10 751.5 10 c 0,50,51
751.5 -115 m 0,64,65
 776.5 -115 776.5 -115 795 -133.5 c 128,-1,66
 813.5 -152 813.5 -152 813.5 -178 c 0,67,68
 813.5 -203 813.5 -203 795 -221.5 c 128,-1,69
 776.5 -240 776.5 -240 751.5 -240 c 0,70,71
 724.5 -240 724.5 -240 706.5 -221.5 c 128,-1,72
 688.5 -203 688.5 -203 688.5 -178 c 0,73,74
 688.5 -151 688.5 -151 706.5 -133 c 128,-1,75
 724.5 -115 724.5 -115 751.5 -115 c 0,64,65
1003.5 -115 m 256,76,77
 976.5 -115 976.5 -115 974.5 -97.5 c 128,-1,78
 972.5 -80 972.5 -80 972.5 -51 c 2,79,-1
 972.5 201 l 2,80,81
 972.5 226 972.5 226 974.5 244 c 128,-1,82
 976.5 262 976.5 262 1003.5 262 c 256,83,84
 1030.5 262 1030.5 262 1032.5 243.5 c 128,-1,85
 1034.5 225 1034.5 225 1034.5 201 c 2,86,-1
 1034.5 -51 l 2,87,88
 1034.5 -80 1034.5 -80 1032.5 -97.5 c 128,-1,89
 1030.5 -115 1030.5 -115 1003.5 -115 c 256,76,77
1003.5 -240 m 256,90,91
 1030.5 -240 1030.5 -240 1048.5 -258 c 128,-1,92
 1066.5 -276 1066.5 -276 1066.5 -305 c 0,93,94
 1066.5 -330 1066.5 -330 1048.5 -348.5 c 128,-1,95
 1030.5 -367 1030.5 -367 1003.5 -367 c 256,96,97
 976.5 -367 976.5 -367 958.5 -348.5 c 128,-1,98
 940.5 -330 940.5 -330 940.5 -305 c 0,99,100
 940.5 -276 940.5 -276 958.5 -258 c 128,-1,101
 976.5 -240 976.5 -240 1003.5 -240 c 256,90,91
1255.5 10 m 256,102,103
 1228.5 10 1228.5 10 1225.5 28.5 c 128,-1,104
 1222.5 47 1222.5 47 1222.5 74 c 2,105,-1
 1222.5 326 l 2,106,107
 1222.5 353 1222.5 353 1225.5 371 c 128,-1,108
 1228.5 389 1228.5 389 1255.5 389 c 256,109,110
 1282.5 389 1282.5 389 1284.5 370.5 c 128,-1,111
 1286.5 352 1286.5 352 1286.5 326 c 2,112,-1
 1286.5 74 l 2,113,114
 1286.5 47 1286.5 47 1284.5 28.5 c 128,-1,115
 1282.5 10 1282.5 10 1255.5 10 c 256,102,103
1255.5 -115 m 256,116,117
 1282.5 -115 1282.5 -115 1300.5 -133.5 c 128,-1,118
 1318.5 -152 1318.5 -152 1318.5 -178 c 0,119,120
 1318.5 -203 1318.5 -203 1300.5 -221.5 c 128,-1,121
 1282.5 -240 1282.5 -240 1255.5 -240 c 256,122,123
 1228.5 -240 1228.5 -240 1210 -221.5 c 128,-1,124
 1191.5 -203 1191.5 -203 1191.5 -178 c 0,125,126
 1191.5 -151 1191.5 -151 1210 -133 c 128,-1,127
 1228.5 -115 1228.5 -115 1255.5 -115 c 256,116,117
EndSplineSet
Ligature2: "Lato-Regular-'liga' Standard Ligatures in Latin lookup 1 subtable" H a i l
EndChar

StartChar: uniE007
Encoding: 88 57351 5
Width: 2007
Flags: W
LayerCount: 2
Fore
SplineSet
1444.5 33 m 5,0,-1
 1444.5 170 l 5,1,2
 1499.5 203 1499.5 203 1534.5 260 c 132,-1,3
 1569.5 317 1569.5 317 1569.5 387 c 4,4,5
 1569.5 438 1569.5 438 1549 484 c 132,-1,6
 1528.5 530 1528.5 530 1495 565 c 132,-1,7
 1461.5 600 1461.5 600 1415.5 619.5 c 132,-1,8
 1369.5 639 1369.5 639 1317.5 639 c 4,9,10
 1243.5 639 1243.5 639 1180.5 598 c 5,11,12
 1166.5 661 1166.5 661 1132.5 714.5 c 132,-1,13
 1098.5 768 1098.5 768 1050.5 807 c 132,-1,14
 1002.5 846 1002.5 846 943 868.5 c 132,-1,15
 883.5 891 883.5 891 816.5 891 c 4,16,17
 738.5 891 738.5 891 668.5 861 c 132,-1,18
 598.5 831 598.5 831 547.5 780 c 132,-1,19
 496.5 729 496.5 729 467 660.5 c 132,-1,20
 437.5 592 437.5 592 437.5 514 c 4,21,22
 437.5 430 437.5 430 472 358.5 c 132,-1,23
 506.5 287 506.5 287 564.5 233 c 5,24,-1
 564.5 78 l 5,25,26
 449.5 144 449.5 144 381 258.5 c 132,-1,27
 312.5 373 312.5 373 312.5 514 c 4,28,29
 312.5 618 312.5 618 352.5 709.5 c 132,-1,30
 392.5 801 392.5 801 460 868.5 c 132,-1,31
 527.5 936 527.5 936 619.5 976 c 132,-1,32
 711.5 1016 711.5 1016 816.5 1016 c 4,33,34
 957.5 1016 957.5 1016 1073 945 c 132,-1,35
 1188.5 874 1188.5 874 1254.5 758 c 5,36,37
 1270.5 762 1270.5 762 1286 764 c 132,-1,38
 1301.5 766 1301.5 766 1317.5 766 c 4,39,40
 1395.5 766 1395.5 766 1464 736.5 c 132,-1,41
 1532.5 707 1532.5 707 1584 655.5 c 132,-1,42
 1635.5 604 1635.5 604 1665 534.5 c 132,-1,43
 1694.5 465 1694.5 465 1694.5 387 c 4,44,45
 1694.5 264 1694.5 264 1624 168 c 132,-1,46
 1553.5 72 1553.5 72 1444.5 33 c 5,0,-1
752.5 262 m 260,47,48
 779.5 262 779.5 262 798 243.5 c 132,-1,49
 816.5 225 816.5 225 816.5 201 c 4,50,51
 816.5 172 816.5 172 798 154.5 c 132,-1,52
 779.5 137 779.5 137 752.5 137 c 260,53,54
 725.5 137 725.5 137 707.5 154.5 c 132,-1,55
 689.5 172 689.5 172 689.5 201 c 4,56,57
 689.5 226 689.5 226 707.5 244 c 132,-1,58
 725.5 262 725.5 262 752.5 262 c 260,47,48
752.5 10 m 260,59,60
 779.5 10 779.5 10 798 -7.5 c 132,-1,61
 816.5 -25 816.5 -25 816.5 -53 c 4,62,63
 816.5 -78 816.5 -78 798 -96.5 c 132,-1,64
 779.5 -115 779.5 -115 752.5 -115 c 260,65,66
 725.5 -115 725.5 -115 707.5 -96.5 c 132,-1,67
 689.5 -78 689.5 -78 689.5 -53 c 4,68,69
 689.5 -24 689.5 -24 707.5 -7 c 132,-1,70
 725.5 10 725.5 10 752.5 10 c 260,59,60
1004.5 137 m 260,71,72
 1031.5 137 1031.5 137 1048.5 118.5 c 132,-1,73
 1065.5 100 1065.5 100 1065.5 74 c 260,74,75
 1065.5 47 1065.5 47 1048.5 28.5 c 132,-1,76
 1031.5 10 1031.5 10 1004.5 10 c 260,77,78
 977.5 10 977.5 10 959.5 28.5 c 132,-1,79
 941.5 47 941.5 47 941.5 74 c 260,80,81
 941.5 101 941.5 101 959.5 119 c 132,-1,82
 977.5 137 977.5 137 1004.5 137 c 260,71,72
1004.5 -115 m 260,83,84
 1031.5 -115 1031.5 -115 1048.5 -133.5 c 132,-1,85
 1065.5 -152 1065.5 -152 1065.5 -178 c 260,86,87
 1065.5 -205 1065.5 -205 1048.5 -222.5 c 132,-1,88
 1031.5 -240 1031.5 -240 1004.5 -240 c 260,89,90
 977.5 -240 977.5 -240 959.5 -222.5 c 132,-1,91
 941.5 -205 941.5 -205 941.5 -178 c 260,92,93
 941.5 -151 941.5 -151 959.5 -133 c 132,-1,94
 977.5 -115 977.5 -115 1004.5 -115 c 260,83,84
1254.5 262 m 4,95,96
 1281.5 262 1281.5 262 1299.5 243.5 c 132,-1,97
 1317.5 225 1317.5 225 1317.5 201 c 4,98,99
 1317.5 172 1317.5 172 1299 154.5 c 132,-1,100
 1280.5 137 1280.5 137 1254.5 137 c 4,101,102
 1229.5 137 1229.5 137 1210 154.5 c 132,-1,103
 1190.5 172 1190.5 172 1190.5 201 c 4,104,105
 1190.5 226 1190.5 226 1210 244 c 132,-1,106
 1229.5 262 1229.5 262 1254.5 262 c 4,95,96
1254.5 10 m 4,107,108
 1281.5 10 1281.5 10 1299.5 -7.5 c 132,-1,109
 1317.5 -25 1317.5 -25 1317.5 -53 c 4,110,111
 1317.5 -78 1317.5 -78 1299 -96.5 c 132,-1,112
 1280.5 -115 1280.5 -115 1254.5 -115 c 4,113,114
 1229.5 -115 1229.5 -115 1210 -96.5 c 132,-1,115
 1190.5 -78 1190.5 -78 1190.5 -53 c 4,116,117
 1190.5 -24 1190.5 -24 1210 -7 c 132,-1,118
 1229.5 10 1229.5 10 1254.5 10 c 4,107,108
EndSplineSet
Ligature2: "Lato-Regular-'liga' Standard Ligatures in Latin lookup 1 subtable" S n o w y
LCarets2: 4 0 0 0 0 
EndChar

StartChar: uniE008
Encoding: 89 57352 6
Width: 2007
Flags: W
LayerCount: 2
Fore
SplineSet
1632.5 10 m 2,0,-1
 376.5 10 l 2,1,2
 349.5 10 349.5 10 331.5 28.5 c 128,-1,3
 313.5 47 313.5 47 313.5 74 c 256,4,5
 313.5 101 313.5 101 332 118 c 128,-1,6
 350.5 135 350.5 135 376.5 135 c 2,7,-1
 1632.5 135 l 2,8,9
 1659.5 135 1659.5 135 1676.5 117.5 c 128,-1,10
 1693.5 100 1693.5 100 1693.5 74 c 256,11,12
 1693.5 47 1693.5 47 1676.5 28.5 c 128,-1,13
 1659.5 10 1659.5 10 1632.5 10 c 2,0,-1
1632.5 260 m 2,14,-1
 376.5 260 l 2,15,16
 349.5 260 349.5 260 331.5 279.5 c 128,-1,17
 313.5 299 313.5 299 313.5 324 c 0,18,19
 313.5 351 313.5 351 332 369 c 128,-1,20
 350.5 387 350.5 387 376.5 387 c 2,21,-1
 1632.5 387 l 2,22,23
 1659.5 387 1659.5 387 1676.5 368.5 c 128,-1,24
 1693.5 350 1693.5 350 1693.5 324 c 0,25,26
 1693.5 299 1693.5 299 1676.5 279.5 c 128,-1,27
 1659.5 260 1659.5 260 1632.5 260 c 2,14,-1
1318.5 639 m 0,28,29
 1277.5 639 1277.5 639 1244 627.5 c 128,-1,30
 1210.5 616 1210.5 616 1181.5 598 c 1,31,32
 1167.5 659 1167.5 659 1133.5 712.5 c 128,-1,33
 1099.5 766 1099.5 766 1050.5 805 c 128,-1,34
 1001.5 844 1001.5 844 942 866.5 c 128,-1,35
 882.5 889 882.5 889 815.5 889 c 0,36,37
 737.5 889 737.5 889 668.5 859 c 128,-1,38
 599.5 829 599.5 829 548.5 779 c 128,-1,39
 497.5 729 497.5 729 468 660.5 c 128,-1,40
 438.5 592 438.5 592 438.5 514 c 1,41,-1
 313.5 514 l 1,42,43
 313.5 616 313.5 616 353.5 707.5 c 128,-1,44
 393.5 799 393.5 799 461 866.5 c 128,-1,45
 528.5 934 528.5 934 619.5 974 c 128,-1,46
 710.5 1014 710.5 1014 815.5 1014 c 0,47,48
 956.5 1014 956.5 1014 1072 943 c 128,-1,49
 1187.5 872 1187.5 872 1253.5 756 c 1,50,51
 1269.5 760 1269.5 760 1286 762 c 128,-1,52
 1302.5 764 1302.5 764 1318.5 764 c 0,53,54
 1441.5 764 1441.5 764 1537 694.5 c 128,-1,55
 1632.5 625 1632.5 625 1671.5 514 c 1,56,-1
 1533.5 514 l 1,57,58
 1500.5 569 1500.5 569 1444.5 604 c 128,-1,59
 1388.5 639 1388.5 639 1318.5 639 c 0,28,29
376.5 -115 m 2,60,-1
 1632.5 -115 l 2,61,62
 1659.5 -115 1659.5 -115 1676.5 -133.5 c 128,-1,63
 1693.5 -152 1693.5 -152 1693.5 -178 c 256,64,65
 1693.5 -205 1693.5 -205 1676 -222.5 c 128,-1,66
 1658.5 -240 1658.5 -240 1632.5 -240 c 2,67,-1
 376.5 -240 l 2,68,69
 349.5 -240 349.5 -240 331.5 -222.5 c 128,-1,70
 313.5 -205 313.5 -205 313.5 -178 c 256,71,72
 313.5 -151 313.5 -151 331.5 -133 c 128,-1,73
 349.5 -115 349.5 -115 376.5 -115 c 2,60,-1
EndSplineSet
LCarets2: 4 0 0 0 0 
Ligature2: "Lato-Regular-'liga' Standard Ligatures in Latin lookup 1 subtable" F o g g y
EndChar

StartChar: uniE006
Encoding: 87 57350 7
Width: 2007
Flags: W
LayerCount: 2
Fore
SplineSet
1843.5 -113 m 5,0,-1
 1818.5 -113 l 5,1,-1
 1724.5 -113 l 6,2,3
 1695.5 -113 1695.5 -113 1679 -95.5 c 132,-1,4
 1662.5 -78 1662.5 -78 1662.5 -51 c 260,5,6
 1662.5 -24 1662.5 -24 1679 -6 c 132,-1,7
 1695.5 12 1695.5 12 1724.5 12 c 6,8,-1
 1818.5 12 l 6,9,10
 1845.5 12 1845.5 12 1864 29.5 c 132,-1,11
 1882.5 47 1882.5 47 1882.5 76 c 4,12,13
 1882.5 103 1882.5 103 1864 120 c 132,-1,14
 1845.5 137 1845.5 137 1818.5 137 c 260,15,16
 1791.5 137 1791.5 137 1774.5 155.5 c 132,-1,17
 1757.5 174 1757.5 174 1757.5 201 c 260,18,19
 1757.5 228 1757.5 228 1774.5 245 c 132,-1,20
 1791.5 262 1791.5 262 1818.5 262 c 4,21,22
 1826.5 262 1826.5 262 1830.5 260 c 4,23,24
 1904.5 256 1904.5 256 1956 204 c 132,-1,25
 2007.5 152 2007.5 152 2007.5 76 c 4,26,27
 2007.5 2 2007.5 2 1961.5 -50.5 c 132,-1,28
 1915.5 -103 1915.5 -103 1843.5 -113 c 5,0,-1
1505.5 262 m 260,29,30
 1478.5 262 1478.5 262 1460 281.5 c 132,-1,31
 1441.5 301 1441.5 301 1441.5 326 c 4,32,33
 1441.5 353 1441.5 353 1460 371 c 132,-1,34
 1478.5 389 1478.5 389 1505.5 389 c 4,35,36
 1513.5 389 1513.5 389 1517.5 385 c 5,37,38
 1591.5 381 1591.5 381 1642.5 328.5 c 132,-1,39
 1693.5 276 1693.5 276 1693.5 201 c 4,40,41
 1693.5 127 1693.5 127 1647.5 75 c 132,-1,42
 1601.5 23 1601.5 23 1529.5 12 c 5,43,-1
 1505.5 12 l 5,44,-1
 1255.5 12 l 5,45,-1
 813.5 12 l 6,46,47
 786.5 12 786.5 12 770 -6.5 c 132,-1,48
 753.5 -25 753.5 -25 753.5 -51 c 260,49,50
 753.5 -78 753.5 -78 770 -95.5 c 132,-1,51
 786.5 -113 786.5 -113 813.5 -113 c 6,52,-1
 1505.5 -113 l 5,53,-1
 1529.5 -113 l 5,54,-1
 1529.5 -115 l 5,55,56
 1601.5 -123 1601.5 -123 1647.5 -177 c 132,-1,57
 1693.5 -231 1693.5 -231 1693.5 -303 c 4,58,59
 1693.5 -340 1693.5 -340 1680.5 -373 c 132,-1,60
 1667.5 -406 1667.5 -406 1642.5 -431.5 c 132,-1,61
 1617.5 -457 1617.5 -457 1586 -472 c 132,-1,62
 1554.5 -487 1554.5 -487 1517.5 -489 c 5,63,-1
 1505.5 -489 l 6,64,65
 1478.5 -489 1478.5 -489 1460 -472 c 132,-1,66
 1441.5 -455 1441.5 -455 1441.5 -426 c 4,67,68
 1441.5 -401 1441.5 -401 1460 -383 c 132,-1,69
 1478.5 -365 1478.5 -365 1505.5 -365 c 260,70,71
 1532.5 -365 1532.5 -365 1550.5 -346.5 c 132,-1,72
 1568.5 -328 1568.5 -328 1568.5 -303 c 4,73,74
 1568.5 -276 1568.5 -276 1550 -258 c 132,-1,75
 1531.5 -240 1531.5 -240 1505.5 -240 c 6,76,-1
 813.5 -240 l 5,77,-1
 790.5 -240 l 5,78,-1
 790.5 -236 l 5,79,80
 722.5 -228 722.5 -228 674.5 -175.5 c 132,-1,81
 626.5 -123 626.5 -123 626.5 -51 c 4,82,83
 626.5 -2 626.5 -2 649.5 39 c 5,84,85
 575.5 66 575.5 66 513 112 c 132,-1,86
 450.5 158 450.5 158 406.5 219.5 c 132,-1,87
 362.5 281 362.5 281 337 355.5 c 132,-1,88
 311.5 430 311.5 430 311.5 514 c 4,89,90
 311.5 618 311.5 618 351.5 709.5 c 132,-1,91
 391.5 801 391.5 801 459 869.5 c 132,-1,92
 526.5 938 526.5 938 617.5 977 c 132,-1,93
 708.5 1016 708.5 1016 813.5 1016 c 4,94,95
 956.5 1016 956.5 1016 1072 944 c 132,-1,96
 1187.5 872 1187.5 872 1251.5 760 c 5,97,98
 1267.5 762 1267.5 762 1284 763 c 132,-1,99
 1300.5 764 1300.5 764 1316.5 764 c 4,100,101
 1386.5 764 1386.5 764 1449 740.5 c 132,-1,102
 1511.5 717 1511.5 717 1560.5 676 c 132,-1,103
 1609.5 635 1609.5 635 1642.5 578.5 c 132,-1,104
 1675.5 522 1675.5 522 1687.5 457 c 5,105,106
 1615.5 502 1615.5 502 1535.5 514 c 5,107,108
 1502.5 571 1502.5 571 1444.5 606 c 132,-1,109
 1386.5 641 1386.5 641 1316.5 641 c 4,110,111
 1279.5 641 1279.5 641 1245 629.5 c 132,-1,112
 1210.5 618 1210.5 618 1181.5 600 c 5,113,114
 1165.5 661 1165.5 661 1131.5 714.5 c 132,-1,115
 1097.5 768 1097.5 768 1048.5 807 c 132,-1,116
 999.5 846 999.5 846 940 868.5 c 132,-1,117
 880.5 891 880.5 891 813.5 891 c 4,118,119
 735.5 891 735.5 891 668 861 c 132,-1,120
 600.5 831 600.5 831 549 780 c 132,-1,121
 497.5 729 497.5 729 468 660.5 c 132,-1,122
 438.5 592 438.5 592 438.5 514 c 260,123,124
 438.5 436 438.5 436 468 367.5 c 132,-1,125
 497.5 299 497.5 299 549 248 c 132,-1,126
 600.5 197 600.5 197 668 167 c 132,-1,127
 735.5 137 735.5 137 813.5 137 c 6,128,-1
 1196.5 137 l 5,129,-1
 1505.5 137 l 6,130,131
 1532.5 137 1532.5 137 1550.5 155.5 c 132,-1,132
 1568.5 174 1568.5 174 1568.5 201 c 260,133,134
 1568.5 228 1568.5 228 1550.5 245 c 132,-1,135
 1532.5 262 1532.5 262 1505.5 262 c 260,29,30
EndSplineSet
LCarets2: 4 0 0 0 0 
Ligature2: "Lato-Regular-'liga' Standard Ligatures in Latin lookup 1 subtable" W i n d y
EndChar

StartChar: uniE00B
Encoding: 91 57355 8
Width: 2007
Flags: W
LayerCount: 2
Fore
SplineSet
1316.5 12 m 2,0,-1
 1284.5 12 l 1,1,-1
 1396.5 152 l 1,2,3
 1470.5 177 1470.5 177 1518.5 241 c 128,-1,4
 1566.5 305 1566.5 305 1566.5 389 c 0,5,6
 1566.5 440 1566.5 440 1547 486 c 128,-1,7
 1527.5 532 1527.5 532 1494 566 c 128,-1,8
 1460.5 600 1460.5 600 1414 619.5 c 128,-1,9
 1367.5 639 1367.5 639 1316.5 639 c 0,10,11
 1242.5 639 1242.5 639 1181.5 600 c 1,12,13
 1167.5 661 1167.5 661 1133.5 714.5 c 128,-1,14
 1099.5 768 1099.5 768 1050.5 807 c 128,-1,15
 1001.5 846 1001.5 846 942 868.5 c 128,-1,16
 882.5 891 882.5 891 815.5 891 c 0,17,18
 737.5 891 737.5 891 668.5 861 c 128,-1,19
 599.5 831 599.5 831 548.5 780 c 128,-1,20
 497.5 729 497.5 729 468 660.5 c 128,-1,21
 438.5 592 438.5 592 438.5 514 c 0,22,23
 438.5 451 438.5 451 459 392.5 c 128,-1,24
 479.5 334 479.5 334 515 287 c 128,-1,25
 550.5 240 550.5 240 600 205 c 128,-1,26
 649.5 170 649.5 170 708.5 154 c 1,27,-1
 665.5 35 l 1,28,29
 589.5 60 589.5 60 525 106 c 128,-1,30
 460.5 152 460.5 152 413.5 214 c 128,-1,31
 366.5 276 366.5 276 340 353 c 128,-1,32
 313.5 430 313.5 430 313.5 514 c 0,33,34
 313.5 618 313.5 618 352.5 709.5 c 128,-1,35
 391.5 801 391.5 801 460 869.5 c 128,-1,36
 528.5 938 528.5 938 619.5 977 c 128,-1,37
 710.5 1016 710.5 1016 815.5 1016 c 0,38,39
 956.5 1016 956.5 1016 1072 945 c 128,-1,40
 1187.5 874 1187.5 874 1253.5 760 c 1,41,42
 1269.5 762 1269.5 762 1285 764 c 128,-1,43
 1300.5 766 1300.5 766 1316.5 766 c 0,44,45
 1394.5 766 1394.5 766 1463 736.5 c 128,-1,46
 1531.5 707 1531.5 707 1583 655.5 c 128,-1,47
 1634.5 604 1634.5 604 1664 535.5 c 128,-1,48
 1693.5 467 1693.5 467 1693.5 389 c 256,49,50
 1693.5 311 1693.5 311 1664 242.5 c 128,-1,51
 1634.5 174 1634.5 174 1583 123 c 128,-1,52
 1531.5 72 1531.5 72 1463 42 c 128,-1,53
 1394.5 12 1394.5 12 1316.5 12 c 2,0,-1
939.5 451 m 1,54,-1
 1255.5 451 l 1,55,-1
 1066.5 139 l 1,56,-1
 1284.5 139 l 1,57,-1
 878.5 -365 l 1,58,-1
 991.5 12 l 1,59,-1
 784.5 12 l 1,60,-1
 939.5 451 l 1,54,-1
EndSplineSet
Ligature2: "Lato-Regular-'liga' Standard Ligatures in Latin lookup 1 subtable" T h u n d e r y
EndChar

StartChar: uniE00A
Encoding: 90 57354 9
Width: 1812
Flags: W
LayerCount: 2
Fore
SplineSet
1591.5 455 m 2,0,-1
 1466.5 455 l 2,1,2
 1439.5 455 1439.5 455 1423.5 473.5 c 128,-1,3
 1407.5 492 1407.5 492 1407.5 518 c 256,4,5
 1407.5 545 1407.5 545 1424 562.5 c 128,-1,6
 1440.5 580 1440.5 580 1466.5 580 c 2,7,-1
 1591.5 580 l 2,8,9
 1618.5 580 1618.5 580 1637 562.5 c 128,-1,10
 1655.5 545 1655.5 545 1655.5 518 c 256,11,12
 1655.5 491 1655.5 491 1637 473 c 128,-1,13
 1618.5 455 1618.5 455 1591.5 455 c 2,0,-1
1346.5 872 m 2,14,15
 1328.5 854 1328.5 854 1302.5 854 c 128,-1,16
 1276.5 854 1276.5 854 1260.5 872 c 1,17,18
 1242.5 888 1242.5 888 1242 914 c 128,-1,19
 1241.5 940 1241.5 940 1260.5 958 c 2,20,-1
 1346.5 1049 l 2,21,22
 1364.5 1067 1364.5 1067 1392 1067 c 128,-1,23
 1419.5 1067 1419.5 1067 1436.5 1049 c 0,24,25
 1452.5 1033 1452.5 1033 1452.5 1005 c 128,-1,26
 1452.5 977 1452.5 977 1436.5 958 c 2,27,-1
 1346.5 872 l 2,14,15
905.5 143 m 256,28,29
 827.5 143 827.5 143 759 172 c 128,-1,30
 690.5 201 690.5 201 639.5 252 c 128,-1,31
 588.5 303 588.5 303 560 371.5 c 128,-1,32
 531.5 440 531.5 440 531.5 518 c 256,33,34
 531.5 596 531.5 596 560 664.5 c 128,-1,35
 588.5 733 588.5 733 639.5 783.5 c 128,-1,36
 690.5 834 690.5 834 759.5 863.5 c 128,-1,37
 828.5 893 828.5 893 905.5 893 c 256,38,39
 983.5 893 983.5 893 1052 863.5 c 128,-1,40
 1120.5 834 1120.5 834 1171 783.5 c 128,-1,41
 1221.5 733 1221.5 733 1251 664.5 c 128,-1,42
 1280.5 596 1280.5 596 1280.5 518 c 256,43,44
 1280.5 440 1280.5 440 1251 371.5 c 128,-1,45
 1221.5 303 1221.5 303 1171 252 c 128,-1,46
 1120.5 201 1120.5 201 1052 172 c 128,-1,47
 983.5 143 983.5 143 905.5 143 c 256,28,29
905.5 766 m 0,48,49
 852.5 766 852.5 766 807.5 746.5 c 128,-1,50
 762.5 727 762.5 727 728.5 693 c 128,-1,51
 694.5 659 694.5 659 675 614 c 128,-1,52
 655.5 569 655.5 569 655.5 518 c 0,53,54
 655.5 465 655.5 465 675 420 c 128,-1,55
 694.5 375 694.5 375 728.5 341 c 128,-1,56
 762.5 307 762.5 307 807.5 287.5 c 128,-1,57
 852.5 268 852.5 268 905.5 268 c 0,58,59
 956.5 268 956.5 268 1002 287.5 c 128,-1,60
 1047.5 307 1047.5 307 1081 341 c 128,-1,61
 1114.5 375 1114.5 375 1134 420 c 128,-1,62
 1153.5 465 1153.5 465 1153.5 518 c 0,63,64
 1153.5 569 1153.5 569 1134 614 c 128,-1,65
 1114.5 659 1114.5 659 1081 693 c 128,-1,66
 1047.5 727 1047.5 727 1002 746.5 c 128,-1,67
 956.5 766 956.5 766 905.5 766 c 0,48,49
905.5 1020 m 256,68,69
 878.5 1020 878.5 1020 860.5 1036.5 c 128,-1,70
 842.5 1053 842.5 1053 842.5 1079 c 2,71,-1
 842.5 1206 l 2,72,73
 842.5 1231 842.5 1231 861 1249.5 c 128,-1,74
 879.5 1268 879.5 1268 905.5 1268 c 256,75,76
 932.5 1268 932.5 1268 950 1249.5 c 128,-1,77
 967.5 1231 967.5 1231 967.5 1206 c 2,78,-1
 967.5 1079 l 2,79,80
 967.5 1052 967.5 1052 950 1036 c 128,-1,81
 932.5 1020 932.5 1020 905.5 1020 c 256,68,69
463.5 872 m 2,82,-1
 375.5 958 l 2,83,84
 357.5 976 357.5 976 357 1004 c 128,-1,85
 356.5 1032 356.5 1032 375.5 1049 c 1,86,87
 391.5 1067 391.5 1067 418.5 1067 c 128,-1,88
 445.5 1067 445.5 1067 463.5 1049 c 2,89,-1
 551.5 958 l 2,90,91
 569.5 940 569.5 940 569.5 914.5 c 128,-1,92
 569.5 889 569.5 889 551.5 872 c 1,93,94
 535.5 854 535.5 854 508.5 854 c 128,-1,95
 481.5 854 481.5 854 463.5 872 c 2,82,-1
404.5 518 m 256,96,97
 404.5 491 404.5 491 387 473 c 128,-1,98
 369.5 455 369.5 455 342.5 455 c 2,99,-1
 217.5 455 l 2,100,101
 190.5 455 190.5 455 173.5 473.5 c 128,-1,102
 156.5 492 156.5 492 156.5 518 c 256,103,104
 156.5 545 156.5 545 174 562.5 c 128,-1,105
 191.5 580 191.5 580 217.5 580 c 2,106,-1
 342.5 580 l 2,107,108
 369.5 580 369.5 580 387 562.5 c 128,-1,109
 404.5 545 404.5 545 404.5 518 c 256,96,97
463.5 164 m 2,110,111
 481.5 182 481.5 182 508.5 182 c 128,-1,112
 535.5 182 535.5 182 551.5 164 c 1,113,114
 569.5 148 569.5 148 569.5 121 c 128,-1,115
 569.5 94 569.5 94 551.5 76 c 2,116,-1
 463.5 -12 l 2,117,118
 445.5 -30 445.5 -30 418.5 -30.5 c 128,-1,119
 391.5 -31 391.5 -31 375.5 -12 c 1,120,121
 357.5 4 357.5 4 357 30.5 c 128,-1,122
 356.5 57 356.5 57 375.5 76 c 2,123,-1
 463.5 164 l 2,110,111
905.5 16 m 256,124,125
 932.5 16 932.5 16 950 -1 c 128,-1,126
 967.5 -18 967.5 -18 967.5 -45 c 2,127,-1
 967.5 -170 l 2,128,129
 967.5 -197 967.5 -197 950 -214 c 128,-1,130
 932.5 -231 932.5 -231 905.5 -231 c 256,131,132
 878.5 -231 878.5 -231 860.5 -214 c 128,-1,133
 842.5 -197 842.5 -197 842.5 -170 c 2,134,-1
 842.5 -45 l 2,135,136
 842.5 -18 842.5 -18 860.5 -1 c 128,-1,137
 878.5 16 878.5 16 905.5 16 c 256,124,125
1346.5 164 m 2,138,-1
 1436.5 76 l 2,139,140
 1452.5 58 1452.5 58 1452.5 31 c 128,-1,141
 1452.5 4 1452.5 4 1436.5 -12 c 0,142,143
 1420.5 -30 1420.5 -30 1392.5 -30.5 c 128,-1,144
 1364.5 -31 1364.5 -31 1346.5 -12 c 2,145,-1
 1260.5 76 l 2,146,147
 1242.5 94 1242.5 94 1242 120.5 c 128,-1,148
 1241.5 147 1241.5 147 1260.5 164 c 1,149,150
 1276.5 182 1276.5 182 1302.5 182 c 128,-1,151
 1328.5 182 1328.5 182 1346.5 164 c 2,138,-1
EndSplineSet
Ligature2: "Lato-Regular-'liga' Standard Ligatures in Latin lookup 1 subtable" S u n n y
EndChar

StartChar: uniE000
Encoding: 81 57344 10
Width: 1669
Flags: W
LayerCount: 2
Fore
SplineSet
1296 510 m 2,0,-1
 96 510 l 2,1,2
 69 510 69 510 51 528.5 c 128,-1,3
 33 547 33 547 33 573 c 256,4,5
 33 600 33 600 51.5 618.5 c 128,-1,6
 70 637 70 637 96 637 c 2,7,-1
 1296 637 l 2,8,9
 1321 637 1321 637 1338.5 618.5 c 128,-1,10
 1356 600 1356 600 1356 573 c 256,11,12
 1356 546 1356 546 1338.5 528 c 128,-1,13
 1321 510 1321 510 1296 510 c 2,0,-1
160 387 m 2,14,-1
 1104 387 l 2,15,16
 1131 387 1131 387 1149 368.5 c 128,-1,17
 1167 350 1167 350 1167 322 c 0,18,19
 1167 295 1167 295 1148.5 277.5 c 128,-1,20
 1130 260 1130 260 1104 260 c 2,21,-1
 160 260 l 2,22,23
 133 260 133 260 114.5 277.5 c 128,-1,24
 96 295 96 295 96 322 c 0,25,26
 96 351 96 351 114.5 369 c 128,-1,27
 133 387 133 387 160 387 c 2,14,-1
537 133 m 2,28,-1
 1233 133 l 2,29,30
 1260 133 1260 133 1278 115.5 c 128,-1,31
 1296 98 1296 98 1296 70 c 0,32,33
 1296 43 1296 43 1278 24.5 c 128,-1,34
 1260 6 1260 6 1233 6 c 2,35,-1
 537 6 l 2,36,37
 510 6 510 6 491.5 24.5 c 128,-1,38
 473 43 473 43 473 70 c 0,39,40
 473 99 473 99 491.5 116 c 128,-1,41
 510 133 510 133 537 133 c 2,28,-1
600 -371 m 2,42,-1
 791 -371 l 2,43,44
 818 -371 818 -371 835 -389.5 c 128,-1,45
 852 -408 852 -408 852 -434 c 256,46,47
 852 -461 852 -461 834.5 -479.5 c 128,-1,48
 817 -498 817 -498 791 -498 c 2,49,-1
 600 -498 l 2,50,51
 573 -498 573 -498 555 -479.5 c 128,-1,52
 537 -461 537 -461 537 -434 c 256,53,54
 537 -407 537 -407 555 -389 c 128,-1,55
 573 -371 573 -371 600 -371 c 2,42,-1
633 -180 m 256,56,57
 633 -153 633 -153 650.5 -135 c 128,-1,58
 668 -117 668 -117 696 -117 c 2,59,-1
 1137 -117 l 2,60,61
 1164 -117 1164 -117 1182 -135.5 c 128,-1,62
 1200 -154 1200 -154 1200 -180 c 256,63,64
 1200 -207 1200 -207 1181.5 -225.5 c 128,-1,65
 1163 -244 1163 -244 1137 -244 c 2,66,-1
 696 -244 l 2,67,68
 667 -244 667 -244 650 -225.5 c 128,-1,69
 633 -207 633 -207 633 -180 c 256,56,57
EndSplineSet
Ligature2: "Lato-Regular-'liga' Standard Ligatures in Latin lookup 1 subtable" H u r r i c a n e s
EndChar

StartChar: exclam
Encoding: 1 33 12
Width: 686
VWidth: 2000
Flags: W
LayerCount: 2
Fore
SplineSet
430 1433 m 1,0,-1
 430 861 l 2,1,2
 430 816 430 816 428.5 773 c 128,-1,3
 427 730 427 730 424 686.5 c 128,-1,4
 421 643 421 643 416.5 597.5 c 128,-1,5
 412 552 412 552 406 500 c 1,6,-1
 285 500 l 1,7,8
 279 552 279 552 274.5 597.5 c 128,-1,9
 270 643 270 643 267 686.5 c 128,-1,10
 264 730 264 730 262.5 773 c 128,-1,11
 261 816 261 816 261 861 c 2,12,-1
 261 1433 l 1,13,-1
 430 1433 l 1,0,-1
218 110 m 0,14,15
 218 136 218 136 227.5 159 c 128,-1,16
 237 182 237 182 253.5 199 c 128,-1,17
 270 216 270 216 293 226 c 128,-1,18
 316 236 316 236 342 236 c 256,19,20
 368 236 368 236 391 226 c 128,-1,21
 414 216 414 216 431 199 c 128,-1,22
 448 182 448 182 457.5 159 c 128,-1,23
 467 136 467 136 467 110 c 0,24,25
 467 83 467 83 457.5 60.5 c 128,-1,26
 448 38 448 38 431 21 c 128,-1,27
 414 4 414 4 391 -5.5 c 128,-1,28
 368 -15 368 -15 342 -15 c 256,29,30
 316 -15 316 -15 293 -5.5 c 128,-1,31
 270 4 270 4 253.5 21 c 128,-1,32
 237 38 237 38 227.5 60.5 c 128,-1,33
 218 83 218 83 218 110 c 0,14,15
EndSplineSet
EndChar

StartChar: quotedbl
Encoding: 2 34 13
Width: 794
VWidth: 2000
Flags: W
LayerCount: 2
Fore
SplineSet
307 1433 m 1,0,-1
 307 1143 l 1,1,-1
 291 988 l 2,2,3
 288 956 288 956 274 938.5 c 128,-1,4
 260 921 260 921 229 921 c 0,5,6
 203 921 203 921 188.5 938.5 c 128,-1,7
 174 956 174 956 168 988 c 1,8,-1
 152 1143 l 1,9,-1
 152 1433 l 1,10,-1
 307 1433 l 1,0,-1
640 1433 m 1,11,-1
 640 1143 l 1,12,-1
 624 988 l 2,13,14
 621 956 621 956 607 938.5 c 128,-1,15
 593 921 593 921 562 921 c 0,16,17
 536 921 536 921 521.5 938.5 c 128,-1,18
 507 956 507 956 501 988 c 1,19,-1
 485 1143 l 1,20,-1
 485 1433 l 1,21,-1
 640 1433 l 1,11,-1
EndSplineSet
EndChar

StartChar: percent
Encoding: 3 37 14
Width: 1572
VWidth: 2000
Flags: W
LayerCount: 2
Fore
SplineSet
707 1087 m 0,0,1
 707 1003 707 1003 681 936.5 c 128,-1,2
 655 870 655 870 611.5 824.5 c 128,-1,3
 568 779 568 779 510 755 c 128,-1,4
 452 731 452 731 389 731 c 0,5,6
 321 731 321 731 263.5 755 c 128,-1,7
 206 779 206 779 163 824.5 c 128,-1,8
 120 870 120 870 96 936.5 c 128,-1,9
 72 1003 72 1003 72 1087 c 0,10,11
 72 1173 72 1173 96 1240 c 128,-1,12
 120 1307 120 1307 163 1353 c 128,-1,13
 206 1399 206 1399 263.5 1423 c 128,-1,14
 321 1447 321 1447 389 1447 c 0,15,16
 456 1447 456 1447 514.5 1423 c 128,-1,17
 573 1399 573 1399 615.5 1353 c 128,-1,18
 658 1307 658 1307 682.5 1240 c 128,-1,19
 707 1173 707 1173 707 1087 c 0,0,1
568 1087 m 0,20,21
 568 1153 568 1153 554 1199 c 128,-1,22
 540 1245 540 1245 515.5 1274.5 c 128,-1,23
 491 1304 491 1304 458.5 1317 c 128,-1,24
 426 1330 426 1330 389 1330 c 256,25,26
 352 1330 352 1330 319.5 1317 c 128,-1,27
 287 1304 287 1304 263 1274.5 c 128,-1,28
 239 1245 239 1245 225.5 1199 c 128,-1,29
 212 1153 212 1153 212 1087 c 0,30,31
 212 1022 212 1022 225.5 976.5 c 128,-1,32
 239 931 239 931 263 902.5 c 128,-1,33
 287 874 287 874 319.5 861.5 c 128,-1,34
 352 849 352 849 389 849 c 256,35,36
 426 849 426 849 458.5 861.5 c 128,-1,37
 491 874 491 874 515.5 902.5 c 128,-1,38
 540 931 540 931 554 976.5 c 128,-1,39
 568 1022 568 1022 568 1087 c 0,20,21
1208 1397 m 2,40,41
 1221 1414 1221 1414 1235.5 1423.5 c 128,-1,42
 1250 1433 1250 1433 1274 1433 c 2,43,-1
 1402 1433 l 1,44,-1
 355 29 l 2,45,46
 345 16 345 16 331 8 c 128,-1,47
 317 0 317 0 298 0 c 2,48,-1
 166 0 l 1,49,-1
 1208 1397 l 2,40,41
1499 338 m 0,50,51
 1499 254 1499 254 1473 188 c 128,-1,52
 1447 122 1447 122 1403.5 76.5 c 128,-1,53
 1360 31 1360 31 1302.5 7 c 128,-1,54
 1245 -17 1245 -17 1182 -17 c 0,55,56
 1114 -17 1114 -17 1056.5 7 c 128,-1,57
 999 31 999 31 956 76.5 c 128,-1,58
 913 122 913 122 889 188 c 128,-1,59
 865 254 865 254 865 338 c 0,60,61
 865 424 865 424 889 491.5 c 128,-1,62
 913 559 913 559 956 605 c 128,-1,63
 999 651 999 651 1056.5 675 c 128,-1,64
 1114 699 1114 699 1182 699 c 0,65,66
 1249 699 1249 699 1307 675 c 128,-1,67
 1365 651 1365 651 1408 605 c 128,-1,68
 1451 559 1451 559 1475 491.5 c 128,-1,69
 1499 424 1499 424 1499 338 c 0,50,51
1361 338 m 0,70,71
 1361 404 1361 404 1347 450.5 c 128,-1,72
 1333 497 1333 497 1308.5 526 c 128,-1,73
 1284 555 1284 555 1251.5 568 c 128,-1,74
 1219 581 1219 581 1182 581 c 256,75,76
 1145 581 1145 581 1112.5 568 c 128,-1,77
 1080 555 1080 555 1056 526 c 128,-1,78
 1032 497 1032 497 1018.5 450.5 c 128,-1,79
 1005 404 1005 404 1005 338 c 0,80,81
 1005 273 1005 273 1018.5 228 c 128,-1,82
 1032 183 1032 183 1056 154.5 c 128,-1,83
 1080 126 1080 126 1112.5 113.5 c 128,-1,84
 1145 101 1145 101 1182 101 c 256,85,86
 1219 101 1219 101 1251.5 113.5 c 128,-1,87
 1284 126 1284 126 1308.5 154.5 c 128,-1,88
 1333 183 1333 183 1347 228 c 128,-1,89
 1361 273 1361 273 1361 338 c 0,70,71
EndSplineSet
EndChar

StartChar: ampersand
Encoding: 4 38 15
Width: 1406
VWidth: 2000
Flags: W
LayerCount: 2
Fore
SplineSet
660 1449 m 0,0,1
 739 1449 739 1449 804 1423.5 c 128,-1,2
 869 1398 869 1398 916.5 1356 c 128,-1,3
 964 1314 964 1314 991.5 1258.5 c 128,-1,4
 1019 1203 1019 1203 1023 1143 c 1,5,-1
 912 1121 l 2,6,7
 907 1120 907 1120 903 1120 c 0,8,9
 890 1120 890 1120 878.5 1127 c 128,-1,10
 867 1134 867 1134 862 1152 c 0,11,12
 855 1178 855 1178 839.5 1206 c 128,-1,13
 824 1234 824 1234 799.5 1257 c 128,-1,14
 775 1280 775 1280 740.5 1295 c 128,-1,15
 706 1310 706 1310 660 1310 c 0,16,17
 610 1310 610 1310 570 1294 c 128,-1,18
 530 1278 530 1278 501.5 1249.5 c 128,-1,19
 473 1221 473 1221 457.5 1182.5 c 128,-1,20
 442 1144 442 1144 442 1099 c 0,21,22
 442 1064 442 1064 450.5 1032 c 128,-1,23
 459 1000 459 1000 476 967.5 c 128,-1,24
 493 935 493 935 520 900.5 c 128,-1,25
 547 866 547 866 585 828 c 2,26,-1
 997 409 l 1,27,28
 1035 476 1035 476 1057.5 549.5 c 128,-1,29
 1080 623 1080 623 1088 697 c 0,30,31
 1090 716 1090 716 1100 727 c 128,-1,32
 1110 738 1110 738 1128 738 c 2,33,-1
 1238 738 l 1,34,35
 1236 623 1236 623 1201 512 c 128,-1,36
 1166 401 1166 401 1100 304 c 1,37,-1
 1400 0 l 1,38,-1
 1228 0 l 2,39,40
 1199 0 1199 0 1181 7 c 128,-1,41
 1163 14 1163 14 1141 36 c 2,42,-1
 997 181 l 1,43,44
 903 90 903 90 780.5 37 c 128,-1,45
 658 -16 658 -16 511 -16 c 0,46,47
 431 -16 431 -16 354 11 c 128,-1,48
 277 38 277 38 216.5 89.5 c 128,-1,49
 156 141 156 141 119 215 c 128,-1,50
 82 289 82 289 82 382 c 0,51,52
 82 452 82 452 105.5 514.5 c 128,-1,53
 129 577 129 577 170.5 630 c 128,-1,54
 212 683 212 683 269 725 c 128,-1,55
 326 767 326 767 394 797 c 1,56,57
 333 874 333 874 304 947 c 128,-1,58
 275 1020 275 1020 275 1098 c 0,59,60
 275 1171 275 1171 301.5 1235 c 128,-1,61
 328 1299 328 1299 378 1346.5 c 128,-1,62
 428 1394 428 1394 499.5 1421.5 c 128,-1,63
 571 1449 571 1449 660 1449 c 0,0,1
263 396 m 0,64,65
 263 331 263 331 287 281.5 c 128,-1,66
 311 232 311 232 350 198 c 128,-1,67
 389 164 389 164 439 146.5 c 128,-1,68
 489 129 489 129 541 129 c 0,69,70
 653 129 653 129 742 170 c 128,-1,71
 831 211 831 211 899 279 c 1,72,-1
 476 706 l 1,73,74
 370 649 370 649 316.5 569.5 c 128,-1,75
 263 490 263 490 263 396 c 0,64,65
EndSplineSet
EndChar

StartChar: quotesingle
Encoding: 5 39 16
Width: 460
VWidth: 2000
Flags: W
LayerCount: 2
Fore
SplineSet
307 1433 m 1,0,-1
 307 1143 l 1,1,-1
 291 988 l 2,2,3
 288 956 288 956 274 938.5 c 128,-1,4
 260 921 260 921 229 921 c 0,5,6
 203 921 203 921 188.5 938.5 c 128,-1,7
 174 956 174 956 168 988 c 1,8,-1
 152 1143 l 1,9,-1
 152 1433 l 1,10,-1
 307 1433 l 1,0,-1
EndSplineSet
EndChar

StartChar: parenleft
Encoding: 6 40 17
Width: 600
VWidth: 2000
Flags: W
LayerCount: 2
Fore
SplineSet
289 629 m 256,0,1
 289 415 289 415 344 213.5 c 128,-1,2
 399 12 399 12 503 -171 c 0,3,4
 509 -182 509 -182 511 -190 c 128,-1,5
 513 -198 513 -198 513 -206 c 0,6,7
 513 -220 513 -220 506 -229 c 128,-1,8
 499 -238 499 -238 488 -245 c 2,9,-1
 409 -293 l 1,10,11
 334 -178 334 -178 281.5 -65 c 128,-1,12
 229 48 229 48 196.5 162 c 128,-1,13
 164 276 164 276 149 391.5 c 128,-1,14
 134 507 134 507 134 629 c 0,15,16
 134 750 134 750 149 866 c 128,-1,17
 164 982 164 982 196.5 1095.5 c 128,-1,18
 229 1209 229 1209 281.5 1322 c 128,-1,19
 334 1435 334 1435 409 1551 c 1,20,-1
 488 1502 l 2,21,22
 499 1495 499 1495 506 1486 c 128,-1,23
 513 1477 513 1477 513 1463 c 0,24,25
 513 1448 513 1448 503 1429 c 0,26,27
 398 1247 398 1247 343.5 1045 c 128,-1,28
 289 843 289 843 289 629 c 256,0,1
EndSplineSet
EndChar

StartChar: parenright
Encoding: 7 41 18
Width: 600
VWidth: 2000
Flags: W
LayerCount: 2
Fore
SplineSet
298 629 m 256,0,1
 298 843 298 843 243.5 1045 c 128,-1,2
 189 1247 189 1247 84 1429 c 0,3,4
 74 1448 74 1448 74 1463 c 0,5,6
 74 1477 74 1477 81 1486 c 128,-1,7
 88 1495 88 1495 99 1502 c 2,8,-1
 178 1551 l 1,9,10
 253 1435 253 1435 305.5 1322 c 128,-1,11
 358 1209 358 1209 390.5 1095.5 c 128,-1,12
 423 982 423 982 438 866 c 128,-1,13
 453 750 453 750 453 629 c 0,14,15
 453 507 453 507 438 391.5 c 128,-1,16
 423 276 423 276 390.5 162 c 128,-1,17
 358 48 358 48 305.5 -65 c 128,-1,18
 253 -178 253 -178 178 -293 c 1,19,-1
 99 -245 l 2,20,21
 88 -238 88 -238 81 -229 c 128,-1,22
 74 -220 74 -220 74 -206 c 0,23,24
 74 -198 74 -198 76 -190 c 128,-1,25
 78 -182 78 -182 84 -171 c 0,26,27
 188 12 188 12 243 213.5 c 128,-1,28
 298 415 298 415 298 629 c 256,0,1
EndSplineSet
EndChar

StartChar: period
Encoding: 8 46 19
Width: 424
VWidth: 2000
Flags: W
LayerCount: 2
Fore
SplineSet
88 110 m 0,0,1
 88 136 88 136 97.5 159 c 128,-1,2
 107 182 107 182 123.5 199 c 128,-1,3
 140 216 140 216 163 226 c 128,-1,4
 186 236 186 236 212 236 c 256,5,6
 238 236 238 236 261 226 c 128,-1,7
 284 216 284 216 301 199 c 128,-1,8
 318 182 318 182 327.5 159 c 128,-1,9
 337 136 337 136 337 110 c 0,10,11
 337 83 337 83 327.5 60.5 c 128,-1,12
 318 38 318 38 301 21 c 128,-1,13
 284 4 284 4 261 -5.5 c 128,-1,14
 238 -15 238 -15 212 -15 c 256,15,16
 186 -15 186 -15 163 -5.5 c 128,-1,17
 140 4 140 4 123.5 21 c 128,-1,18
 107 38 107 38 97.5 60.5 c 128,-1,19
 88 83 88 83 88 110 c 0,0,1
EndSplineSet
EndChar

StartChar: zero
Encoding: 9 48 20
Width: 1160
VWidth: 2000
Flags: W
LayerCount: 2
Fore
SplineSet
1100 716 m 256,0,1
 1100 528 1100 528 1059.5 390.5 c 128,-1,2
 1019 253 1019 253 949 163 c 128,-1,3
 879 73 879 73 783.5 29 c 128,-1,4
 688 -15 688 -15 579 -15 c 0,5,6
 469 -15 469 -15 374.5 29 c 128,-1,7
 280 73 280 73 210 163 c 128,-1,8
 140 253 140 253 100 390.5 c 128,-1,9
 60 528 60 528 60 716 c 256,10,11
 60 904 60 904 100 1042 c 128,-1,12
 140 1180 140 1180 210 1270.5 c 128,-1,13
 280 1361 280 1361 374.5 1405 c 128,-1,14
 469 1449 469 1449 579 1449 c 0,15,16
 688 1449 688 1449 783.5 1405 c 128,-1,17
 879 1361 879 1361 949 1270.5 c 128,-1,18
 1019 1180 1019 1180 1059.5 1042 c 128,-1,19
 1100 904 1100 904 1100 716 c 256,0,1
915 716 m 256,20,21
 915 880 915 880 887.5 991.5 c 128,-1,22
 860 1103 860 1103 813.5 1171 c 128,-1,23
 767 1239 767 1239 706 1268.5 c 128,-1,24
 645 1298 645 1298 579 1298 c 256,25,26
 513 1298 513 1298 452 1268.5 c 128,-1,27
 391 1239 391 1239 345 1171 c 128,-1,28
 299 1103 299 1103 271.5 991.5 c 128,-1,29
 244 880 244 880 244 716 c 256,30,31
 244 552 244 552 271.5 441 c 128,-1,32
 299 330 299 330 345 262 c 128,-1,33
 391 194 391 194 452 164.5 c 128,-1,34
 513 135 513 135 579 135 c 256,35,36
 645 135 645 135 706 164.5 c 128,-1,37
 767 194 767 194 813.5 262 c 128,-1,38
 860 330 860 330 887.5 441 c 128,-1,39
 915 552 915 552 915 716 c 256,20,21
EndSplineSet
EndChar

StartChar: one
Encoding: 10 49 21
Width: 1160
VWidth: 2000
Flags: W
LayerCount: 2
Fore
SplineSet
287 136 m 1,0,-1
 595 136 l 1,1,-1
 595 1113 l 2,2,3
 595 1157 595 1157 598 1202 c 1,4,-1
 342 983 l 2,5,6
 332 975 332 975 322 971.5 c 128,-1,7
 312 968 312 968 303 968 c 0,8,9
 288 968 288 968 276 974.5 c 128,-1,10
 264 981 264 981 258 990 c 2,11,-1
 202 1067 l 1,12,-1
 628 1436 l 1,13,-1
 773 1436 l 1,14,-1
 773 136 l 1,15,-1
 1055 136 l 1,16,-1
 1055 0 l 1,17,-1
 287 0 l 1,18,-1
 287 136 l 1,0,-1
EndSplineSet
EndChar

StartChar: two
Encoding: 11 50 22
Width: 1160
VWidth: 2000
Flags: W
LayerCount: 2
Fore
SplineSet
601 1449 m 0,0,1
 692 1449 692 1449 771 1422 c 128,-1,2
 850 1395 850 1395 907.5 1343.5 c 128,-1,3
 965 1292 965 1292 998 1218 c 128,-1,4
 1031 1144 1031 1144 1031 1050 c 0,5,6
 1031 970 1031 970 1007 902 c 128,-1,7
 983 834 983 834 942 771.5 c 128,-1,8
 901 709 901 709 847.5 650.5 c 128,-1,9
 794 592 794 592 734 531 c 2,10,-1
 357 145 l 1,11,12
 397 156 397 156 438 162.5 c 128,-1,13
 479 169 479 169 517 169 c 2,14,-1
 997 169 l 2,15,16
 1026 169 1026 169 1043 152 c 128,-1,17
 1060 135 1060 135 1060 108 c 2,18,-1
 1060 0 l 1,19,-1
 104 0 l 1,20,-1
 104 61 l 2,21,22
 104 80 104 80 111.5 100 c 128,-1,23
 119 120 119 120 136 137 c 2,24,-1
 595 598 l 2,25,26
 652 656 652 656 699 709.5 c 128,-1,27
 746 763 746 763 779.5 817 c 128,-1,28
 813 871 813 871 831 926.5 c 128,-1,29
 849 982 849 982 849 1045 c 256,30,31
 849 1108 849 1108 829 1155.5 c 128,-1,32
 809 1203 809 1203 774 1234 c 128,-1,33
 739 1265 739 1265 692 1280.5 c 128,-1,34
 645 1296 645 1296 591 1296 c 256,35,36
 537 1296 537 1296 491 1280 c 128,-1,37
 445 1264 445 1264 409.5 1235.5 c 128,-1,38
 374 1207 374 1207 349.5 1168 c 128,-1,39
 325 1129 325 1129 315 1082 c 1,40,41
 307 1053 307 1053 291 1040 c 128,-1,42
 275 1027 275 1027 249 1027 c 0,43,44
 244 1027 244 1027 238.5 1027.5 c 128,-1,45
 233 1028 233 1028 226 1029 c 2,46,-1
 133 1045 l 1,47,48
 147 1143 147 1143 187 1218.5 c 128,-1,49
 227 1294 227 1294 288.5 1345 c 128,-1,50
 350 1396 350 1396 429.5 1422.5 c 128,-1,51
 509 1449 509 1449 601 1449 c 0,0,1
EndSplineSet
EndChar

StartChar: three
Encoding: 12 51 23
Width: 1160
VWidth: 2000
Flags: W
LayerCount: 2
Fore
SplineSet
620 1449 m 0,0,1
 711 1449 711 1449 788 1423 c 128,-1,2
 865 1397 865 1397 920.5 1349 c 128,-1,3
 976 1301 976 1301 1007 1233 c 128,-1,4
 1038 1165 1038 1165 1038 1082 c 0,5,6
 1038 1014 1038 1014 1020.5 960.5 c 128,-1,7
 1003 907 1003 907 970.5 866.5 c 128,-1,8
 938 826 938 826 892 798 c 128,-1,9
 846 770 846 770 789 753 c 1,10,11
 929 716 929 716 999.5 629 c 128,-1,12
 1070 542 1070 542 1070 411 c 0,13,14
 1070 312 1070 312 1032.5 233 c 128,-1,15
 995 154 995 154 930 98.5 c 128,-1,16
 865 43 865 43 778.5 13.5 c 128,-1,17
 692 -16 692 -16 593 -16 c 0,18,19
 479 -16 479 -16 398 12.5 c 128,-1,20
 317 41 317 41 261 91 c 128,-1,21
 205 141 205 141 169 209.5 c 128,-1,22
 133 278 133 278 108 358 c 1,23,-1
 184 390 l 2,24,25
 205 399 205 399 226 399 c 0,26,27
 246 399 246 399 261.5 390.5 c 128,-1,28
 277 382 277 382 285 364 c 0,29,30
 287 360 287 360 289 355.5 c 128,-1,31
 291 351 291 351 293 346 c 0,32,33
 307 317 307 317 327 280.5 c 128,-1,34
 347 244 347 244 381 212 c 128,-1,35
 415 180 415 180 465.5 158 c 128,-1,36
 516 136 516 136 591 136 c 256,37,38
 666 136 666 136 722.5 160.5 c 128,-1,39
 779 185 779 185 816.5 224 c 128,-1,40
 854 263 854 263 873 311 c 128,-1,41
 892 359 892 359 892 406 c 0,42,43
 892 464 892 464 876.5 512 c 128,-1,44
 861 560 861 560 820.5 595 c 128,-1,45
 780 630 780 630 708.5 650 c 128,-1,46
 637 670 637 670 525 670 c 1,47,-1
 525 799 l 1,48,49
 616 800 616 800 680.5 819 c 128,-1,50
 745 838 745 838 786 871 c 128,-1,51
 827 904 827 904 845.5 950 c 128,-1,52
 864 996 864 996 864 1052 c 0,53,54
 864 1114 864 1114 844.5 1160 c 128,-1,55
 825 1206 825 1206 791 1236 c 128,-1,56
 757 1266 757 1266 710.5 1281 c 128,-1,57
 664 1296 664 1296 610 1296 c 256,58,59
 556 1296 556 1296 510 1280 c 128,-1,60
 464 1264 464 1264 428.5 1235.5 c 128,-1,61
 393 1207 393 1207 369 1167.5 c 128,-1,62
 345 1128 345 1128 333 1082 c 0,63,64
 325 1053 325 1053 309 1040 c 128,-1,65
 293 1027 293 1027 268 1027 c 0,66,67
 263 1027 263 1027 257.5 1027.5 c 128,-1,68
 252 1028 252 1028 245 1029 c 2,69,-1
 152 1045 l 1,70,71
 166 1143 166 1143 206 1218.5 c 128,-1,72
 246 1294 246 1294 307.5 1345 c 128,-1,73
 369 1396 369 1396 448.5 1422.5 c 128,-1,74
 528 1449 528 1449 620 1449 c 0,0,1
EndSplineSet
EndChar

StartChar: four
Encoding: 13 52 24
Width: 1160
VWidth: 2000
Flags: W
LayerCount: 2
Fore
SplineSet
903 517 m 1,0,-1
 1120 517 l 1,1,-1
 1120 415 l 2,2,3
 1120 399 1120 399 1110.5 388 c 128,-1,4
 1101 377 1101 377 1081 377 c 2,5,-1
 903 377 l 1,6,-1
 903 0 l 1,7,-1
 746 0 l 1,8,-1
 746 377 l 1,9,-1
 111 377 l 2,10,11
 91 377 91 377 76.5 388.5 c 128,-1,12
 62 400 62 400 58 417 c 2,13,-1
 40 508 l 1,14,-1
 737 1433 l 1,15,-1
 903 1433 l 1,16,-1
 903 517 l 1,0,-1
746 1108 m 2,17,18
 746 1134 746 1134 747.5 1164 c 128,-1,19
 749 1194 749 1194 754 1226 c 1,20,-1
 233 517 l 1,21,-1
 746 517 l 1,22,-1
 746 1108 l 2,17,18
EndSplineSet
EndChar

StartChar: five
Encoding: 14 53 25
Width: 1160
VWidth: 2000
Flags: W
LayerCount: 2
Fore
SplineSet
978 1355 m 2,0,1
 978 1317 978 1317 954 1292.5 c 128,-1,2
 930 1268 930 1268 873 1268 c 2,3,-1
 423 1268 l 1,4,-1
 357 892 l 1,5,6
 469 916 469 916 564 916 c 0,7,8
 676 916 676 916 761.5 883 c 128,-1,9
 847 850 847 850 905 792 c 128,-1,10
 963 734 963 734 992.5 655 c 128,-1,11
 1022 576 1022 576 1022 483 c 0,12,13
 1022 369 1022 369 982 277 c 128,-1,14
 942 185 942 185 872.5 119.5 c 128,-1,15
 803 54 803 54 709 19 c 128,-1,16
 615 -16 615 -16 506 -16 c 0,17,18
 443 -16 443 -16 385 -3.5 c 128,-1,19
 327 9 327 9 277 30 c 128,-1,20
 227 51 227 51 184 78 c 128,-1,21
 141 105 141 105 108 135 c 1,22,-1
 162 211 l 2,23,24
 180 237 180 237 210 237 c 0,25,26
 229 237 229 237 254.5 221.5 c 128,-1,27
 280 206 280 206 316 187 c 128,-1,28
 352 168 352 168 400.5 152.5 c 128,-1,29
 449 137 449 137 516 137 c 0,30,31
 591 137 591 137 651 161 c 128,-1,32
 711 185 711 185 753.5 229.5 c 128,-1,33
 796 274 796 274 819 336 c 128,-1,34
 842 398 842 398 842 475 c 0,35,36
 842 542 842 542 822.5 596 c 128,-1,37
 803 650 803 650 763.5 688 c 128,-1,38
 724 726 724 726 665 747 c 128,-1,39
 606 768 606 768 527 768 c 0,40,41
 473 768 473 768 415 759 c 128,-1,42
 357 750 357 750 295 730 c 1,43,-1
 183 763 l 1,44,-1
 299 1433 l 1,45,-1
 978 1433 l 1,46,-1
 978 1355 l 2,0,1
EndSplineSet
EndChar

StartChar: six
Encoding: 15 54 26
Width: 1160
VWidth: 2000
Flags: W
LayerCount: 2
Fore
SplineSet
650 878 m 0,0,1
 736 878 736 878 813 849.5 c 128,-1,2
 890 821 890 821 948 766.5 c 128,-1,3
 1006 712 1006 712 1040 632.5 c 128,-1,4
 1074 553 1074 553 1074 451 c 0,5,6
 1074 352 1074 352 1038 267 c 128,-1,7
 1002 182 1002 182 937.5 119 c 128,-1,8
 873 56 873 56 782 20 c 128,-1,9
 691 -16 691 -16 582 -16 c 0,10,11
 474 -16 474 -16 386.5 18.5 c 128,-1,12
 299 53 299 53 237 116.5 c 128,-1,13
 175 180 175 180 141.5 270.5 c 128,-1,14
 108 361 108 361 108 473 c 0,15,16
 108 567 108 567 150 673 c 128,-1,17
 192 779 192 779 283 901 c 2,18,-1
 646 1390 l 2,19,20
 660 1408 660 1408 685 1420.5 c 128,-1,21
 710 1433 710 1433 742 1433 c 2,22,-1
 900 1433 l 1,23,-1
 403 804 l 1,24,25
 454 839 454 839 516 858.5 c 128,-1,26
 578 878 578 878 650 878 c 0,0,1
280 442 m 0,27,28
 280 373 280 373 300 316 c 128,-1,29
 320 259 320 259 358.5 218 c 128,-1,30
 397 177 397 177 452.5 154.5 c 128,-1,31
 508 132 508 132 579 132 c 0,32,33
 651 132 651 132 709 155 c 128,-1,34
 767 178 767 178 808.5 219 c 128,-1,35
 850 260 850 260 872.5 316 c 128,-1,36
 895 372 895 372 895 438 c 0,37,38
 895 508 895 508 873 564.5 c 128,-1,39
 851 621 851 621 811 660.5 c 128,-1,40
 771 700 771 700 715 721 c 128,-1,41
 659 742 659 742 592 742 c 0,42,43
 520 742 520 742 462 717.5 c 128,-1,44
 404 693 404 693 363.5 651.5 c 128,-1,45
 323 610 323 610 301.5 555.5 c 128,-1,46
 280 501 280 501 280 442 c 0,27,28
EndSplineSet
EndChar

StartChar: seven
Encoding: 16 55 27
Width: 1160
VWidth: 2000
Flags: W
LayerCount: 2
Fore
SplineSet
1084 1433 m 1,0,-1
 1084 1353 l 2,1,2
 1084 1319 1084 1319 1076.5 1297 c 128,-1,3
 1069 1275 1069 1275 1061 1260 c 2,4,-1
 468 63 l 2,5,6
 455 37 455 37 432 18.5 c 128,-1,7
 409 0 409 0 370 0 c 2,8,-1
 243 0 l 1,9,-1
 845 1182 l 2,10,11
 858 1207 858 1207 871.5 1228 c 128,-1,12
 885 1249 885 1249 902 1268 c 1,13,-1
 154 1268 l 2,14,15
 137 1268 137 1268 123.5 1281.5 c 128,-1,16
 110 1295 110 1295 110 1312 c 2,17,-1
 110 1433 l 1,18,-1
 1084 1433 l 1,0,-1
EndSplineSet
EndChar

StartChar: eight
Encoding: 17 56 28
Width: 1160
VWidth: 2000
Flags: W
LayerCount: 2
Fore
SplineSet
579 -16 m 256,0,1
 472 -16 472 -16 383 12.5 c 128,-1,2
 294 41 294 41 230 94 c 128,-1,3
 166 147 166 147 131 222.5 c 128,-1,4
 96 298 96 298 96 392 c 0,5,6
 96 530 96 530 168 619.5 c 128,-1,7
 240 709 240 709 374 747 c 1,8,9
 261 789 261 789 203.5 872.5 c 128,-1,10
 146 956 146 956 146 1072 c 0,11,12
 146 1151 146 1151 177 1220 c 128,-1,13
 208 1289 208 1289 265 1340 c 128,-1,14
 322 1391 322 1391 401.5 1420 c 128,-1,15
 481 1449 481 1449 579 1449 c 0,16,17
 676 1449 676 1449 756 1420 c 128,-1,18
 836 1391 836 1391 893 1340 c 128,-1,19
 950 1289 950 1289 981 1220 c 128,-1,20
 1012 1151 1012 1151 1012 1072 c 0,21,22
 1012 956 1012 956 954 872.5 c 128,-1,23
 896 789 896 789 784 747 c 1,24,25
 918 709 918 709 990 619.5 c 128,-1,26
 1062 530 1062 530 1062 392 c 0,27,28
 1062 298 1062 298 1026.5 222.5 c 128,-1,29
 991 147 991 147 927.5 94 c 128,-1,30
 864 41 864 41 775 12.5 c 128,-1,31
 686 -16 686 -16 579 -16 c 256,0,1
579 126 m 256,32,33
 649 126 649 126 704.5 145.5 c 128,-1,34
 760 165 760 165 798.5 200.5 c 128,-1,35
 837 236 837 236 857.5 285.5 c 128,-1,36
 878 335 878 335 878 395 c 0,37,38
 878 469 878 469 853.5 521.5 c 128,-1,39
 829 574 829 574 787.5 607 c 128,-1,40
 746 640 746 640 692 655.5 c 128,-1,41
 638 671 638 671 579 671 c 256,42,43
 520 671 520 671 466 655.5 c 128,-1,44
 412 640 412 640 370.5 607 c 128,-1,45
 329 574 329 574 304.5 521.5 c 128,-1,46
 280 469 280 469 280 395 c 0,47,48
 280 335 280 335 300.5 285.5 c 128,-1,49
 321 236 321 236 359.5 200.5 c 128,-1,50
 398 165 398 165 453.5 145.5 c 128,-1,51
 509 126 509 126 579 126 c 256,32,33
579 814 m 256,52,53
 649 814 649 814 698.5 835.5 c 128,-1,54
 748 857 748 857 779 892.5 c 128,-1,55
 810 928 810 928 824 974 c 128,-1,56
 838 1020 838 1020 838 1069 c 0,57,58
 838 1119 838 1119 821.5 1163 c 128,-1,59
 805 1207 805 1207 772.5 1240 c 128,-1,60
 740 1273 740 1273 691.5 1292 c 128,-1,61
 643 1311 643 1311 579 1311 c 256,62,63
 515 1311 515 1311 466.5 1292 c 128,-1,64
 418 1273 418 1273 385.5 1240 c 128,-1,65
 353 1207 353 1207 336.5 1163 c 128,-1,66
 320 1119 320 1119 320 1069 c 0,67,68
 320 1020 320 1020 334 974 c 128,-1,69
 348 928 348 928 379 892.5 c 128,-1,70
 410 857 410 857 459.5 835.5 c 128,-1,71
 509 814 509 814 579 814 c 256,52,53
EndSplineSet
EndChar

StartChar: nine
Encoding: 18 57 29
Width: 1160
VWidth: 2000
Flags: W
LayerCount: 2
Fore
SplineSet
549 588 m 0,0,1
 468 588 468 588 395.5 615 c 128,-1,2
 323 642 323 642 268 694.5 c 128,-1,3
 213 747 213 747 180.5 823.5 c 128,-1,4
 148 900 148 900 148 999 c 0,5,6
 148 1093 148 1093 183 1175 c 128,-1,7
 218 1257 218 1257 281 1318 c 128,-1,8
 344 1379 344 1379 431 1414 c 128,-1,9
 518 1449 518 1449 622 1449 c 0,10,11
 725 1449 725 1449 809 1415 c 128,-1,12
 893 1381 893 1381 953 1320 c 128,-1,13
 1013 1259 1013 1259 1045.5 1174 c 128,-1,14
 1078 1089 1078 1089 1078 986 c 0,15,16
 1078 924 1078 924 1066.5 868.5 c 128,-1,17
 1055 813 1055 813 1033 760 c 128,-1,18
 1011 707 1011 707 980.5 654.5 c 128,-1,19
 950 602 950 602 911 546 c 2,20,-1
 562 42 l 2,21,22
 549 23 549 23 525 11.5 c 128,-1,23
 501 0 501 0 470 0 c 2,24,-1
 306 0 l 1,25,-1
 742 571 l 2,26,27
 764 600 764 600 783 626 c 128,-1,28
 802 652 802 652 819 678 c 1,29,30
 764 634 764 634 695 611 c 128,-1,31
 626 588 626 588 549 588 c 0,0,1
907 1007 m 0,32,33
 907 1074 907 1074 885.5 1128.5 c 128,-1,34
 864 1183 864 1183 826 1221 c 128,-1,35
 788 1259 788 1259 735.5 1279.5 c 128,-1,36
 683 1300 683 1300 620 1300 c 0,37,38
 554 1300 554 1300 499.5 1278.5 c 128,-1,39
 445 1257 445 1257 406.5 1219 c 128,-1,40
 368 1181 368 1181 347 1128 c 128,-1,41
 326 1075 326 1075 326 1012 c 0,42,43
 326 944 326 944 345.5 890.5 c 128,-1,44
 365 837 365 837 401.5 800 c 128,-1,45
 438 763 438 763 490.5 744 c 128,-1,46
 543 725 543 725 608 725 c 0,47,48
 680 725 680 725 735.5 748.5 c 128,-1,49
 791 772 791 772 829 811 c 128,-1,50
 867 850 867 850 887 901 c 128,-1,51
 907 952 907 952 907 1007 c 0,32,33
EndSplineSet
EndChar

StartChar: colon
Encoding: 19 58 30
Width: 504
VWidth: 2000
Flags: W
LayerCount: 2
Fore
SplineSet
128 110 m 0,0,1
 128 136 128 136 137.5 159 c 128,-1,2
 147 182 147 182 163.5 199 c 128,-1,3
 180 216 180 216 203 226 c 128,-1,4
 226 236 226 236 252 236 c 256,5,6
 278 236 278 236 301 226 c 128,-1,7
 324 216 324 216 341 199 c 128,-1,8
 358 182 358 182 367.5 159 c 128,-1,9
 377 136 377 136 377 110 c 0,10,11
 377 83 377 83 367.5 60.5 c 128,-1,12
 358 38 358 38 341 21 c 128,-1,13
 324 4 324 4 301 -5.5 c 128,-1,14
 278 -15 278 -15 252 -15 c 256,15,16
 226 -15 226 -15 203 -5.5 c 128,-1,17
 180 4 180 4 163.5 21 c 128,-1,18
 147 38 147 38 137.5 60.5 c 128,-1,19
 128 83 128 83 128 110 c 0,0,1
128 860 m 0,20,21
 128 886 128 886 137.5 909 c 128,-1,22
 147 932 147 932 163.5 949 c 128,-1,23
 180 966 180 966 203 976 c 128,-1,24
 226 986 226 986 252 986 c 256,25,26
 278 986 278 986 301 976 c 128,-1,27
 324 966 324 966 341 949 c 128,-1,28
 358 932 358 932 367.5 909 c 128,-1,29
 377 886 377 886 377 860 c 0,30,31
 377 833 377 833 367.5 810.5 c 128,-1,32
 358 788 358 788 341 771 c 128,-1,33
 324 754 324 754 301 744.5 c 128,-1,34
 278 735 278 735 252 735 c 256,35,36
 226 735 226 735 203 744.5 c 128,-1,37
 180 754 180 754 163.5 771 c 128,-1,38
 147 788 147 788 137.5 810.5 c 128,-1,39
 128 833 128 833 128 860 c 0,20,21
EndSplineSet
EndChar

StartChar: question
Encoding: 20 63 31
Width: 796
VWidth: 2000
Flags: W
LayerCount: 2
Fore
SplineSet
34 1305 m 1,0,1
 65 1334 65 1334 102.5 1360 c 128,-1,2
 140 1386 140 1386 184.5 1406 c 128,-1,3
 229 1426 229 1426 280.5 1437.5 c 128,-1,4
 332 1449 332 1449 392 1449 c 0,5,6
 471 1449 471 1449 538.5 1426 c 128,-1,7
 606 1403 606 1403 655 1361 c 128,-1,8
 704 1319 704 1319 732 1259 c 128,-1,9
 760 1199 760 1199 760 1124 c 0,10,11
 760 1048 760 1048 737.5 993 c 128,-1,12
 715 938 715 938 680.5 896.5 c 128,-1,13
 646 855 646 855 605 824.5 c 128,-1,14
 564 794 564 794 528.5 767 c 128,-1,15
 493 740 493 740 467.5 713 c 128,-1,16
 442 686 442 686 438 653 c 2,17,-1
 420 500 l 1,18,-1
 298 500 l 1,19,-1
 286 666 l 1,20,-1
 286 677 l 2,21,22
 286 719 286 719 308.5 751.5 c 128,-1,23
 331 784 331 784 365.5 812.5 c 128,-1,24
 400 841 400 841 439.5 869.5 c 128,-1,25
 479 898 479 898 513.5 932.5 c 128,-1,26
 548 967 548 967 570.5 1011 c 128,-1,27
 593 1055 593 1055 593 1115 c 0,28,29
 593 1158 593 1158 576 1193 c 128,-1,30
 559 1228 559 1228 530 1252.5 c 128,-1,31
 501 1277 501 1277 461.5 1290 c 128,-1,32
 422 1303 422 1303 377 1303 c 0,33,34
 316 1303 316 1303 272.5 1288 c 128,-1,35
 229 1273 229 1273 199 1255 c 128,-1,36
 169 1237 169 1237 150.5 1222 c 128,-1,37
 132 1207 132 1207 120 1207 c 0,38,39
 95 1207 95 1207 81 1230 c 2,40,-1
 34 1305 l 1,0,1
230 110 m 0,41,42
 230 136 230 136 239.5 159 c 128,-1,43
 249 182 249 182 265.5 199 c 128,-1,44
 282 216 282 216 305 226 c 128,-1,45
 328 236 328 236 354 236 c 256,46,47
 380 236 380 236 403 226 c 128,-1,48
 426 216 426 216 443 199 c 128,-1,49
 460 182 460 182 469.5 159 c 128,-1,50
 479 136 479 136 479 110 c 0,51,52
 479 83 479 83 469.5 60.5 c 128,-1,53
 460 38 460 38 443 21 c 128,-1,54
 426 4 426 4 403 -5.5 c 128,-1,55
 380 -15 380 -15 354 -15 c 256,56,57
 328 -15 328 -15 305 -5.5 c 128,-1,58
 282 4 282 4 265.5 21 c 128,-1,59
 249 38 249 38 239.5 60.5 c 128,-1,60
 230 83 230 83 230 110 c 0,41,42
EndSplineSet
EndChar

StartChar: at
Encoding: 21 64 32
Width: 1644
VWidth: 2000
Flags: W
LayerCount: 2
Fore
SplineSet
1167 186 m 0,0,1
 1089 186 1089 186 1040 223.5 c 128,-1,2
 991 261 991 261 978 339 c 1,3,4
 920 258 920 258 852 223 c 128,-1,5
 784 188 784 188 706 188 c 0,6,7
 646 188 646 188 602 208.5 c 128,-1,8
 558 229 558 229 528.5 265.5 c 128,-1,9
 499 302 499 302 484.5 352 c 128,-1,10
 470 402 470 402 470 460 c 0,11,12
 470 545 470 545 502.5 631.5 c 128,-1,13
 535 718 535 718 599 787.5 c 128,-1,14
 663 857 663 857 758.5 901 c 128,-1,15
 854 945 854 945 979 945 c 0,16,17
 1046 945 1046 945 1096.5 934.5 c 128,-1,18
 1147 924 1147 924 1192 904 c 1,19,-1
 1099 543 l 2,20,21
 1080 468 1080 468 1080 419 c 0,22,23
 1080 383 1080 383 1089 359.5 c 128,-1,24
 1098 336 1098 336 1113.5 322.5 c 128,-1,25
 1129 309 1129 309 1149.5 304 c 128,-1,26
 1170 299 1170 299 1193 299 c 0,27,28
 1242 299 1242 299 1286 327 c 128,-1,29
 1330 355 1330 355 1363.5 406 c 128,-1,30
 1397 457 1397 457 1416.5 528.5 c 128,-1,31
 1436 600 1436 600 1436 687 c 0,32,33
 1436 825 1436 825 1391.5 929 c 128,-1,34
 1347 1033 1347 1033 1269.5 1102.5 c 128,-1,35
 1192 1172 1192 1172 1086.5 1206.5 c 128,-1,36
 981 1241 981 1241 859 1241 c 0,37,38
 725 1241 725 1241 608 1190 c 128,-1,39
 491 1139 491 1139 404 1049 c 128,-1,40
 317 959 317 959 267 836 c 128,-1,41
 217 713 217 713 217 568 c 0,42,43
 217 398 217 398 270.5 269.5 c 128,-1,44
 324 141 324 141 416.5 54 c 128,-1,45
 509 -33 509 -33 633.5 -77 c 128,-1,46
 758 -121 758 -121 901 -121 c 0,47,48
 1053 -121 1053 -121 1169.5 -88 c 128,-1,49
 1286 -55 1286 -55 1371 -4 c 0,50,51
 1386 5 1386 5 1398 5 c 0,52,53
 1419 5 1419 5 1429 -19 c 2,54,-1
 1454 -85 l 1,55,56
 1347 -157 1347 -157 1210.5 -198 c 128,-1,57
 1074 -239 1074 -239 901 -239 c 256,58,59
 728 -239 728 -239 579 -184 c 128,-1,60
 430 -129 430 -129 320.5 -25.5 c 128,-1,61
 211 78 211 78 148.5 228 c 128,-1,62
 86 378 86 378 86 568 c 0,63,64
 86 677 86 677 113.5 778 c 128,-1,65
 141 879 141 879 191 966.5 c 128,-1,66
 241 1054 241 1054 311 1126.5 c 128,-1,67
 381 1199 381 1199 467 1250.5 c 128,-1,68
 553 1302 553 1302 652 1330.5 c 128,-1,69
 751 1359 751 1359 859 1359 c 0,70,71
 951 1359 951 1359 1039 1339 c 128,-1,72
 1127 1319 1127 1319 1205.5 1280 c 128,-1,73
 1284 1241 1284 1241 1350 1183.5 c 128,-1,74
 1416 1126 1416 1126 1463.5 1051.5 c 128,-1,75
 1511 977 1511 977 1537.5 885.5 c 128,-1,76
 1564 794 1564 794 1564 687 c 0,77,78
 1564 579 1564 579 1533.5 487.5 c 128,-1,79
 1503 396 1503 396 1449.5 329 c 128,-1,80
 1396 262 1396 262 1323.5 224 c 128,-1,81
 1251 186 1251 186 1167 186 c 0,0,1
741 306 m 0,82,83
 772 306 772 306 803.5 316 c 128,-1,84
 835 326 835 326 864.5 351 c 128,-1,85
 894 376 894 376 918.5 419 c 128,-1,86
 943 462 943 462 960 527 c 2,87,-1
 1036 822 l 1,88,89
 997 831 997 831 951 831 c 0,90,91
 876 831 876 831 813.5 799.5 c 128,-1,92
 751 768 751 768 706 717 c 128,-1,93
 661 666 661 666 635.5 600 c 128,-1,94
 610 534 610 534 610 465 c 0,95,96
 610 393 610 393 643 349.5 c 128,-1,97
 676 306 676 306 741 306 c 0,82,83
EndSplineSet
EndChar

StartChar: A
Encoding: 22 65 33
Width: 1360
VWidth: 2000
Flags: W
LayerCount: 2
Fore
SplineSet
1353 0 m 1,0,-1
 1203 0 l 2,1,2
 1177 0 1177 0 1161 13 c 128,-1,3
 1145 26 1145 26 1137 46 c 2,4,-1
 1003 392 l 1,5,-1
 360 392 l 1,6,-1
 226 46 l 2,7,8
 219 28 219 28 202 14 c 128,-1,9
 185 0 185 0 160 0 c 2,10,-1
 10 0 l 1,11,-1
 583 1433 l 1,12,-1
 780 1433 l 1,13,-1
 1353 0 l 1,0,-1
414 532 m 1,14,-1
 949 532 l 1,15,-1
 724 1115 l 1,16,17
 702 1169 702 1169 681 1250 c 1,18,19
 670 1209 670 1209 659.5 1174.5 c 128,-1,20
 649 1140 649 1140 639 1114 c 2,21,-1
 414 532 l 1,14,-1
EndSplineSet
EndChar

StartChar: B
Encoding: 23 66 34
Width: 1294
VWidth: 2000
Flags: W
LayerCount: 2
Fore
SplineSet
174 0 m 1,0,-1
 174 1433 l 1,1,-1
 631 1433 l 2,2,3
 763 1433 763 1433 858.5 1407 c 128,-1,4
 954 1381 954 1381 1015.5 1333 c 128,-1,5
 1077 1285 1077 1285 1106.5 1215.5 c 128,-1,6
 1136 1146 1136 1146 1136 1059 c 0,7,8
 1136 1006 1136 1006 1119.5 957 c 128,-1,9
 1103 908 1103 908 1069.5 866 c 128,-1,10
 1036 824 1036 824 985.5 791 c 128,-1,11
 935 758 935 758 867 737 c 1,12,13
 1024 706 1024 706 1104 624 c 128,-1,14
 1184 542 1184 542 1184 408 c 0,15,16
 1184 317 1184 317 1150.5 242 c 128,-1,17
 1117 167 1117 167 1052.5 113 c 128,-1,18
 988 59 988 59 894.5 29.5 c 128,-1,19
 801 0 801 0 681 0 c 2,20,-1
 174 0 l 1,0,-1
368 653 m 1,21,-1
 368 154 l 1,22,-1
 678 154 l 2,23,24
 761 154 761 154 820.5 173 c 128,-1,25
 880 192 880 192 918.5 226.5 c 128,-1,26
 957 261 957 261 975 308.5 c 128,-1,27
 993 356 993 356 993 413 c 0,28,29
 993 524 993 524 914.5 588.5 c 128,-1,30
 836 653 836 653 677 653 c 2,31,-1
 368 653 l 1,21,-1
368 791 m 1,32,-1
 624 791 l 2,33,34
 706 791 706 791 766 809 c 128,-1,35
 826 827 826 827 865.5 859 c 128,-1,36
 905 891 905 891 924 936.5 c 128,-1,37
 943 982 943 982 943 1036 c 0,38,39
 943 1162 943 1162 867 1221 c 128,-1,40
 791 1280 791 1280 631 1280 c 2,41,-1
 368 1280 l 1,42,-1
 368 791 l 1,32,-1
EndSplineSet
EndChar

StartChar: C
Encoding: 24 67 35
Width: 1370
VWidth: 2000
Flags: W
LayerCount: 2
Fore
SplineSet
1184 296 m 256,0,1
 1200 296 1200 296 1213 283 c 2,2,-1
 1289 200 l 1,3,4
 1201 98 1201 98 1075.5 41 c 128,-1,5
 950 -16 950 -16 773 -16 c 0,6,7
 618 -16 618 -16 492 37.5 c 128,-1,8
 366 91 366 91 277 187.5 c 128,-1,9
 188 284 188 284 139 419 c 128,-1,10
 90 554 90 554 90 716 c 256,11,12
 90 878 90 878 142.5 1013 c 128,-1,13
 195 1148 195 1148 290 1245 c 128,-1,14
 385 1342 385 1342 517.5 1395.5 c 128,-1,15
 650 1449 650 1449 810 1449 c 0,16,17
 968 1449 968 1449 1082.5 1400 c 128,-1,18
 1197 1351 1197 1351 1286 1267 c 1,19,-1
 1223 1178 l 2,20,21
 1216 1168 1216 1168 1207 1161.5 c 128,-1,22
 1198 1155 1198 1155 1181 1155 c 0,23,24
 1168 1155 1168 1155 1153.5 1164.5 c 128,-1,25
 1139 1174 1139 1174 1119 1188 c 128,-1,26
 1099 1202 1099 1202 1072 1218 c 128,-1,27
 1045 1234 1045 1234 1008 1248 c 128,-1,28
 971 1262 971 1262 922 1271.5 c 128,-1,29
 873 1281 873 1281 809 1281 c 0,30,31
 694 1281 694 1281 598.5 1241.5 c 128,-1,32
 503 1202 503 1202 434 1129 c 128,-1,33
 365 1056 365 1056 326.5 951 c 128,-1,34
 288 846 288 846 288 716 c 0,35,36
 288 582 288 582 326.5 477 c 128,-1,37
 365 372 365 372 431.5 299.5 c 128,-1,38
 498 227 498 227 589 189 c 128,-1,39
 680 151 680 151 785 151 c 0,40,41
 849 151 849 151 900 158.5 c 128,-1,42
 951 166 951 166 994.5 182 c 128,-1,43
 1038 198 1038 198 1075.5 222.5 c 128,-1,44
 1113 247 1113 247 1151 281 c 0,45,46
 1168 296 1168 296 1184 296 c 256,0,1
EndSplineSet
EndChar

StartChar: D
Encoding: 25 68 36
Width: 1506
VWidth: 2000
Flags: W
LayerCount: 2
Fore
SplineSet
1416 716 m 256,0,1
 1416 555 1416 555 1365 423 c 128,-1,2
 1314 291 1314 291 1221 197 c 128,-1,3
 1128 103 1128 103 998 51.5 c 128,-1,4
 868 0 868 0 710 0 c 2,5,-1
 174 0 l 1,6,-1
 174 1433 l 1,7,-1
 710 1433 l 2,8,9
 868 1433 868 1433 998 1381.5 c 128,-1,10
 1128 1330 1128 1330 1221 1235.5 c 128,-1,11
 1314 1141 1314 1141 1365 1009 c 128,-1,12
 1416 877 1416 877 1416 716 c 256,0,1
1217 716 m 256,13,14
 1217 848 1217 848 1181 952 c 128,-1,15
 1145 1056 1145 1056 1079 1128 c 128,-1,16
 1013 1200 1013 1200 919 1238 c 128,-1,17
 825 1276 825 1276 710 1276 c 2,18,-1
 369 1276 l 1,19,-1
 369 157 l 1,20,-1
 710 157 l 2,21,22
 825 157 825 157 919 195 c 128,-1,23
 1013 233 1013 233 1079 304.5 c 128,-1,24
 1145 376 1145 376 1181 480 c 128,-1,25
 1217 584 1217 584 1217 716 c 256,13,14
EndSplineSet
EndChar

StartChar: E
Encoding: 26 69 37
Width: 1162
VWidth: 2000
Flags: W
LayerCount: 2
Fore
SplineSet
1057 1433 m 1,0,-1
 1057 1275 l 1,1,-1
 369 1275 l 1,2,-1
 369 799 l 1,3,-1
 926 799 l 1,4,-1
 926 647 l 1,5,-1
 369 647 l 1,6,-1
 369 158 l 1,7,-1
 1057 158 l 1,8,-1
 1057 0 l 1,9,-1
 174 0 l 1,10,-1
 174 1433 l 1,11,-1
 1057 1433 l 1,0,-1
EndSplineSet
EndChar

StartChar: F
Encoding: 27 70 38
Width: 1132
VWidth: 2000
Flags: W
LayerCount: 2
Fore
SplineSet
1057 1433 m 1,0,-1
 1057 1275 l 1,1,-1
 369 1275 l 1,2,-1
 369 774 l 1,3,-1
 957 774 l 1,4,-1
 957 616 l 1,5,-1
 369 616 l 1,6,-1
 369 0 l 1,7,-1
 174 0 l 1,8,-1
 174 1433 l 1,9,-1
 1057 1433 l 1,0,-1
EndSplineSet
EndChar

StartChar: G
Encoding: 28 71 39
Width: 1468
VWidth: 2000
Flags: W
LayerCount: 2
Fore
SplineSet
813 141 m 0,0,1
 871 141 871 141 919.5 146.5 c 128,-1,2
 968 152 968 152 1011 163 c 128,-1,3
 1054 174 1054 174 1092 189.5 c 128,-1,4
 1130 205 1130 205 1168 225 c 1,5,-1
 1168 541 l 1,6,-1
 946 541 l 2,7,8
 927 541 927 541 915.5 552 c 128,-1,9
 904 563 904 563 904 579 c 2,10,-1
 904 689 l 1,11,-1
 1344 689 l 1,12,-1
 1344 139 l 1,13,14
 1290 100 1290 100 1231.5 71 c 128,-1,15
 1173 42 1173 42 1106.5 22.5 c 128,-1,16
 1040 3 1040 3 964 -6.5 c 128,-1,17
 888 -16 888 -16 799 -16 c 0,18,19
 643 -16 643 -16 513 37.5 c 128,-1,20
 383 91 383 91 289 187.5 c 128,-1,21
 195 284 195 284 142.5 419 c 128,-1,22
 90 554 90 554 90 716 c 0,23,24
 90 880 90 880 141.5 1015 c 128,-1,25
 193 1150 193 1150 288.5 1246.5 c 128,-1,26
 384 1343 384 1343 519.5 1396 c 128,-1,27
 655 1449 655 1449 823 1449 c 0,28,29
 908 1449 908 1449 981 1436.5 c 128,-1,30
 1054 1424 1054 1424 1116.5 1400.5 c 128,-1,31
 1179 1377 1179 1377 1232 1343.5 c 128,-1,32
 1285 1310 1285 1310 1331 1268 c 1,33,-1
 1276 1180 l 2,34,35
 1259 1153 1259 1153 1232 1153 c 0,36,37
 1216 1153 1216 1153 1197 1164 c 0,38,39
 1172 1178 1172 1178 1141 1198 c 128,-1,40
 1110 1218 1110 1218 1065.5 1236.5 c 128,-1,41
 1021 1255 1021 1255 960.5 1268 c 128,-1,42
 900 1281 900 1281 817 1281 c 0,43,44
 696 1281 696 1281 598 1241.5 c 128,-1,45
 500 1202 500 1202 431 1128.5 c 128,-1,46
 362 1055 362 1055 325 950.5 c 128,-1,47
 288 846 288 846 288 716 c 0,48,49
 288 580 288 580 326.5 473.5 c 128,-1,50
 365 367 365 367 435 293 c 128,-1,51
 505 219 505 219 601 180 c 128,-1,52
 697 141 697 141 813 141 c 0,0,1
EndSplineSet
EndChar

StartChar: H
Encoding: 29 72 40
Width: 1512
VWidth: 2000
Flags: W
LayerCount: 2
Fore
SplineSet
1336 0 m 1,0,-1
 1141 0 l 1,1,-1
 1141 652 l 1,2,-1
 369 652 l 1,3,-1
 369 0 l 1,4,-1
 174 0 l 1,5,-1
 174 1433 l 1,6,-1
 369 1433 l 1,7,-1
 369 794 l 1,8,-1
 1141 794 l 1,9,-1
 1141 1433 l 1,10,-1
 1336 1433 l 1,11,-1
 1336 0 l 1,0,-1
EndSplineSet
EndChar

StartChar: I
Encoding: 30 73 41
Width: 614
VWidth: 2000
Flags: W
LayerCount: 2
Fore
SplineSet
404 0 m 1,0,-1
 210 0 l 1,1,-1
 210 1433 l 1,2,-1
 404 1433 l 1,3,-1
 404 0 l 1,0,-1
EndSplineSet
EndChar

StartChar: J
Encoding: 31 74 42
Width: 888
VWidth: 2000
Flags: W
LayerCount: 2
Fore
SplineSet
713 495 m 2,0,1
 713 375 713 375 683.5 280 c 128,-1,2
 654 185 654 185 596.5 119.5 c 128,-1,3
 539 54 539 54 455 19 c 128,-1,4
 371 -16 371 -16 262 -16 c 0,5,6
 165 -16 165 -16 60 12 c 1,7,8
 62 41 62 41 65 69.5 c 128,-1,9
 68 98 68 98 71 126 c 0,10,11
 73 143 73 143 83.5 153.5 c 128,-1,12
 94 164 94 164 115 164 c 0,13,14
 133 164 133 164 163 155 c 128,-1,15
 193 146 193 146 243 146 c 0,16,17
 309 146 309 146 360.5 166 c 128,-1,18
 412 186 412 186 447.5 228 c 128,-1,19
 483 270 483 270 501.5 335.5 c 128,-1,20
 520 401 520 401 520 491 c 2,21,-1
 520 1433 l 1,22,-1
 713 1433 l 1,23,-1
 713 495 l 2,0,1
EndSplineSet
EndChar

StartChar: K
Encoding: 32 75 43
Width: 1362
VWidth: 2000
Flags: W
LayerCount: 2
Fore
SplineSet
387 805 m 1,0,-1
 460 805 l 2,1,2
 498 805 498 805 520.5 814.5 c 128,-1,3
 543 824 543 824 563 847 c 2,4,-1
 1040 1387 l 2,5,6
 1062 1412 1062 1412 1082.5 1422.5 c 128,-1,7
 1103 1433 1103 1433 1135 1433 c 2,8,-1
 1300 1433 l 1,9,-1
 754 816 l 2,10,11
 733 793 733 793 714.5 777 c 128,-1,12
 696 761 696 761 675 751 c 1,13,14
 703 742 703 742 724 724 c 128,-1,15
 745 706 745 706 768 679 c 2,16,-1
 1338 0 l 1,17,-1
 1170 0 l 2,18,19
 1151 0 1151 0 1138 3 c 128,-1,20
 1125 6 1125 6 1115.5 11 c 128,-1,21
 1106 16 1106 16 1098 24 c 128,-1,22
 1090 32 1090 32 1082 41 c 2,23,-1
 587 610 l 2,24,25
 576 622 576 622 566.5 630.5 c 128,-1,26
 557 639 557 639 544.5 645 c 128,-1,27
 532 651 532 651 515.5 653.5 c 128,-1,28
 499 656 499 656 475 656 c 2,29,-1
 387 656 l 1,30,-1
 387 0 l 1,31,-1
 194 0 l 1,32,-1
 194 1433 l 1,33,-1
 387 1433 l 1,34,-1
 387 805 l 1,0,-1
EndSplineSet
EndChar

StartChar: L
Encoding: 33 76 44
Width: 1028
VWidth: 2000
Flags: W
LayerCount: 2
Fore
SplineSet
368 163 m 1,0,-1
 988 163 l 1,1,-1
 988 0 l 1,2,-1
 174 0 l 1,3,-1
 174 1433 l 1,4,-1
 368 1433 l 1,5,-1
 368 163 l 1,0,-1
EndSplineSet
EndChar

StartChar: M
Encoding: 34 77 45
Width: 1840
VWidth: 2000
Flags: W
LayerCount: 2
Fore
SplineSet
879 518 m 1,0,1
 893 494 893 494 903.5 467.5 c 128,-1,2
 914 441 914 441 924 414 c 1,3,4
 934 442 934 442 945 467.5 c 128,-1,5
 956 493 956 493 970 519 c 2,6,-1
 1455 1400 l 2,7,8
 1468 1423 1468 1423 1482 1428 c 128,-1,9
 1496 1433 1496 1433 1522 1433 c 2,10,-1
 1665 1433 l 1,11,-1
 1665 0 l 1,12,-1
 1495 0 l 1,13,-1
 1495 1053 l 2,14,15
 1495 1074 1495 1074 1496 1098 c 128,-1,16
 1497 1122 1497 1122 1499 1147 c 1,17,-1
 1008 251 l 2,18,19
 983 206 983 206 938 206 c 2,20,-1
 910 206 l 2,21,22
 865 206 865 206 840 251 c 2,23,-1
 338 1150 l 1,24,25
 341 1124 341 1124 342.5 1099 c 128,-1,26
 344 1074 344 1074 344 1053 c 2,27,-1
 344 0 l 1,28,-1
 174 0 l 1,29,-1
 174 1433 l 1,30,-1
 317 1433 l 2,31,32
 343 1433 343 1433 357 1428 c 128,-1,33
 371 1423 371 1423 384 1400 c 2,34,-1
 879 518 l 1,35,-1
 879 518 l 1,0,1
EndSplineSet
EndChar

StartChar: N
Encoding: 35 78 46
Width: 1512
VWidth: 2000
Flags: W
LayerCount: 2
Fore
SplineSet
274 1433 m 1,0,1
 300 1433 300 1433 312.5 1426.5 c 128,-1,2
 325 1420 325 1420 341 1400 c 2,3,-1
 1171 320 l 1,4,5
 1168 346 1168 346 1167 370.5 c 128,-1,6
 1166 395 1166 395 1166 418 c 2,7,-1
 1166 1433 l 1,8,-1
 1336 1433 l 1,9,-1
 1336 0 l 1,10,-1
 1238 0 l 2,11,12
 1215 0 1215 0 1199.5 8 c 128,-1,13
 1184 16 1184 16 1169 35 c 2,14,-1
 340 1114 l 1,15,16
 342 1089 342 1089 343 1065 c 128,-1,17
 344 1041 344 1041 344 1021 c 2,18,-1
 344 0 l 1,19,-1
 174 0 l 1,20,-1
 174 1433 l 1,21,-1
 274 1433 l 1,22,-1
 274 1433 l 1,0,1
EndSplineSet
EndChar

StartChar: O
Encoding: 36 79 47
Width: 1596
VWidth: 2000
Flags: W
LayerCount: 2
Fore
SplineSet
1505 716 m 256,0,1
 1505 555 1505 555 1454 420.5 c 128,-1,2
 1403 286 1403 286 1310 189 c 128,-1,3
 1217 92 1217 92 1086.5 38.5 c 128,-1,4
 956 -15 956 -15 798 -15 c 256,5,6
 640 -15 640 -15 510 38.5 c 128,-1,7
 380 92 380 92 287 189 c 128,-1,8
 194 286 194 286 143 420.5 c 128,-1,9
 92 555 92 555 92 716 c 256,10,11
 92 877 92 877 143 1011.5 c 128,-1,12
 194 1146 194 1146 287 1243.5 c 128,-1,13
 380 1341 380 1341 510 1395 c 128,-1,14
 640 1449 640 1449 798 1449 c 256,15,16
 956 1449 956 1449 1086.5 1395 c 128,-1,17
 1217 1341 1217 1341 1310 1243.5 c 128,-1,18
 1403 1146 1403 1146 1454 1011.5 c 128,-1,19
 1505 877 1505 877 1505 716 c 256,0,1
1306 716 m 256,20,21
 1306 848 1306 848 1270 953 c 128,-1,22
 1234 1058 1234 1058 1168 1130.5 c 128,-1,23
 1102 1203 1102 1203 1008 1242 c 128,-1,24
 914 1281 914 1281 798 1281 c 0,25,26
 683 1281 683 1281 589 1242 c 128,-1,27
 495 1203 495 1203 428.5 1130.5 c 128,-1,28
 362 1058 362 1058 326 953 c 128,-1,29
 290 848 290 848 290 716 c 256,30,31
 290 584 290 584 326 479.5 c 128,-1,32
 362 375 362 375 428.5 302.5 c 128,-1,33
 495 230 495 230 589 191.5 c 128,-1,34
 683 153 683 153 798 153 c 0,35,36
 914 153 914 153 1008 191.5 c 128,-1,37
 1102 230 1102 230 1168 302.5 c 128,-1,38
 1234 375 1234 375 1270 479.5 c 128,-1,39
 1306 584 1306 584 1306 716 c 256,20,21
EndSplineSet
EndChar

StartChar: P
Encoding: 37 80 48
Width: 1222
VWidth: 2000
Flags: W
LayerCount: 2
Fore
SplineSet
387 536 m 1,0,-1
 387 0 l 1,1,-1
 194 0 l 1,2,-1
 194 1433 l 1,3,-1
 617 1433 l 2,4,5
 753 1433 753 1433 853.5 1401.5 c 128,-1,6
 954 1370 954 1370 1020 1312 c 128,-1,7
 1086 1254 1086 1254 1118.5 1172 c 128,-1,8
 1151 1090 1151 1090 1151 989 c 0,9,10
 1151 889 1151 889 1116 806 c 128,-1,11
 1081 723 1081 723 1013.5 663 c 128,-1,12
 946 603 946 603 846 569.5 c 128,-1,13
 746 536 746 536 617 536 c 2,14,-1
 387 536 l 1,0,-1
387 690 m 1,15,-1
 617 690 l 2,16,17
 700 690 700 690 763.5 712 c 128,-1,18
 827 734 827 734 870 773.5 c 128,-1,19
 913 813 913 813 935 868 c 128,-1,20
 957 923 957 923 957 989 c 0,21,22
 957 1126 957 1126 872.5 1203 c 128,-1,23
 788 1280 788 1280 617 1280 c 2,24,-1
 387 1280 l 1,25,-1
 387 690 l 1,15,-1
EndSplineSet
EndChar

StartChar: Q
Encoding: 38 81 49
Width: 1596
VWidth: 2000
Flags: W
LayerCount: 2
Fore
SplineSet
1505 716 m 0,0,1
 1505 615 1505 615 1484.5 524 c 128,-1,2
 1464 433 1464 433 1425 354.5 c 128,-1,3
 1386 276 1386 276 1330 212 c 128,-1,4
 1274 148 1274 148 1204 101 c 1,5,-1
 1572 -296 l 1,6,-1
 1412 -296 l 2,7,8
 1376 -296 1376 -296 1348 -286 c 128,-1,9
 1320 -276 1320 -276 1297 -251 c 2,10,-1
 1045 23 l 1,11,12
 988 5 988 5 926.5 -5 c 128,-1,13
 865 -15 865 -15 798 -15 c 0,14,15
 640 -15 640 -15 510 38.5 c 128,-1,16
 380 92 380 92 287 189 c 128,-1,17
 194 286 194 286 143 420.5 c 128,-1,18
 92 555 92 555 92 716 c 256,19,20
 92 877 92 877 143 1011.5 c 128,-1,21
 194 1146 194 1146 287 1243.5 c 128,-1,22
 380 1341 380 1341 510 1395 c 128,-1,23
 640 1449 640 1449 798 1449 c 256,24,25
 956 1449 956 1449 1086.5 1395 c 128,-1,26
 1217 1341 1217 1341 1310 1243.5 c 128,-1,27
 1403 1146 1403 1146 1454 1011.5 c 128,-1,28
 1505 877 1505 877 1505 716 c 0,0,1
1306 716 m 256,29,30
 1306 848 1306 848 1270 953 c 128,-1,31
 1234 1058 1234 1058 1168 1130.5 c 128,-1,32
 1102 1203 1102 1203 1008 1242 c 128,-1,33
 914 1281 914 1281 798 1281 c 0,34,35
 683 1281 683 1281 589 1242 c 128,-1,36
 495 1203 495 1203 428.5 1130.5 c 128,-1,37
 362 1058 362 1058 326 953 c 128,-1,38
 290 848 290 848 290 716 c 256,39,40
 290 584 290 584 326 479.5 c 128,-1,41
 362 375 362 375 428.5 302.5 c 128,-1,42
 495 230 495 230 589 191.5 c 128,-1,43
 683 153 683 153 798 153 c 0,44,45
 914 153 914 153 1008 191.5 c 128,-1,46
 1102 230 1102 230 1168 302.5 c 128,-1,47
 1234 375 1234 375 1270 479.5 c 128,-1,48
 1306 584 1306 584 1306 716 c 256,29,30
EndSplineSet
EndChar

StartChar: R
Encoding: 39 82 50
Width: 1288
VWidth: 2000
Flags: W
LayerCount: 2
Fore
SplineSet
387 598 m 1,0,-1
 387 0 l 1,1,-1
 194 0 l 1,2,-1
 194 1433 l 1,3,-1
 599 1433 l 2,4,5
 735 1433 735 1433 834 1405.5 c 128,-1,6
 933 1378 933 1378 997.5 1326 c 128,-1,7
 1062 1274 1062 1274 1093 1200.5 c 128,-1,8
 1124 1127 1124 1127 1124 1036 c 0,9,10
 1124 960 1124 960 1100 894 c 128,-1,11
 1076 828 1076 828 1030.5 775.5 c 128,-1,12
 985 723 985 723 919.5 686 c 128,-1,13
 854 649 854 649 771 630 c 1,14,15
 807 609 807 609 835 569 c 1,16,-1
 1253 0 l 1,17,-1
 1081 0 l 2,18,19
 1028 0 1028 0 1003 41 c 1,20,-1
 631 553 l 2,21,22
 614 577 614 577 594 587.5 c 128,-1,23
 574 598 574 598 534 598 c 2,24,-1
 387 598 l 1,0,-1
387 739 m 1,25,-1
 590 739 l 2,26,27
 675 739 675 739 739.5 759.5 c 128,-1,28
 804 780 804 780 847.5 817.5 c 128,-1,29
 891 855 891 855 913 907 c 128,-1,30
 935 959 935 959 935 1022 c 0,31,32
 935 1150 935 1150 850.5 1215 c 128,-1,33
 766 1280 766 1280 599 1280 c 2,34,-1
 387 1280 l 1,35,-1
 387 739 l 1,25,-1
EndSplineSet
EndChar

StartChar: S
Encoding: 40 83 51
Width: 1060
VWidth: 2000
Flags: W
LayerCount: 2
Fore
SplineSet
908 1209 m 1,0,1
 899 1194 899 1194 889 1186.5 c 128,-1,2
 879 1179 879 1179 863 1179 c 0,3,4
 846 1179 846 1179 823.5 1196 c 128,-1,5
 801 1213 801 1213 766.5 1233.5 c 128,-1,6
 732 1254 732 1254 683.5 1271 c 128,-1,7
 635 1288 635 1288 566 1288 c 0,8,9
 501 1288 501 1288 451 1270.5 c 128,-1,10
 401 1253 401 1253 367.5 1223 c 128,-1,11
 334 1193 334 1193 317 1152.5 c 128,-1,12
 300 1112 300 1112 300 1065 c 0,13,14
 300 1005 300 1005 329.5 965.5 c 128,-1,15
 359 926 359 926 407.5 898 c 128,-1,16
 456 870 456 870 517.5 849.5 c 128,-1,17
 579 829 579 829 643.5 807 c 128,-1,18
 708 785 708 785 769.5 757.5 c 128,-1,19
 831 730 831 730 879.5 688 c 128,-1,20
 928 646 928 646 957.5 585 c 128,-1,21
 987 524 987 524 987 435 c 0,22,23
 987 341 987 341 955 258.5 c 128,-1,24
 923 176 923 176 861.5 115 c 128,-1,25
 800 54 800 54 710.5 19 c 128,-1,26
 621 -16 621 -16 507 -16 c 0,27,28
 368 -16 368 -16 253.5 34.5 c 128,-1,29
 139 85 139 85 58 171 c 1,30,-1
 114 263 l 1,31,32
 122 274 122 274 133.5 281.5 c 128,-1,33
 145 289 145 289 159 289 c 0,34,35
 180 289 180 289 207 266.5 c 128,-1,36
 234 244 234 244 274.5 217 c 128,-1,37
 315 190 315 190 372.5 167.5 c 128,-1,38
 430 145 430 145 513 145 c 0,39,40
 582 145 582 145 636 164 c 128,-1,41
 690 183 690 183 727.5 217.5 c 128,-1,42
 765 252 765 252 785 300 c 128,-1,43
 805 348 805 348 805 407 c 0,44,45
 805 472 805 472 775.5 513.5 c 128,-1,46
 746 555 746 555 698 583 c 128,-1,47
 650 611 650 611 588.5 630.5 c 128,-1,48
 527 650 527 650 462.5 670.5 c 128,-1,49
 398 691 398 691 336.5 718 c 128,-1,50
 275 745 275 745 227 788 c 128,-1,51
 179 831 179 831 149.5 895.5 c 128,-1,52
 120 960 120 960 120 1055 c 0,53,54
 120 1131 120 1131 149.5 1202 c 128,-1,55
 179 1273 179 1273 235 1328 c 128,-1,56
 291 1383 291 1383 373.5 1416 c 128,-1,57
 456 1449 456 1449 563 1449 c 0,58,59
 683 1449 683 1449 782 1411 c 128,-1,60
 881 1373 881 1373 955 1301 c 1,61,-1
 908 1209 l 1,0,1
EndSplineSet
EndChar

StartChar: T
Encoding: 41 84 52
Width: 1180
VWidth: 2000
Flags: W
LayerCount: 2
Fore
SplineSet
1150 1433 m 1,0,-1
 1150 1270 l 1,1,-1
 687 1270 l 1,2,-1
 687 0 l 1,3,-1
 493 0 l 1,4,-1
 493 1270 l 1,5,-1
 28 1270 l 1,6,-1
 28 1433 l 1,7,-1
 1150 1433 l 1,0,-1
EndSplineSet
EndChar

StartChar: U
Encoding: 42 85 53
Width: 1460
VWidth: 2000
Flags: W
LayerCount: 2
Fore
SplineSet
731 154 m 256,0,1
 820 154 820 154 890 184 c 128,-1,2
 960 214 960 214 1008.5 268 c 128,-1,3
 1057 322 1057 322 1082.5 397 c 128,-1,4
 1108 472 1108 472 1108 562 c 2,5,-1
 1108 1433 l 1,6,-1
 1301 1433 l 1,7,-1
 1301 562 l 2,8,9
 1301 438 1301 438 1261.5 332 c 128,-1,10
 1222 226 1222 226 1148.5 148.5 c 128,-1,11
 1075 71 1075 71 969 27 c 128,-1,12
 863 -17 863 -17 731 -17 c 256,13,14
 599 -17 599 -17 493 27 c 128,-1,15
 387 71 387 71 313 148.5 c 128,-1,16
 239 226 239 226 199.5 332 c 128,-1,17
 160 438 160 438 160 562 c 2,18,-1
 160 1433 l 1,19,-1
 353 1433 l 1,20,-1
 353 563 l 2,21,22
 353 473 353 473 378.5 398 c 128,-1,23
 404 323 404 323 452.5 269 c 128,-1,24
 501 215 501 215 571.5 184.5 c 128,-1,25
 642 154 642 154 731 154 c 256,0,1
EndSplineSet
EndChar

StartChar: V
Encoding: 43 86 54
Width: 1360
VWidth: 2000
Flags: W
LayerCount: 2
Fore
SplineSet
8 1433 m 1,0,-1
 163 1433 l 2,1,2
 189 1433 189 1433 205 1420 c 128,-1,3
 221 1407 221 1407 229 1387 c 2,4,-1
 634 376 l 2,5,6
 648 342 648 342 659.5 302 c 128,-1,7
 671 262 671 262 682 219 c 1,8,9
 691 262 691 262 701.5 302 c 128,-1,10
 712 342 712 342 726 376 c 2,11,-1
 1129 1387 l 2,12,13
 1136 1404 1136 1404 1153 1418.5 c 128,-1,14
 1170 1433 1170 1433 1195 1433 c 2,15,-1
 1351 1433 l 1,16,-1
 767 0 l 1,17,-1
 592 0 l 1,18,-1
 8 1433 l 1,0,-1
EndSplineSet
EndChar

StartChar: W
Encoding: 44 87 55
Width: 2038
VWidth: 2000
Flags: W
LayerCount: 2
Fore
SplineSet
14 1433 m 1,0,-1
 175 1433 l 2,1,2
 201 1433 201 1433 218 1420 c 128,-1,3
 235 1407 235 1407 241 1387 c 2,4,-1
 537 391 l 2,5,6
 545 364 545 364 551.5 333 c 128,-1,7
 558 302 558 302 564 268 c 1,8,9
 571 302 571 302 578 333.5 c 128,-1,10
 585 365 585 365 594 391 c 2,11,-1
 931 1387 l 2,12,13
 937 1404 937 1404 954.5 1418.5 c 128,-1,14
 972 1433 972 1433 997 1433 c 2,15,-1
 1053 1433 l 2,16,17
 1079 1433 1079 1433 1095.5 1420 c 128,-1,18
 1112 1407 1112 1407 1119 1387 c 2,19,-1
 1454 391 l 2,20,21
 1472 339 1472 339 1486 272 c 1,22,23
 1492 305 1492 305 1497 335 c 128,-1,24
 1502 365 1502 365 1510 391 c 2,25,-1
 1807 1387 l 2,26,27
 1812 1405 1812 1405 1829.5 1419 c 128,-1,28
 1847 1433 1847 1433 1872 1433 c 2,29,-1
 2023 1433 l 1,30,-1
 1576 0 l 1,31,-1
 1402 0 l 1,32,-1
 1039 1093 l 2,33,34
 1028 1124 1028 1124 1019 1165 c 1,35,36
 1014 1145 1014 1145 1009.5 1126.5 c 128,-1,37
 1005 1108 1005 1108 1000 1093 c 2,38,-1
 635 0 l 1,39,-1
 461 0 l 1,40,-1
 14 1433 l 1,0,-1
EndSplineSet
EndChar

StartChar: X
Encoding: 45 88 56
Width: 1286
VWidth: 2000
Flags: W
LayerCount: 2
Fore
SplineSet
507 736 m 1,0,-1
 34 1433 l 1,1,-1
 227 1433 l 2,2,3
 248 1433 248 1433 258 1426 c 128,-1,4
 268 1419 268 1419 276 1406 c 2,5,-1
 650 832 l 1,6,7
 657 853 657 853 671 878 c 1,8,-1
 1024 1402 l 2,9,10
 1033 1416 1033 1416 1043.5 1424.5 c 128,-1,11
 1054 1433 1054 1433 1069 1433 c 2,12,-1
 1254 1433 l 1,13,-1
 779 745 l 1,14,-1
 1270 0 l 1,15,-1
 1078 0 l 2,16,17
 1056 0 1056 0 1043.5 11.5 c 128,-1,18
 1031 23 1031 23 1023 37 c 2,19,-1
 639 638 l 1,20,21
 632 617 632 617 621 598 c 1,22,-1
 247 37 l 2,23,24
 238 23 238 23 226.5 11.5 c 128,-1,25
 215 0 215 0 194 0 c 2,26,-1
 14 0 l 1,27,-1
 507 736 l 1,0,-1
EndSplineSet
EndChar

StartChar: Y
Encoding: 46 89 57
Width: 1258
VWidth: 2000
Flags: W
LayerCount: 2
Fore
SplineSet
726 570 m 1,0,-1
 726 0 l 1,1,-1
 533 0 l 1,2,-1
 533 570 l 1,3,-1
 8 1433 l 1,4,-1
 178 1433 l 2,5,6
 204 1433 204 1433 219 1420 c 128,-1,7
 234 1407 234 1407 245 1388 c 2,8,-1
 573 831 l 2,9,10
 593 796 593 796 606.5 765 c 128,-1,11
 620 734 620 734 631 704 c 1,12,13
 642 735 642 735 655 766 c 128,-1,14
 668 797 668 797 688 831 c 2,15,-1
 1015 1388 l 2,16,17
 1024 1404 1024 1404 1039.5 1418.5 c 128,-1,18
 1055 1433 1055 1433 1080 1433 c 2,19,-1
 1252 1433 l 1,20,-1
 726 570 l 1,0,-1
EndSplineSet
EndChar

StartChar: Z
Encoding: 47 90 58
Width: 1248
VWidth: 2000
Flags: W
LayerCount: 2
Fore
SplineSet
1172 1433 m 1,0,-1
 1172 1361 l 2,1,2
 1172 1327 1172 1327 1151 1297 c 2,3,-1
 340 158 l 1,4,-1
 1158 158 l 1,5,-1
 1158 0 l 1,6,-1
 86 0 l 1,7,-1
 86 76 l 2,8,9
 86 106 86 106 105 133 c 2,10,-1
 917 1275 l 1,11,-1
 124 1275 l 1,12,-1
 124 1433 l 1,13,-1
 1172 1433 l 1,0,-1
EndSplineSet
EndChar

StartChar: a
Encoding: 48 97 59
Width: 1014
VWidth: 2000
Flags: W
LayerCount: 2
Fore
SplineSet
890 0 m 1,0,-1
 811 0 l 2,1,2
 785 0 785 0 769 8 c 128,-1,3
 753 16 753 16 748 42 c 2,4,-1
 728 136 l 1,5,6
 688 100 688 100 650 71.5 c 128,-1,7
 612 43 612 43 570 23.5 c 128,-1,8
 528 4 528 4 480.5 -6 c 128,-1,9
 433 -16 433 -16 375 -16 c 0,10,11
 316 -16 316 -16 264.5 0.5 c 128,-1,12
 213 17 213 17 175 50 c 128,-1,13
 137 83 137 83 114.5 133.5 c 128,-1,14
 92 184 92 184 92 253 c 0,15,16
 92 313 92 313 125 368.5 c 128,-1,17
 158 424 158 424 231.5 467 c 128,-1,18
 305 510 305 510 424 537.5 c 128,-1,19
 543 565 543 565 715 569 c 1,20,-1
 715 648 l 2,21,22
 715 766 715 766 664.5 826.5 c 128,-1,23
 614 887 614 887 515 887 c 0,24,25
 450 887 450 887 405.5 870.5 c 128,-1,26
 361 854 361 854 328.5 833.5 c 128,-1,27
 296 813 296 813 272.5 796.5 c 128,-1,28
 249 780 249 780 226 780 c 0,29,30
 208 780 208 780 194.5 789.5 c 128,-1,31
 181 799 181 799 173 813 c 2,32,-1
 141 870 l 1,33,34
 225 951 225 951 322 991 c 128,-1,35
 419 1031 419 1031 537 1031 c 0,36,37
 622 1031 622 1031 688 1003 c 128,-1,38
 754 975 754 975 799 925 c 128,-1,39
 844 875 844 875 867 804 c 128,-1,40
 890 733 890 733 890 648 c 2,41,-1
 890 0 l 1,0,-1
428 109 m 0,42,43
 475 109 475 109 514 118.5 c 128,-1,44
 553 128 553 128 587.5 145.5 c 128,-1,45
 622 163 622 163 653.5 188 c 128,-1,46
 685 213 685 213 715 245 c 1,47,-1
 715 456 l 1,48,49
 592 452 592 452 506 436.5 c 128,-1,50
 420 421 420 421 366 396 c 128,-1,51
 312 371 312 371 287.5 337 c 128,-1,52
 263 303 263 303 263 261 c 0,53,54
 263 221 263 221 276 192 c 128,-1,55
 289 163 289 163 311 144.5 c 128,-1,56
 333 126 333 126 363 117.5 c 128,-1,57
 393 109 393 109 428 109 c 0,42,43
EndSplineSet
EndChar

StartChar: b
Encoding: 49 98 60
Width: 1118
VWidth: 2000
Flags: W
LayerCount: 2
Fore
SplineSet
152 0 m 1,0,-1
 152 1473 l 1,1,-1
 331 1473 l 1,2,-1
 331 867 l 1,3,4
 394 940 394 940 475.5 984.5 c 128,-1,5
 557 1029 557 1029 662 1029 c 0,6,7
 750 1029 750 1029 821 996 c 128,-1,8
 892 963 892 963 942 897.5 c 128,-1,9
 992 832 992 832 1019 735.5 c 128,-1,10
 1046 639 1046 639 1046 513 c 0,11,12
 1046 401 1046 401 1016 304.5 c 128,-1,13
 986 208 986 208 929.5 137.5 c 128,-1,14
 873 67 873 67 791.5 26.5 c 128,-1,15
 710 -14 710 -14 608 -14 c 0,16,17
 510 -14 510 -14 441.5 24 c 128,-1,18
 373 62 373 62 322 130 c 1,19,-1
 313 38 l 1,20,21
 305 0 305 0 267 0 c 2,22,-1
 152 0 l 1,0,-1
604 887 m 0,23,24
 517 887 517 887 451.5 847 c 128,-1,25
 386 807 386 807 331 734 c 1,26,-1
 331 244 l 1,27,28
 379 178 379 178 437.5 151 c 128,-1,29
 496 124 496 124 568 124 c 0,30,31
 710 124 710 124 786 225 c 128,-1,32
 862 326 862 326 862 513 c 0,33,34
 862 612 862 612 844.5 683 c 128,-1,35
 827 754 827 754 794 799.5 c 128,-1,36
 761 845 761 845 713 866 c 128,-1,37
 665 887 665 887 604 887 c 0,23,24
EndSplineSet
EndChar

StartChar: c
Encoding: 50 99 61
Width: 934
VWidth: 2000
Flags: W
LayerCount: 2
Fore
SplineSet
837 833 m 2,0,1
 829 822 829 822 821 816 c 128,-1,2
 813 810 813 810 798 810 c 256,3,4
 783 810 783 810 765.5 822.5 c 128,-1,5
 748 835 748 835 721 850 c 128,-1,6
 694 865 694 865 655.5 877.5 c 128,-1,7
 617 890 617 890 561 890 c 0,8,9
 487 890 487 890 430 863.5 c 128,-1,10
 373 837 373 837 334.5 787 c 128,-1,11
 296 737 296 737 276.5 666 c 128,-1,12
 257 595 257 595 257 507 c 0,13,14
 257 415 257 415 278 343.5 c 128,-1,15
 299 272 299 272 337 223.5 c 128,-1,16
 375 175 375 175 429.5 149.5 c 128,-1,17
 484 124 484 124 552 124 c 0,18,19
 617 124 617 124 659 139.5 c 128,-1,20
 701 155 701 155 729 174 c 128,-1,21
 757 193 757 193 775 208.5 c 128,-1,22
 793 224 793 224 811 224 c 0,23,24
 834 224 834 224 845 207 c 1,25,-1
 895 142 l 1,26,27
 829 61 829 61 730 23.5 c 128,-1,28
 631 -14 631 -14 521 -14 c 0,29,30
 426 -14 426 -14 344.5 21 c 128,-1,31
 263 56 263 56 203 122.5 c 128,-1,32
 143 189 143 189 108.5 286 c 128,-1,33
 74 383 74 383 74 507 c 0,34,35
 74 620 74 620 105.5 716 c 128,-1,36
 137 812 137 812 197.5 881.5 c 128,-1,37
 258 951 258 951 347 990 c 128,-1,38
 436 1029 436 1029 551 1029 c 0,39,40
 657 1029 657 1029 739 994.5 c 128,-1,41
 821 960 821 960 884 897 c 1,42,-1
 837 833 l 2,0,1
EndSplineSet
EndChar

StartChar: d
Encoding: 51 100 62
Width: 1118
VWidth: 2000
Flags: W
LayerCount: 2
Fore
SplineSet
859 0 m 2,0,1
 821 0 821 0 811 37 c 1,2,-1
 795 160 l 1,3,4
 730 81 730 81 646.5 33.5 c 128,-1,5
 563 -14 563 -14 455 -14 c 0,6,7
 368 -14 368 -14 297 19.5 c 128,-1,8
 226 53 226 53 176 118 c 128,-1,9
 126 183 126 183 99 280 c 128,-1,10
 72 377 72 377 72 503 c 0,11,12
 72 615 72 615 102 711.5 c 128,-1,13
 132 808 132 808 188.5 879 c 128,-1,14
 245 950 245 950 326 990.5 c 128,-1,15
 407 1031 407 1031 510 1031 c 0,16,17
 603 1031 603 1031 669 999.5 c 128,-1,18
 735 968 735 968 787 911 c 1,19,-1
 787 1473 l 1,20,-1
 965 1473 l 1,21,-1
 965 0 l 1,22,-1
 859 0 l 2,0,1
514 130 m 0,23,24
 601 130 601 130 666.5 170 c 128,-1,25
 732 210 732 210 787 283 c 1,26,-1
 787 773 l 1,27,28
 738 839 738 839 679.5 865.5 c 128,-1,29
 621 892 621 892 550 892 c 0,30,31
 408 892 408 892 332 791 c 128,-1,32
 256 690 256 690 256 503 c 0,33,34
 256 404 256 404 273 333.5 c 128,-1,35
 290 263 290 263 323 217.5 c 128,-1,36
 356 172 356 172 404 151 c 128,-1,37
 452 130 452 130 514 130 c 0,23,24
EndSplineSet
EndChar

StartChar: e
Encoding: 52 101 63
Width: 1048
VWidth: 2000
Flags: W
LayerCount: 2
Fore
SplineSet
547 1029 m 0,0,1
 638 1029 638 1029 715 998.5 c 128,-1,2
 792 968 792 968 848 910.5 c 128,-1,3
 904 853 904 853 935.5 768.5 c 128,-1,4
 967 684 967 684 967 576 c 0,5,6
 967 534 967 534 958 520 c 128,-1,7
 949 506 949 506 924 506 c 2,8,-1
 250 506 l 1,9,10
 252 410 252 410 276 339 c 128,-1,11
 300 268 300 268 342 220.5 c 128,-1,12
 384 173 384 173 442 149.5 c 128,-1,13
 500 126 500 126 572 126 c 0,14,15
 639 126 639 126 687.5 141.5 c 128,-1,16
 736 157 736 157 771 175 c 128,-1,17
 806 193 806 193 829.5 208.5 c 128,-1,18
 853 224 853 224 870 224 c 0,19,20
 892 224 892 224 904 207 c 2,21,-1
 954 142 l 1,22,23
 921 102 921 102 875 72.5 c 128,-1,24
 829 43 829 43 776.5 24 c 128,-1,25
 724 5 724 5 668 -4.5 c 128,-1,26
 612 -14 612 -14 557 -14 c 0,27,28
 452 -14 452 -14 363.5 21.5 c 128,-1,29
 275 57 275 57 210.5 125.5 c 128,-1,30
 146 194 146 194 110 295 c 128,-1,31
 74 396 74 396 74 527 c 0,32,33
 74 633 74 633 106.5 725 c 128,-1,34
 139 817 139 817 200 884.5 c 128,-1,35
 261 952 261 952 349 990.5 c 128,-1,36
 437 1029 437 1029 547 1029 c 0,0,1
551 898 m 0,37,38
 422 898 422 898 348 823.5 c 128,-1,39
 274 749 274 749 256 617 c 1,40,-1
 807 617 l 1,41,42
 807 679 807 679 790 730.5 c 128,-1,43
 773 782 773 782 740 819.5 c 128,-1,44
 707 857 707 857 659.5 877.5 c 128,-1,45
 612 898 612 898 551 898 c 0,37,38
EndSplineSet
EndChar

StartChar: f
Encoding: 53 102 64
Width: 674
VWidth: 2000
Flags: W
LayerCount: 2
Fore
SplineSet
186 0 m 1,0,-1
 186 861 l 1,1,-1
 74 874 l 1,2,3
 53 879 53 879 39.5 889.5 c 128,-1,4
 26 900 26 900 26 920 c 2,5,-1
 26 993 l 1,6,-1
 186 993 l 1,7,-1
 186 1091 l 2,8,9
 186 1178 186 1178 210.5 1245.5 c 128,-1,10
 235 1313 235 1313 280.5 1359.5 c 128,-1,11
 326 1406 326 1406 390 1430 c 128,-1,12
 454 1454 454 1454 534 1454 c 0,13,14
 602 1454 602 1454 660 1434 c 1,15,-1
 656 1345 l 2,16,17
 655 1325 655 1325 639 1321 c 128,-1,18
 623 1317 623 1317 594 1317 c 2,19,-1
 563 1317 l 2,20,21
 517 1317 517 1317 479.5 1305 c 128,-1,22
 442 1293 442 1293 415 1266 c 128,-1,23
 388 1239 388 1239 373.5 1195 c 128,-1,24
 359 1151 359 1151 359 1086 c 2,25,-1
 359 993 l 1,26,-1
 652 993 l 1,27,-1
 652 864 l 1,28,-1
 365 864 l 1,29,-1
 365 0 l 1,30,-1
 186 0 l 1,0,-1
EndSplineSet
EndChar

StartChar: g
Encoding: 54 103 65
Width: 1022
VWidth: 2000
Flags: W
LayerCount: 2
Fore
SplineSet
487 1030 m 0,0,1
 553 1030 553 1030 610.5 1015.5 c 128,-1,2
 668 1001 668 1001 715 973 c 1,3,-1
 990 973 l 1,4,-1
 990 907 l 2,5,6
 990 874 990 874 948 865 c 1,7,-1
 833 849 l 1,8,9
 867 784 867 784 867 704 c 0,10,11
 867 630 867 630 838.5 569.5 c 128,-1,12
 810 509 810 509 759.5 466 c 128,-1,13
 709 423 709 423 639.5 400 c 128,-1,14
 570 377 570 377 487 377 c 0,15,16
 416 377 416 377 353 394 c 1,17,18
 321 374 321 374 304.5 351 c 128,-1,19
 288 328 288 328 288 306 c 0,20,21
 288 270 288 270 317 251.5 c 128,-1,22
 346 233 346 233 394 225 c 128,-1,23
 442 217 442 217 503 215 c 128,-1,24
 564 213 564 213 627.5 208.5 c 128,-1,25
 691 204 691 204 752 193 c 128,-1,26
 813 182 813 182 861 157 c 128,-1,27
 909 132 909 132 938 88 c 128,-1,28
 967 44 967 44 967 -26 c 0,29,30
 967 -91 967 -91 934.5 -152 c 128,-1,31
 902 -213 902 -213 841 -260.5 c 128,-1,32
 780 -308 780 -308 692 -336.5 c 128,-1,33
 604 -365 604 -365 493 -365 c 256,34,35
 382 -365 382 -365 298.5 -343 c 128,-1,36
 215 -321 215 -321 160 -284 c 128,-1,37
 105 -247 105 -247 77.5 -198.5 c 128,-1,38
 50 -150 50 -150 50 -97 c 0,39,40
 50 -22 50 -22 97.5 30.5 c 128,-1,41
 145 83 145 83 228 114 c 1,42,43
 185 134 185 134 159.5 167.5 c 128,-1,44
 134 201 134 201 134 257 c 0,45,46
 134 279 134 279 142 302.5 c 128,-1,47
 150 326 150 326 166.5 349 c 128,-1,48
 183 372 183 372 207 393 c 128,-1,49
 231 414 231 414 263 430 c 1,50,51
 188 472 188 472 145.5 541.5 c 128,-1,52
 103 611 103 611 103 704 c 0,53,54
 103 778 103 778 131.5 838.5 c 128,-1,55
 160 899 160 899 211 941.5 c 128,-1,56
 262 984 262 984 332.5 1007 c 128,-1,57
 403 1030 403 1030 487 1030 c 0,0,1
803 -55 m 0,58,59
 803 -17 803 -17 782 6 c 128,-1,60
 761 29 761 29 725 41.5 c 128,-1,61
 689 54 689 54 642 60 c 128,-1,62
 595 66 595 66 543 68.5 c 128,-1,63
 491 71 491 71 437 74 c 128,-1,64
 383 77 383 77 334 85 c 1,65,66
 277 58 277 58 241.5 19 c 128,-1,67
 206 -20 206 -20 206 -74 c 0,68,69
 206 -108 206 -108 223.5 -137.5 c 128,-1,70
 241 -167 241 -167 277 -188.5 c 128,-1,71
 313 -210 313 -210 367.5 -222.5 c 128,-1,72
 422 -235 422 -235 496 -235 c 0,73,74
 568 -235 568 -235 625 -222 c 128,-1,75
 682 -209 682 -209 721.5 -185 c 128,-1,76
 761 -161 761 -161 782 -128 c 128,-1,77
 803 -95 803 -95 803 -55 c 0,58,59
487 495 m 0,78,79
 541 495 541 495 582.5 510 c 128,-1,80
 624 525 624 525 652 552 c 128,-1,81
 680 579 680 579 694 616.5 c 128,-1,82
 708 654 708 654 708 699 c 0,83,84
 708 792 708 792 651.5 847 c 128,-1,85
 595 902 595 902 487 902 c 0,86,87
 380 902 380 902 323.5 847 c 128,-1,88
 267 792 267 792 267 699 c 0,89,90
 267 654 267 654 281.5 616.5 c 128,-1,91
 296 579 296 579 324 552 c 128,-1,92
 352 525 352 525 393 510 c 128,-1,93
 434 495 434 495 487 495 c 0,78,79
EndSplineSet
EndChar

StartChar: h
Encoding: 55 104 66
Width: 1112
VWidth: 2000
Flags: W
LayerCount: 2
Fore
SplineSet
146 0 m 1,0,-1
 146 1473 l 1,1,-1
 324 1473 l 1,2,-1
 324 877 l 1,3,4
 389 946 389 946 468 987.5 c 128,-1,5
 547 1029 547 1029 650 1029 c 0,6,7
 733 1029 733 1029 796.5 1001.5 c 128,-1,8
 860 974 860 974 902.5 923.5 c 128,-1,9
 945 873 945 873 967 802 c 128,-1,10
 989 731 989 731 989 645 c 2,11,-1
 989 0 l 1,12,-1
 811 0 l 1,13,-1
 811 645 l 2,14,15
 811 760 811 760 758.5 823.5 c 128,-1,16
 706 887 706 887 598 887 c 0,17,18
 519 887 519 887 450.5 849 c 128,-1,19
 382 811 382 811 324 746 c 1,20,-1
 324 0 l 1,21,-1
 146 0 l 1,0,-1
EndSplineSet
EndChar

StartChar: i
Encoding: 56 105 67
Width: 512
VWidth: 2000
Flags: W
LayerCount: 2
Fore
SplineSet
344 1013 m 1,0,-1
 344 0 l 1,1,-1
 166 0 l 1,2,-1
 166 1013 l 1,3,-1
 344 1013 l 1,0,-1
384 1331 m 256,4,5
 384 1305 384 1305 373.5 1282.5 c 128,-1,6
 363 1260 363 1260 345.5 1242.5 c 128,-1,7
 328 1225 328 1225 305 1215 c 128,-1,8
 282 1205 282 1205 256 1205 c 256,9,10
 230 1205 230 1205 207.5 1215 c 128,-1,11
 185 1225 185 1225 167.5 1242.5 c 128,-1,12
 150 1260 150 1260 140 1282.5 c 128,-1,13
 130 1305 130 1305 130 1331 c 256,14,15
 130 1357 130 1357 140 1380.5 c 128,-1,16
 150 1404 150 1404 167.5 1421.5 c 128,-1,17
 185 1439 185 1439 207.5 1449 c 128,-1,18
 230 1459 230 1459 256 1459 c 256,19,20
 282 1459 282 1459 305 1449 c 128,-1,21
 328 1439 328 1439 345.5 1421.5 c 128,-1,22
 363 1404 363 1404 373.5 1380.5 c 128,-1,23
 384 1357 384 1357 384 1331 c 256,4,5
EndSplineSet
EndChar

StartChar: j
Encoding: 57 106 68
Width: 508
VWidth: 2000
Flags: W
LayerCount: 2
Fore
SplineSet
344 1013 m 1,0,-1
 344 -75 l 2,1,2
 344 -136 344 -136 328 -188.5 c 128,-1,3
 312 -241 312 -241 277.5 -280 c 128,-1,4
 243 -319 243 -319 188.5 -341.5 c 128,-1,5
 134 -364 134 -364 58 -364 c 0,6,7
 25 -364 25 -364 -2 -359 c 128,-1,8
 -29 -354 -29 -354 -56 -344 c 1,9,-1
 -48 -248 l 2,10,11
 -46 -235 -46 -235 -39 -231.5 c 128,-1,12
 -32 -228 -32 -228 -17 -228 c 0,13,14
 -9 -228 -9 -228 0 -228.5 c 128,-1,15
 9 -229 9 -229 22 -229 c 0,16,17
 100 -229 100 -229 133 -192.5 c 128,-1,18
 166 -156 166 -156 166 -75 c 2,19,-1
 166 1013 l 1,20,-1
 344 1013 l 1,0,-1
384 1331 m 256,21,22
 384 1305 384 1305 373.5 1282.5 c 128,-1,23
 363 1260 363 1260 345.5 1242.5 c 128,-1,24
 328 1225 328 1225 305 1215 c 128,-1,25
 282 1205 282 1205 256 1205 c 256,26,27
 230 1205 230 1205 207.5 1215 c 128,-1,28
 185 1225 185 1225 167.5 1242.5 c 128,-1,29
 150 1260 150 1260 140 1282.5 c 128,-1,30
 130 1305 130 1305 130 1331 c 256,31,32
 130 1357 130 1357 140 1380.5 c 128,-1,33
 150 1404 150 1404 167.5 1421.5 c 128,-1,34
 185 1439 185 1439 207.5 1449 c 128,-1,35
 230 1459 230 1459 256 1459 c 256,36,37
 282 1459 282 1459 305 1449 c 128,-1,38
 328 1439 328 1439 345.5 1421.5 c 128,-1,39
 363 1404 363 1404 373.5 1380.5 c 128,-1,40
 384 1357 384 1357 384 1331 c 256,21,22
EndSplineSet
EndChar

StartChar: k
Encoding: 58 107 69
Width: 1048
VWidth: 2000
Flags: W
LayerCount: 2
Fore
SplineSet
331 1473 m 1,0,-1
 331 606 l 1,1,-1
 377 606 l 2,2,3
 397 606 397 606 410 611.5 c 128,-1,4
 423 617 423 617 439 634 c 2,5,-1
 759 977 l 2,6,7
 774 993 774 993 789 1003 c 128,-1,8
 804 1013 804 1013 829 1013 c 2,9,-1
 991 1013 l 1,10,-1
 618 616 l 1,11,12
 604 599 604 599 590.5 586 c 128,-1,13
 577 573 577 573 560 563 c 1,14,15
 578 551 578 551 592.5 535.5 c 128,-1,16
 607 520 607 520 620 500 c 1,17,-1
 1016 0 l 1,18,-1
 856 0 l 2,19,20
 834 0 834 0 818.5 8.5 c 128,-1,21
 803 17 803 17 789 35 c 2,22,-1
 456 450 l 1,23,24
 441 471 441 471 426 477.5 c 128,-1,25
 411 484 411 484 381 484 c 2,26,-1
 331 484 l 1,27,-1
 331 0 l 1,28,-1
 152 0 l 1,29,-1
 152 1473 l 1,30,-1
 331 1473 l 1,0,-1
EndSplineSet
EndChar

StartChar: l
Encoding: 59 108 70
Width: 512
VWidth: 2000
Flags: W
LayerCount: 2
Fore
SplineSet
344 1473 m 1,0,-1
 344 0 l 1,1,-1
 166 0 l 1,2,-1
 166 1473 l 1,3,-1
 344 1473 l 1,0,-1
EndSplineSet
EndChar

StartChar: m
Encoding: 60 109 71
Width: 1642
VWidth: 2000
Flags: W
LayerCount: 2
Fore
SplineSet
146 0 m 1,0,-1
 146 1013 l 1,1,-1
 252 1013 l 2,2,3
 290 1013 290 1013 300 976 c 1,4,-1
 313 872 l 1,5,6
 369 941 369 941 438.5 985 c 128,-1,7
 508 1029 508 1029 600 1029 c 0,8,9
 703 1029 703 1029 766.5 972 c 128,-1,10
 830 915 830 915 858 818 c 1,11,12
 879 873 879 873 913.5 913 c 128,-1,13
 948 953 948 953 991 979 c 128,-1,14
 1034 1005 1034 1005 1082.5 1017 c 128,-1,15
 1131 1029 1131 1029 1181 1029 c 0,16,17
 1261 1029 1261 1029 1323.5 1003.5 c 128,-1,18
 1386 978 1386 978 1429.5 929 c 128,-1,19
 1473 880 1473 880 1496 808.5 c 128,-1,20
 1519 737 1519 737 1519 645 c 2,21,-1
 1519 0 l 1,22,-1
 1341 0 l 1,23,-1
 1341 645 l 2,24,25
 1341 764 1341 764 1289 825.5 c 128,-1,26
 1237 887 1237 887 1138 887 c 0,27,28
 1094 887 1094 887 1054.5 871.5 c 128,-1,29
 1015 856 1015 856 985 826 c 128,-1,30
 955 796 955 796 937.5 750.5 c 128,-1,31
 920 705 920 705 920 645 c 2,32,-1
 920 0 l 1,33,-1
 742 0 l 1,34,-1
 742 645 l 2,35,36
 742 767 742 767 693 827 c 128,-1,37
 644 887 644 887 550 887 c 0,38,39
 484 887 484 887 427.5 851.5 c 128,-1,40
 371 816 371 816 324 755 c 1,41,-1
 324 0 l 1,42,-1
 146 0 l 1,0,-1
EndSplineSet
EndChar

StartChar: n
Encoding: 61 110 72
Width: 1112
VWidth: 2000
Flags: W
LayerCount: 2
Fore
SplineSet
146 0 m 1,0,-1
 146 1013 l 1,1,-1
 252 1013 l 2,2,3
 290 1013 290 1013 300 976 c 1,4,-1
 314 866 l 1,5,6
 380 939 380 939 461.5 984 c 128,-1,7
 543 1029 543 1029 650 1029 c 0,8,9
 733 1029 733 1029 796.5 1001.5 c 128,-1,10
 860 974 860 974 902.5 923.5 c 128,-1,11
 945 873 945 873 967 802 c 128,-1,12
 989 731 989 731 989 645 c 2,13,-1
 989 0 l 1,14,-1
 811 0 l 1,15,-1
 811 645 l 2,16,17
 811 760 811 760 758.5 823.5 c 128,-1,18
 706 887 706 887 598 887 c 0,19,20
 519 887 519 887 450.5 849 c 128,-1,21
 382 811 382 811 324 746 c 1,22,-1
 324 0 l 1,23,-1
 146 0 l 1,0,-1
EndSplineSet
EndChar

StartChar: o
Encoding: 62 111 73
Width: 1112
VWidth: 2000
Flags: W
LayerCount: 2
Fore
SplineSet
556 1029 m 256,0,1
 667 1029 667 1029 756.5 992 c 128,-1,2
 846 955 846 955 908.5 887 c 128,-1,3
 971 819 971 819 1004.5 722.5 c 128,-1,4
 1038 626 1038 626 1038 507 c 0,5,6
 1038 387 1038 387 1004.5 291 c 128,-1,7
 971 195 971 195 908.5 127 c 128,-1,8
 846 59 846 59 756.5 22.5 c 128,-1,9
 667 -14 667 -14 556 -14 c 256,10,11
 445 -14 445 -14 355.5 22.5 c 128,-1,12
 266 59 266 59 203 127 c 128,-1,13
 140 195 140 195 106 291 c 128,-1,14
 72 387 72 387 72 507 c 0,15,16
 72 626 72 626 106 722.5 c 128,-1,17
 140 819 140 819 203 887 c 128,-1,18
 266 955 266 955 355.5 992 c 128,-1,19
 445 1029 445 1029 556 1029 c 256,0,1
556 125 m 0,20,21
 706 125 706 125 780 225.5 c 128,-1,22
 854 326 854 326 854 506 c 0,23,24
 854 687 854 687 780 788 c 128,-1,25
 706 889 706 889 556 889 c 0,26,27
 480 889 480 889 424 863 c 128,-1,28
 368 837 368 837 330.5 788 c 128,-1,29
 293 739 293 739 274.5 667.5 c 128,-1,30
 256 596 256 596 256 506 c 256,31,32
 256 416 256 416 274.5 345 c 128,-1,33
 293 274 293 274 330.5 225.5 c 128,-1,34
 368 177 368 177 424 151 c 128,-1,35
 480 125 480 125 556 125 c 0,20,21
EndSplineSet
EndChar

StartChar: p
Encoding: 63 112 74
Width: 1104
VWidth: 2000
Flags: W
LayerCount: 2
Fore
SplineSet
146 -343 m 1,0,-1
 146 1013 l 1,1,-1
 252 1013 l 2,2,3
 290 1013 290 1013 300 976 c 1,4,-1
 315 856 l 1,5,6
 380 935 380 935 463.5 983 c 128,-1,7
 547 1031 547 1031 656 1031 c 0,8,9
 743 1031 743 1031 814 997.5 c 128,-1,10
 885 964 885 964 935 898.5 c 128,-1,11
 985 833 985 833 1012 736 c 128,-1,12
 1039 639 1039 639 1039 513 c 0,13,14
 1039 401 1039 401 1009 304.5 c 128,-1,15
 979 208 979 208 923 137.5 c 128,-1,16
 867 67 867 67 785.5 26.5 c 128,-1,17
 704 -14 704 -14 602 -14 c 0,18,19
 508 -14 508 -14 441.5 17 c 128,-1,20
 375 48 375 48 324 105 c 1,21,-1
 324 -343 l 1,22,-1
 146 -343 l 1,0,-1
597 887 m 0,23,24
 510 887 510 887 444.5 847 c 128,-1,25
 379 807 379 807 324 734 c 1,26,-1
 324 244 l 1,27,28
 373 178 373 178 431.5 151 c 128,-1,29
 490 124 490 124 562 124 c 0,30,31
 703 124 703 124 779 225 c 128,-1,32
 855 326 855 326 855 513 c 0,33,34
 855 612 855 612 837.5 683 c 128,-1,35
 820 754 820 754 787 799.5 c 128,-1,36
 754 845 754 845 706 866 c 128,-1,37
 658 887 658 887 597 887 c 0,23,24
EndSplineSet
EndChar

StartChar: q
Encoding: 64 113 75
Width: 1118
VWidth: 2000
Flags: W
LayerCount: 2
Fore
SplineSet
965 1013 m 1,0,-1
 965 -343 l 1,1,-1
 787 -343 l 1,2,-1
 787 150 l 1,3,4
 723 76 723 76 641.5 31 c 128,-1,5
 560 -14 560 -14 455 -14 c 0,6,7
 368 -14 368 -14 297 19.5 c 128,-1,8
 226 53 226 53 176 118 c 128,-1,9
 126 183 126 183 99 280 c 128,-1,10
 72 377 72 377 72 503 c 0,11,12
 72 615 72 615 102 711.5 c 128,-1,13
 132 808 132 808 188.5 879 c 128,-1,14
 245 950 245 950 326 990.5 c 128,-1,15
 407 1031 407 1031 510 1031 c 0,16,17
 608 1031 608 1031 676.5 996 c 128,-1,18
 745 961 745 961 799 897 c 1,19,-1
 811 976 l 1,20,21
 821 1013 821 1013 859 1013 c 2,22,-1
 965 1013 l 1,0,-1
514 130 m 0,23,24
 601 130 601 130 666.5 170 c 128,-1,25
 732 210 732 210 787 283 c 1,26,-1
 787 773 l 1,27,28
 739 837 739 837 680 864.5 c 128,-1,29
 621 892 621 892 550 892 c 0,30,31
 408 892 408 892 332 791 c 128,-1,32
 256 690 256 690 256 503 c 0,33,34
 256 404 256 404 273 333.5 c 128,-1,35
 290 263 290 263 323 217.5 c 128,-1,36
 356 172 356 172 404 151 c 128,-1,37
 452 130 452 130 514 130 c 0,23,24
EndSplineSet
EndChar

StartChar: r
Encoding: 65 114 76
Width: 806
VWidth: 2000
Flags: W
LayerCount: 2
Fore
SplineSet
146 0 m 1,0,-1
 146 1013 l 1,1,-1
 248 1013 l 2,2,3
 277 1013 277 1013 288 1002 c 128,-1,4
 299 991 299 991 303 964 c 1,5,-1
 315 806 l 1,6,7
 367 912 367 912 443.5 971.5 c 128,-1,8
 520 1031 520 1031 623 1031 c 0,9,10
 665 1031 665 1031 699 1021.5 c 128,-1,11
 733 1012 733 1012 762 995 c 1,12,-1
 739 862 l 1,13,14
 732 837 732 837 708 837 c 0,15,16
 694 837 694 837 665 846.5 c 128,-1,17
 636 856 636 856 584 856 c 0,18,19
 491 856 491 856 428.5 802 c 128,-1,20
 366 748 366 748 324 645 c 1,21,-1
 324 0 l 1,22,-1
 146 0 l 1,0,-1
EndSplineSet
EndChar

StartChar: s
Encoding: 66 115 77
Width: 868
VWidth: 2000
Flags: W
LayerCount: 2
Fore
SplineSet
726 846 m 1,0,1
 714 824 714 824 689 824 c 0,2,3
 674 824 674 824 655 835 c 128,-1,4
 636 846 636 846 608.5 859.5 c 128,-1,5
 581 873 581 873 543 884.5 c 128,-1,6
 505 896 505 896 453 896 c 0,7,8
 408 896 408 896 372 884.5 c 128,-1,9
 336 873 336 873 310.5 853 c 128,-1,10
 285 833 285 833 271.5 806.5 c 128,-1,11
 258 780 258 780 258 749 c 0,12,13
 258 710 258 710 280.5 684 c 128,-1,14
 303 658 303 658 340 639 c 128,-1,15
 377 620 377 620 424 605.5 c 128,-1,16
 471 591 471 591 520.5 574.5 c 128,-1,17
 570 558 570 558 617 538 c 128,-1,18
 664 518 664 518 701 488 c 128,-1,19
 738 458 738 458 760.5 414.5 c 128,-1,20
 783 371 783 371 783 310 c 0,21,22
 783 240 783 240 758 180.5 c 128,-1,23
 733 121 733 121 684 77.5 c 128,-1,24
 635 34 635 34 564 9 c 128,-1,25
 493 -16 493 -16 400 -16 c 0,26,27
 294 -16 294 -16 208 18.5 c 128,-1,28
 122 53 122 53 62 107 c 1,29,-1
 104 175 l 2,30,31
 112 188 112 188 123 195 c 128,-1,32
 134 202 134 202 152 202 c 256,33,34
 170 202 170 202 190 188 c 128,-1,35
 210 174 210 174 238.5 157 c 128,-1,36
 267 140 267 140 307.5 126 c 128,-1,37
 348 112 348 112 409 112 c 0,38,39
 461 112 461 112 500 125.5 c 128,-1,40
 539 139 539 139 565 162 c 128,-1,41
 591 185 591 185 603.5 215 c 128,-1,42
 616 245 616 245 616 279 c 0,43,44
 616 321 616 321 593.5 348.5 c 128,-1,45
 571 376 571 376 534 395.5 c 128,-1,46
 497 415 497 415 449.5 429.5 c 128,-1,47
 402 444 402 444 352.5 460 c 128,-1,48
 303 476 303 476 255.5 496.5 c 128,-1,49
 208 517 208 517 171 548 c 128,-1,50
 134 579 134 579 111.5 624.5 c 128,-1,51
 89 670 89 670 89 735 c 0,52,53
 89 793 89 793 113 846.5 c 128,-1,54
 137 900 137 900 183 940.5 c 128,-1,55
 229 981 229 981 296 1005 c 128,-1,56
 363 1029 363 1029 449 1029 c 0,57,58
 549 1029 549 1029 628.5 997.5 c 128,-1,59
 708 966 708 966 766 911 c 1,60,-1
 726 846 l 1,0,1
EndSplineSet
EndChar

StartChar: t
Encoding: 67 116 78
Width: 746
VWidth: 2000
Flags: W
LayerCount: 2
Fore
SplineSet
453 -16 m 0,0,1
 333 -16 333 -16 268.5 51 c 128,-1,2
 204 118 204 118 204 244 c 2,3,-1
 204 864 l 1,4,-1
 82 864 l 2,5,6
 66 864 66 864 55 873.5 c 128,-1,7
 44 883 44 883 44 903 c 2,8,-1
 44 974 l 1,9,-1
 210 995 l 1,10,-1
 251 1308 l 2,11,12
 253 1323 253 1323 264 1332.5 c 128,-1,13
 275 1342 275 1342 292 1342 c 2,14,-1
 382 1342 l 1,15,-1
 382 993 l 1,16,-1
 672 993 l 1,17,-1
 672 864 l 1,18,-1
 382 864 l 1,19,-1
 382 256 l 2,20,21
 382 192 382 192 413 161 c 128,-1,22
 444 130 444 130 493 130 c 0,23,24
 521 130 521 130 541.5 137.5 c 128,-1,25
 562 145 562 145 577 154 c 128,-1,26
 592 163 592 163 602.5 170.5 c 128,-1,27
 613 178 613 178 621 178 c 0,28,29
 635 178 635 178 646 161 c 2,30,-1
 698 76 l 1,31,32
 652 33 652 33 587 8.5 c 128,-1,33
 522 -16 522 -16 453 -16 c 0,0,1
EndSplineSet
EndChar

StartChar: u
Encoding: 68 117 79
Width: 1112
VWidth: 2000
Flags: W
LayerCount: 2
Fore
SplineSet
300 1013 m 1,0,-1
 300 367 l 2,1,2
 300 252 300 252 353 189 c 128,-1,3
 406 126 406 126 513 126 c 0,4,5
 591 126 591 126 660 163 c 128,-1,6
 729 200 729 200 787 266 c 1,7,-1
 787 1013 l 1,8,-1
 965 1013 l 1,9,-1
 965 0 l 1,10,-1
 859 0 l 2,11,12
 821 0 821 0 811 37 c 1,13,-1
 797 146 l 1,14,15
 731 73 731 73 649 28.5 c 128,-1,16
 567 -16 567 -16 461 -16 c 0,17,18
 378 -16 378 -16 314.5 11.5 c 128,-1,19
 251 39 251 39 208 89 c 128,-1,20
 165 139 165 139 143.5 210 c 128,-1,21
 122 281 122 281 122 367 c 2,22,-1
 122 1013 l 1,23,-1
 300 1013 l 1,0,-1
EndSplineSet
EndChar

StartChar: v
Encoding: 69 118 80
Width: 1024
VWidth: 2000
Flags: W
LayerCount: 2
Fore
SplineSet
18 1013 m 1,0,-1
 164 1013 l 2,1,2
 185 1013 185 1013 199 1002 c 128,-1,3
 213 991 213 991 219 976 c 2,4,-1
 476 324 l 2,5,6
 490 288 490 288 498 252 c 128,-1,7
 506 216 506 216 513 181 c 1,8,9
 521 216 521 216 530 252 c 128,-1,10
 539 288 539 288 553 324 c 2,11,-1
 813 976 l 2,12,13
 819 992 819 992 832.5 1002.5 c 128,-1,14
 846 1013 846 1013 866 1013 c 2,15,-1
 1005 1013 l 1,16,-1
 592 0 l 1,17,-1
 431 0 l 1,18,-1
 18 1013 l 1,0,-1
EndSplineSet
EndChar

StartChar: w
Encoding: 70 119 81
Width: 1532
VWidth: 2000
Flags: W
LayerCount: 2
Fore
SplineSet
14 1013 m 1,0,-1
 154 1013 l 2,1,2
 176 1013 176 1013 190 1002 c 128,-1,3
 204 991 204 991 209 976 c 2,4,-1
 403 324 l 1,5,6
 411 288 411 288 418 254.5 c 128,-1,7
 425 221 425 221 430 187 c 1,8,9
 438 221 438 221 448 254.5 c 128,-1,10
 458 288 458 288 469 324 c 2,11,-1
 683 980 l 2,12,13
 688 995 688 995 700.5 1005 c 128,-1,14
 713 1015 713 1015 732 1015 c 2,15,-1
 809 1015 l 2,16,17
 829 1015 829 1015 842 1005 c 128,-1,18
 855 995 855 995 860 980 c 2,19,-1
 1069 324 l 2,20,21
 1080 289 1080 289 1088.5 255 c 128,-1,22
 1097 221 1097 221 1105 188 c 1,23,24
 1110 221 1110 221 1118 257 c 128,-1,25
 1126 293 1126 293 1135 324 c 2,26,-1
 1333 976 l 2,27,28
 1338 992 1338 992 1352 1002.5 c 128,-1,29
 1366 1013 1366 1013 1385 1013 c 2,30,-1
 1519 1013 l 1,31,-1
 1191 0 l 1,32,-1
 1050 0 l 2,33,34
 1024 0 1024 0 1014 34 c 1,35,-1
 790 721 l 2,36,37
 782 744 782 744 777 767.5 c 128,-1,38
 772 791 772 791 767 814 c 1,39,40
 762 791 762 791 757 767 c 128,-1,41
 752 743 752 743 744 720 c 2,42,-1
 517 34 l 2,43,44
 506 0 506 0 476 0 c 2,45,-1
 342 0 l 1,46,-1
 14 1013 l 1,0,-1
EndSplineSet
EndChar

StartChar: x
Encoding: 71 120 82
Width: 1008
VWidth: 2000
Flags: W
LayerCount: 2
Fore
SplineSet
383 519 m 1,0,-1
 42 1013 l 1,1,-1
 213 1013 l 2,2,3
 235 1013 235 1013 245 1006 c 128,-1,4
 255 999 255 999 263 986 c 2,5,-1
 511 606 l 1,6,7
 520 634 520 634 537 662 c 1,8,-1
 755 982 l 2,9,10
 765 996 765 996 775 1004.5 c 128,-1,11
 785 1013 785 1013 800 1013 c 2,12,-1
 964 1013 l 1,13,-1
 623 529 l 1,14,-1
 978 0 l 1,15,-1
 807 0 l 2,16,17
 785 0 785 0 772.5 11.5 c 128,-1,18
 760 23 760 23 752 37 c 2,19,-1
 497 434 l 1,20,21
 490 405 490 405 476 382 c 1,22,-1
 240 37 l 2,23,24
 230 23 230 23 218.5 11.5 c 128,-1,25
 207 0 207 0 187 0 c 2,26,-1
 28 0 l 1,27,-1
 383 519 l 1,0,-1
EndSplineSet
EndChar

StartChar: y
Encoding: 72 121 83
Width: 1024
VWidth: 2000
Flags: W
LayerCount: 2
Fore
SplineSet
443 -299 m 2,0,1
 434 -319 434 -319 420.5 -331 c 128,-1,2
 407 -343 407 -343 379 -343 c 2,3,-1
 247 -343 l 1,4,-1
 432 59 l 1,5,-1
 14 1013 l 1,6,-1
 168 1013 l 2,7,8
 191 1013 191 1013 204 1001.5 c 128,-1,9
 217 990 217 990 223 976 c 2,10,-1
 494 338 l 2,11,12
 503 316 503 316 509.5 294 c 128,-1,13
 516 272 516 272 521 249 c 1,14,15
 528 272 528 272 535 294 c 128,-1,16
 542 316 542 316 551 339 c 2,17,-1
 814 976 l 2,18,19
 820 992 820 992 834.5 1002.5 c 128,-1,20
 849 1013 849 1013 866 1013 c 2,21,-1
 1008 1013 l 1,22,-1
 443 -299 l 2,0,1
EndSplineSet
EndChar

StartChar: z
Encoding: 73 122 84
Width: 924
VWidth: 2000
Flags: W
LayerCount: 2
Fore
SplineSet
853 937 m 2,0,1
 853 918 853 918 846 900.5 c 128,-1,2
 839 883 839 883 828 869 c 2,3,-1
 280 139 l 1,4,-1
 833 139 l 1,5,-1
 833 0 l 1,6,-1
 70 0 l 1,7,-1
 70 74 l 2,8,9
 70 87 70 87 76.5 104.5 c 128,-1,10
 83 122 83 122 95 138 c 2,11,-1
 646 873 l 1,12,-1
 101 873 l 1,13,-1
 101 1013 l 1,14,-1
 853 1013 l 1,15,-1
 853 937 l 2,0,1
EndSplineSet
EndChar

StartChar: degree
Encoding: 74 176 85
Width: 794
VWidth: 2000
Flags: W
LayerCount: 2
Fore
SplineSet
70 1128 m 0,0,1
 70 1195 70 1195 95 1254 c 128,-1,2
 120 1313 120 1313 164 1356.5 c 128,-1,3
 208 1400 208 1400 267.5 1425 c 128,-1,4
 327 1450 327 1450 396 1450 c 256,5,6
 465 1450 465 1450 524.5 1425 c 128,-1,7
 584 1400 584 1400 628 1356.5 c 128,-1,8
 672 1313 672 1313 697 1254 c 128,-1,9
 722 1195 722 1195 722 1128 c 0,10,11
 722 1062 722 1062 697 1003.5 c 128,-1,12
 672 945 672 945 628 901.5 c 128,-1,13
 584 858 584 858 524.5 832.5 c 128,-1,14
 465 807 465 807 396 807 c 256,15,16
 327 807 327 807 267.5 832.5 c 128,-1,17
 208 858 208 858 164 901.5 c 128,-1,18
 120 945 120 945 95 1003.5 c 128,-1,19
 70 1062 70 1062 70 1128 c 0,0,1
197 1127 m 256,20,21
 197 1085 197 1085 212 1048.5 c 128,-1,22
 227 1012 227 1012 254 985 c 128,-1,23
 281 958 281 958 317.5 942.5 c 128,-1,24
 354 927 354 927 396 927 c 256,25,26
 438 927 438 927 474 942.5 c 128,-1,27
 510 958 510 958 537 985 c 128,-1,28
 564 1012 564 1012 579 1048.5 c 128,-1,29
 594 1085 594 1085 594 1127 c 256,30,31
 594 1169 594 1169 579 1206 c 128,-1,32
 564 1243 564 1243 537 1270.5 c 128,-1,33
 510 1298 510 1298 474 1313.5 c 128,-1,34
 438 1329 438 1329 396 1329 c 256,35,36
 354 1329 354 1329 317.5 1313.5 c 128,-1,37
 281 1298 281 1298 254 1270.5 c 128,-1,38
 227 1243 227 1243 212 1206 c 128,-1,39
 197 1169 197 1169 197 1127 c 256,20,21
EndSplineSet
EndChar

StartChar: quoteleft
Encoding: 75 8216 86
Width: 424
VWidth: 2000
Flags: W
LayerCount: 2
Fore
SplineSet
114 1012 m 1,0,1
 85 1060 85 1060 71.5 1108.5 c 128,-1,2
 58 1157 58 1157 58 1205 c 0,3,4
 58 1295 58 1295 102.5 1377.5 c 128,-1,5
 147 1460 147 1460 227 1529 c 1,6,-1
 282 1495 l 2,7,8
 290 1490 290 1490 292.5 1484 c 128,-1,9
 295 1478 295 1478 295 1472 c 0,10,11
 295 1458 295 1458 285 1448 c 1,12,13
 269 1428 269 1428 254 1406 c 128,-1,14
 239 1384 239 1384 227 1359.5 c 128,-1,15
 215 1335 215 1335 208 1308 c 128,-1,16
 201 1281 201 1281 201 1251 c 0,17,18
 201 1219 201 1219 210.5 1185 c 128,-1,19
 220 1151 220 1151 243 1113 c 0,20,21
 250 1102 250 1102 250 1090 c 0,22,23
 250 1066 250 1066 223 1056 c 2,24,-1
 114 1012 l 1,0,1
EndSplineSet
EndChar

StartChar: quoteright
Encoding: 76 8217 87
Width: 424
VWidth: 2000
Flags: W
LayerCount: 2
Fore
SplineSet
271 1508 m 1,0,1
 300 1460 300 1460 313 1412 c 128,-1,2
 326 1364 326 1364 326 1316 c 0,3,4
 326 1225 326 1225 281.5 1142.5 c 128,-1,5
 237 1060 237 1060 158 991 c 1,6,-1
 103 1025 l 2,7,8
 95 1030 95 1030 92.5 1036 c 128,-1,9
 90 1042 90 1042 90 1048 c 0,10,11
 90 1062 90 1062 100 1072 c 1,12,13
 116 1091 116 1091 131 1113.5 c 128,-1,14
 146 1136 146 1136 158 1160.5 c 128,-1,15
 170 1185 170 1185 177 1212 c 128,-1,16
 184 1239 184 1239 184 1269 c 0,17,18
 184 1301 184 1301 174.5 1335 c 128,-1,19
 165 1369 165 1369 142 1407 c 0,20,21
 135 1418 135 1418 135 1429 c 0,22,23
 135 1453 135 1453 162 1464 c 2,24,-1
 271 1508 l 1,0,1
EndSplineSet
EndChar

StartChar: quotedblleft
Encoding: 77 8220 88
Width: 728
VWidth: 2000
Flags: W
LayerCount: 2
Fore
SplineSet
114 1012 m 1,0,1
 85 1060 85 1060 71.5 1108.5 c 128,-1,2
 58 1157 58 1157 58 1205 c 0,3,4
 58 1295 58 1295 102.5 1377.5 c 128,-1,5
 147 1460 147 1460 227 1529 c 1,6,-1
 282 1495 l 2,7,8
 290 1490 290 1490 292.5 1484 c 128,-1,9
 295 1478 295 1478 295 1472 c 0,10,11
 295 1458 295 1458 285 1448 c 1,12,13
 269 1428 269 1428 254 1406 c 128,-1,14
 239 1384 239 1384 227 1359.5 c 128,-1,15
 215 1335 215 1335 208 1308 c 128,-1,16
 201 1281 201 1281 201 1251 c 0,17,18
 201 1219 201 1219 210.5 1185 c 128,-1,19
 220 1151 220 1151 243 1113 c 0,20,21
 250 1102 250 1102 250 1090 c 0,22,23
 250 1066 250 1066 223 1056 c 2,24,-1
 114 1012 l 1,0,1
418 1012 m 1,25,26
 389 1060 389 1060 375.5 1108.5 c 128,-1,27
 362 1157 362 1157 362 1205 c 0,28,29
 362 1295 362 1295 406.5 1377.5 c 128,-1,30
 451 1460 451 1460 531 1529 c 1,31,-1
 586 1495 l 2,32,33
 594 1490 594 1490 596.5 1484 c 128,-1,34
 599 1478 599 1478 599 1472 c 0,35,36
 599 1458 599 1458 589 1448 c 1,37,38
 573 1428 573 1428 558 1406 c 128,-1,39
 543 1384 543 1384 531 1359.5 c 128,-1,40
 519 1335 519 1335 512 1308 c 128,-1,41
 505 1281 505 1281 505 1251 c 0,42,43
 505 1219 505 1219 514.5 1185 c 128,-1,44
 524 1151 524 1151 547 1113 c 0,45,46
 554 1102 554 1102 554 1090 c 0,47,48
 554 1066 554 1066 527 1056 c 2,49,-1
 418 1012 l 1,25,26
EndSplineSet
EndChar

StartChar: quotedblright
Encoding: 78 8221 89
Width: 728
VWidth: 2000
Flags: W
LayerCount: 2
Fore
SplineSet
271 1508 m 1,0,1
 300 1460 300 1460 313 1412 c 128,-1,2
 326 1364 326 1364 326 1316 c 0,3,4
 326 1225 326 1225 281.5 1142.5 c 128,-1,5
 237 1060 237 1060 158 991 c 1,6,-1
 103 1025 l 2,7,8
 95 1030 95 1030 92.5 1036 c 128,-1,9
 90 1042 90 1042 90 1048 c 0,10,11
 90 1062 90 1062 100 1072 c 1,12,13
 116 1091 116 1091 131 1113.5 c 128,-1,14
 146 1136 146 1136 158 1160.5 c 128,-1,15
 170 1185 170 1185 177 1212 c 128,-1,16
 184 1239 184 1239 184 1269 c 0,17,18
 184 1301 184 1301 174.5 1335 c 128,-1,19
 165 1369 165 1369 142 1407 c 0,20,21
 135 1418 135 1418 135 1429 c 0,22,23
 135 1453 135 1453 162 1464 c 2,24,-1
 271 1508 l 1,0,1
575 1508 m 1,25,26
 604 1460 604 1460 617 1412 c 128,-1,27
 630 1364 630 1364 630 1316 c 0,28,29
 630 1225 630 1225 585.5 1142.5 c 128,-1,30
 541 1060 541 1060 462 991 c 1,31,-1
 407 1025 l 2,32,33
 399 1030 399 1030 396.5 1036 c 128,-1,34
 394 1042 394 1042 394 1048 c 0,35,36
 394 1062 394 1062 404 1072 c 1,37,38
 420 1091 420 1091 435 1113.5 c 128,-1,39
 450 1136 450 1136 462 1160.5 c 128,-1,40
 474 1185 474 1185 481 1212 c 128,-1,41
 488 1239 488 1239 488 1269 c 0,42,43
 488 1301 488 1301 478.5 1335 c 128,-1,44
 469 1369 469 1369 446 1407 c 0,45,46
 439 1418 439 1418 439 1429 c 0,47,48
 439 1453 439 1453 466 1464 c 2,49,-1
 575 1508 l 1,25,26
EndSplineSet
EndChar

StartChar: bullet
Encoding: 79 8226 90
Width: 1160
VWidth: 2000
Flags: W
LayerCount: 2
Fore
SplineSet
208 595 m 256,0,1
 208 672 208 672 237.5 740 c 128,-1,2
 267 808 267 808 317 858.5 c 128,-1,3
 367 909 367 909 434.5 938.5 c 128,-1,4
 502 968 502 968 578 968 c 0,5,6
 655 968 655 968 723 938.5 c 128,-1,7
 791 909 791 909 841.5 858.5 c 128,-1,8
 892 808 892 808 921.5 740 c 128,-1,9
 951 672 951 672 951 595 c 256,10,11
 951 518 951 518 921.5 450.5 c 128,-1,12
 892 383 892 383 841.5 333 c 128,-1,13
 791 283 791 283 723 253.5 c 128,-1,14
 655 224 655 224 578 224 c 0,15,16
 502 224 502 224 434.5 253.5 c 128,-1,17
 367 283 367 283 317 333 c 128,-1,18
 267 383 267 383 237.5 450.5 c 128,-1,19
 208 518 208 518 208 595 c 256,0,1
EndSplineSet
EndChar

StartChar: ellipsis
Encoding: 80 8230 91
Width: 1454
VWidth: 2000
Flags: W
LayerCount: 2
Fore
SplineSet
88 110 m 0,0,1
 88 136 88 136 97.5 159 c 128,-1,2
 107 182 107 182 123.5 199 c 128,-1,3
 140 216 140 216 163 226 c 128,-1,4
 186 236 186 236 212 236 c 256,5,6
 238 236 238 236 261 226 c 128,-1,7
 284 216 284 216 301 199 c 128,-1,8
 318 182 318 182 327.5 159 c 128,-1,9
 337 136 337 136 337 110 c 0,10,11
 337 83 337 83 327.5 60.5 c 128,-1,12
 318 38 318 38 301 21 c 128,-1,13
 284 4 284 4 261 -5.5 c 128,-1,14
 238 -15 238 -15 212 -15 c 256,15,16
 186 -15 186 -15 163 -5.5 c 128,-1,17
 140 4 140 4 123.5 21 c 128,-1,18
 107 38 107 38 97.5 60.5 c 128,-1,19
 88 83 88 83 88 110 c 0,0,1
1117 110 m 0,20,21
 1117 136 1117 136 1126.5 159 c 128,-1,22
 1136 182 1136 182 1152.5 199 c 128,-1,23
 1169 216 1169 216 1192 226 c 128,-1,24
 1215 236 1215 236 1241 236 c 256,25,26
 1267 236 1267 236 1290 226 c 128,-1,27
 1313 216 1313 216 1330 199 c 128,-1,28
 1347 182 1347 182 1356.5 159 c 128,-1,29
 1366 136 1366 136 1366 110 c 0,30,31
 1366 83 1366 83 1356.5 60.5 c 128,-1,32
 1347 38 1347 38 1330 21 c 128,-1,33
 1313 4 1313 4 1290 -5.5 c 128,-1,34
 1267 -15 1267 -15 1241 -15 c 256,35,36
 1215 -15 1215 -15 1192 -5.5 c 128,-1,37
 1169 4 1169 4 1152.5 21 c 128,-1,38
 1136 38 1136 38 1126.5 60.5 c 128,-1,39
 1117 83 1117 83 1117 110 c 0,20,21
602 110 m 0,40,41
 602 136 602 136 611.5 159 c 128,-1,42
 621 182 621 182 637.5 199 c 128,-1,43
 654 216 654 216 677 226 c 128,-1,44
 700 236 700 236 726 236 c 256,45,46
 752 236 752 236 775 226 c 128,-1,47
 798 216 798 216 815 199 c 128,-1,48
 832 182 832 182 841.5 159 c 128,-1,49
 851 136 851 136 851 110 c 0,50,51
 851 83 851 83 841.5 60.5 c 128,-1,52
 832 38 832 38 815 21 c 128,-1,53
 798 4 798 4 775 -5.5 c 128,-1,54
 752 -15 752 -15 726 -15 c 256,55,56
 700 -15 700 -15 677 -5.5 c 128,-1,57
 654 4 654 4 637.5 21 c 128,-1,58
 621 38 621 38 611.5 60.5 c 128,-1,59
 602 83 602 83 602 110 c 0,40,41
EndSplineSet
EndChar

StartChar: fi
Encoding: 93 64257 92
Width: 1140
VWidth: 2000
Flags: W
LayerCount: 2
Fore
SplineSet
186 0 m 1,0,-1
 186 861 l 1,1,-1
 74 874 l 1,2,3
 53 879 53 879 39.5 889.5 c 128,-1,4
 26 900 26 900 26 920 c 2,5,-1
 26 993 l 1,6,-1
 186 993 l 1,7,-1
 186 1049 l 2,8,9
 186 1142 186 1142 215 1219.5 c 128,-1,10
 244 1297 244 1297 302 1353 c 128,-1,11
 360 1409 360 1409 446.5 1440 c 128,-1,12
 533 1471 533 1471 648 1471 c 0,13,14
 686 1471 686 1471 725.5 1466 c 128,-1,15
 765 1461 765 1461 794 1451 c 1,16,-1
 788 1358 l 1,17,18
 786 1345 786 1345 776 1341.5 c 128,-1,19
 766 1338 766 1338 747 1338 c 0,20,21
 736 1338 736 1338 724 1338.5 c 128,-1,22
 712 1339 712 1339 697 1339 c 0,23,24
 520 1339 520 1339 439.5 1265.5 c 128,-1,25
 359 1192 359 1192 359 1044 c 2,26,-1
 359 993 l 1,27,-1
 971 993 l 1,28,-1
 971 0 l 1,29,-1
 793 0 l 1,30,-1
 793 864 l 1,31,-1
 365 864 l 1,32,-1
 365 0 l 1,33,-1
 186 0 l 1,0,-1
EndSplineSet
Ligature2: "Lato-Regular-'liga' Standard Ligatures in Latin lookup 1 subtable" f i
EndChar

StartChar: fl
Encoding: 94 64258 93
Width: 1188
VWidth: 2000
Flags: W
LayerCount: 2
Fore
SplineSet
186 0 m 1,0,-1
 186 861 l 1,1,-1
 74 874 l 1,2,3
 53 879 53 879 39.5 889.5 c 128,-1,4
 26 900 26 900 26 920 c 2,5,-1
 26 993 l 1,6,-1
 186 993 l 1,7,-1
 186 1047 l 2,8,9
 186 1131 186 1131 212 1206.5 c 128,-1,10
 238 1282 238 1282 290 1338 c 128,-1,11
 342 1394 342 1394 420 1427 c 128,-1,12
 498 1460 498 1460 602 1460 c 0,13,14
 685 1460 685 1460 761.5 1453.5 c 128,-1,15
 838 1447 838 1447 910 1447 c 2,16,-1
 1010 1447 l 1,17,-1
 1010 0 l 1,18,-1
 832 0 l 1,19,-1
 832 1322 l 1,20,21
 778 1324 778 1324 723.5 1327 c 128,-1,22
 669 1330 669 1330 629 1330 c 0,23,24
 499 1330 499 1330 429 1255.5 c 128,-1,25
 359 1181 359 1181 359 1047 c 2,26,-1
 359 993 l 1,27,-1
 623 993 l 1,28,-1
 623 864 l 1,29,-1
 365 864 l 1,30,-1
 365 0 l 1,31,-1
 186 0 l 1,0,-1
EndSplineSet
Ligature2: "Lato-Regular-'liga' Standard Ligatures in Latin lookup 1 subtable" f l
EndChar

StartChar: uniE00C
Encoding: 92 57356 94
Width: 2007
Flags: W
LayerCount: 2
Fore
SplineSet
1163 33 m 1,0,1
 1159 105 1159 105 1137 160 c 1,2,3
 1205 189 1205 189 1246.5 250 c 128,-1,4
 1288 311 1288 311 1288 389 c 0,5,6
 1288 440 1288 440 1268.5 486 c 128,-1,7
 1249 532 1249 532 1215.5 567 c 128,-1,8
 1182 602 1182 602 1136 621.5 c 128,-1,9
 1090 641 1090 641 1038 641 c 0,10,11
 999 641 999 641 965.5 629.5 c 128,-1,12
 932 618 932 618 901 600 c 1,13,14
 887 663 887 663 853 716.5 c 128,-1,15
 819 770 819 770 771 809 c 128,-1,16
 723 848 723 848 663.5 869.5 c 128,-1,17
 604 891 604 891 537 891 c 0,18,19
 457 891 457 891 388 861 c 128,-1,20
 319 831 319 831 268 780 c 128,-1,21
 217 729 217 729 187.5 660.5 c 128,-1,22
 158 592 158 592 158 514 c 0,23,24
 158 416 158 416 204 334 c 128,-1,25
 250 252 250 252 326 201 c 1,26,27
 314 172 314 172 303.5 141.5 c 128,-1,28
 293 111 293 111 289 78 c 1,29,30
 172 144 172 144 102.5 258.5 c 128,-1,31
 33 373 33 373 33 514 c 0,32,33
 33 618 33 618 72 710.5 c 128,-1,34
 111 803 111 803 179.5 870.5 c 128,-1,35
 248 938 248 938 340 978 c 128,-1,36
 432 1018 432 1018 537 1018 c 0,37,38
 678 1018 678 1018 792.5 947.5 c 128,-1,39
 907 877 907 877 973 760 c 1,40,41
 1006 766 1006 766 1038 766 c 0,42,43
 1116 766 1116 766 1184.5 736.5 c 128,-1,44
 1253 707 1253 707 1304.5 655.5 c 128,-1,45
 1356 604 1356 604 1385.5 535.5 c 128,-1,46
 1415 467 1415 467 1415 389 c 0,47,48
 1415 328 1415 328 1396.5 271.5 c 128,-1,49
 1378 215 1378 215 1344.5 169 c 128,-1,50
 1311 123 1311 123 1264.5 87 c 128,-1,51
 1218 51 1218 51 1163 33 c 1,0,1
723 338 m 1,52,-1
 723 336 l 1,53,-1
 817 336 l 1,54,-1
 748 408 l 2,55,56
 730 426 730 426 729.5 451.5 c 128,-1,57
 729 477 729 477 748 498 c 1,58,59
 766 514 766 514 791.5 514 c 128,-1,60
 817 514 817 514 838 498 c 1,61,-1
 1014 317 l 2,62,63
 1032 299 1032 299 1032 273.5 c 128,-1,64
 1032 248 1032 248 1014 229 c 2,65,-1
 838 51 l 2,66,67
 818 33 818 33 792 33 c 128,-1,68
 766 33 766 33 748 51 c 0,69,70
 730 71 730 71 729.5 97 c 128,-1,71
 729 123 729 123 748 139 c 2,72,-1
 819 213 l 1,73,-1
 723 213 l 2,74,75
 684 213 684 213 650 197.5 c 128,-1,76
 616 182 616 182 590.5 156.5 c 128,-1,77
 565 131 565 131 551 96 c 128,-1,78
 537 61 537 61 537 23 c 256,79,80
 537 -16 537 -16 551 -51 c 128,-1,81
 565 -86 565 -86 590.5 -111.5 c 128,-1,82
 616 -137 616 -137 650 -151.5 c 128,-1,83
 684 -166 684 -166 723 -166 c 256,84,85
 762 -166 762 -166 796.5 -151.5 c 128,-1,86
 831 -137 831 -137 857 -111.5 c 128,-1,87
 883 -86 883 -86 897 -51 c 128,-1,88
 911 -16 911 -16 911 23 c 2,89,-1
 911 37 l 1,90,-1
 1016 141 l 1,91,92
 1039 84 1039 84 1038 23 c 0,93,94
 1038 -43 1038 -43 1013.5 -99.5 c 128,-1,95
 989 -156 989 -156 946 -199 c 128,-1,96
 903 -242 903 -242 845.5 -266.5 c 128,-1,97
 788 -291 788 -291 723 -291 c 256,98,99
 657 -291 657 -291 601 -266.5 c 128,-1,100
 545 -242 545 -242 502 -199 c 128,-1,101
 459 -156 459 -156 434.5 -99.5 c 128,-1,102
 410 -43 410 -43 410 23 c 256,103,104
 410 89 410 89 434.5 146 c 128,-1,105
 459 203 459 203 502 246 c 128,-1,106
 545 289 545 289 601 313.5 c 128,-1,107
 657 338 657 338 723 338 c 1,52,-1
EndSplineSet
Ligature2: "Lato-Regular-'liga' Standard Ligatures in Latin lookup 1 subtable" T r y space A g a i n
EndChar

StartChar: uniE00D
Encoding: 95 57357 95
Width: 1177
Flags: HWO
LayerCount: 2
Fore
SplineSet
588.5 -120 m 4,0,1
 476 -120 476 -120 377.25 -78.125 c 132,-1,2
 278.5 -36.25 278.5 -36.25 205.375 38.125 c 132,-1,3
 132.25 112.5 132.25 112.5 90.375 210 c 132,-1,4
 48.5 307.5 48.5 307.5 48.5 420 c 260,5,6
 48.5 532.5 48.5 532.5 90.375 631.25 c 132,-1,7
 132.25 730 132.25 730 205.375 802.5 c 132,-1,8
 278.5 875 278.5 875 377.25 917.5 c 132,-1,9
 476 960 476 960 588.5 960 c 4,10,11
 698.5 960 698.5 960 797.25 917.5 c 132,-1,12
 896 875 896 875 969.75 802.5 c 132,-1,13
 1043.5 730 1043.5 730 1086 631.25 c 132,-1,14
 1128.5 532.5 1128.5 532.5 1128.5 420 c 260,15,16
 1128.5 307.5 1128.5 307.5 1086 210 c 132,-1,17
 1043.5 112.5 1043.5 112.5 969.75 38.125 c 132,-1,18
 896 -36.25 896 -36.25 797.25 -78.125 c 132,-1,19
 698.5 -120 698.5 -120 588.5 -120 c 4,0,1
588.5 806.25 m 4,20,21
 506 806.25 506 806.25 436 775.625 c 132,-1,22
 366 745 366 745 314.75 693.75 c 132,-1,23
 263.5 642.5 263.5 642.5 232.875 570.625 c 132,-1,24
 202.25 498.75 202.25 498.75 202.25 420 c 260,25,26
 202.25 341.25 202.25 341.25 232.875 270.625 c 132,-1,27
 263.5 200 263.5 200 314.75 148.75 c 132,-1,28
 366 97.5 366 97.5 436 66.875 c 132,-1,29
 506 36.25 506 36.25 588.5 36.25 c 4,30,31
 667.25 36.25 667.25 36.25 737.875 66.875 c 132,-1,32
 808.5 97.5 808.5 97.5 859.75 148.75 c 132,-1,33
 911 200 911 200 941.625 270 c 132,-1,34
 972.25 340 972.25 340 972.25 420 c 260,35,36
 972.25 498.75 972.25 498.75 941.625 570.625 c 132,-1,37
 911 642.5 911 642.5 859.75 693.75 c 132,-1,38
 808.5 745 808.5 745 737.875 775.625 c 132,-1,39
 667.25 806.25 667.25 806.25 588.5 806.25 c 4,20,21
708.5 325 m 4,40,41
 698.5 315 698.5 315 698.5 310 c 5,42,43
 693.5 310 693.5 310 689.75 307.5 c 132,-1,44
 686 305 686 305 681 300 c 4,45,46
 661 282.5 661 282.5 629.75 273.75 c 5,47,48
 591 258.75 591 258.75 546 245.625 c 132,-1,49
 501 232.5 501 232.5 459.75 222.5 c 4,50,51
 413.5 212.5 413.5 212.5 368.5 202.5 c 5,52,53
 378.5 248.75 378.5 248.75 388.5 293.75 c 4,54,55
 398.5 332.5 398.5 332.5 411.625 378.75 c 132,-1,56
 424.75 425 424.75 425 439.75 461.25 c 4,57,58
 444.75 476.25 444.75 476.25 451 488.75 c 132,-1,59
 457.25 501.25 457.25 501.25 466 515 c 5,60,61
 476 525 476 525 478.5 530 c 5,62,63
 483.5 532.5 483.5 532.5 493.5 542.5 c 4,64,65
 522.25 562.5 522.25 562.5 547.25 568.75 c 5,66,67
 583.5 583.75 583.5 583.75 627.875 596.25 c 132,-1,68
 672.25 608.75 672.25 608.75 713.5 620 c 4,69,70
 759.75 630 759.75 630 806 640 c 5,71,72
 796 593.75 796 593.75 786 547.5 c 4,73,74
 776 506.25 776 506.25 762.875 460.625 c 132,-1,75
 749.75 415 749.75 415 734.75 378.75 c 5,76,77
 726 347.5 726 347.5 708.5 325 c 4,40,41
613.5 447.5 m 5,78,79
 584.75 470 584.75 470 559.75 447.5 c 5,80,81
 537.25 418.75 537.25 418.75 559.75 393.75 c 4,82,83
 572.25 381.25 572.25 381.25 586.625 381.25 c 132,-1,84
 601 381.25 601 381.25 613.5 393.75 c 4,85,86
 638.5 418.75 638.5 418.75 613.5 447.5 c 5,78,79
EndSplineSet
LCarets2: 6 0 0 0 0 0 0 
Ligature2: "Lato-Regular-'liga' Standard Ligatures in Latin lookup 1 subtable" L o a d i n g
EndChar
